<svg id="svg" version="1.1" xmlns="http://www.w3.org/2000/svg" xmlns:xlink="http://www.w3.org/1999/xlink" viewBox="0, 0, 400,421.978021978022"><g id="svgg"><path id="path0" d="M0.000 28.400 L 0.000 56.800 1.148 56.800 C 2.382 56.800,2.430 56.693,3.588 51.400 C 4.241 48.416,4.750 47.362,5.811 46.794 C 6.531 46.409,6.884 45.724,7.229 44.041 C 7.933 40.615,8.782 38.113,9.422 37.582 C 9.740 37.318,10.000 36.899,10.000 36.651 C 10.001 35.785,13.607 31.613,14.562 31.374 C 15.494 31.140,16.161 30.081,17.738 26.334 C 18.077 25.528,18.725 24.751,19.177 24.607 C 19.630 24.464,20.000 24.223,20.000 24.073 C 20.002 23.426,21.961 21.607,23.549 20.780 C 24.496 20.286,25.456 19.476,25.682 18.979 C 25.909 18.482,26.659 17.771,27.349 17.400 C 28.039 17.028,29.117 16.041,29.745 15.206 C 30.373 14.372,31.272 13.512,31.743 13.295 C 34.890 11.849,36.400 11.037,36.400 10.790 C 36.400 10.300,39.546 8.400,40.358 8.400 C 41.535 8.400,44.535 7.007,45.717 5.912 C 46.808 4.900,47.784 4.554,54.500 2.794 C 56.210 2.346,56.400 2.181,56.400 1.148 L 56.400 0.000 28.200 0.000 L 0.000 0.000 0.000 28.400 M345.200 1.157 C 345.200 2.498,345.378 2.590,349.551 3.421 C 353.131 4.134,354.061 4.537,356.172 6.293 C 357.037 7.012,358.104 7.600,358.544 7.600 C 360.360 7.600,364.354 9.242,365.421 10.428 C 365.849 10.904,367.100 11.697,368.200 12.190 C 369.300 12.683,370.672 13.625,371.250 14.283 C 371.827 14.941,373.126 15.880,374.137 16.370 C 375.194 16.881,376.701 18.140,377.682 19.330 C 378.621 20.468,379.645 21.560,379.958 21.755 C 380.270 21.951,381.173 22.832,381.963 23.713 C 382.753 24.595,383.743 25.605,384.161 25.958 C 387.810 29.035,391.890 35.208,393.000 39.330 C 393.432 40.933,394.161 42.517,394.767 43.168 C 395.743 44.216,396.420 46.021,397.027 49.200 C 397.429 51.302,397.924 52.000,399.014 52.000 L 400.000 52.000 400.000 26.000 L 400.000 0.000 372.600 0.000 L 345.200 0.000 345.200 1.157 M199.365 88.425 C 198.944 88.576,197.728 88.906,196.663 89.158 C 194.731 89.615,193.600 90.359,193.600 91.171 C 193.600 91.407,193.443 91.600,193.250 91.600 C 192.540 91.600,190.013 94.272,189.451 95.617 C 189.132 96.380,188.315 97.500,187.635 98.105 C 186.956 98.711,186.400 99.522,186.400 99.909 C 186.400 101.030,184.064 105.510,183.143 106.155 C 182.681 106.479,182.161 107.431,181.988 108.272 C 181.154 112.313,180.256 114.643,179.152 115.629 C 178.518 116.195,178.000 116.792,178.000 116.955 C 178.000 117.254,176.266 121.292,175.662 122.400 C 175.482 122.730,174.937 123.180,174.450 123.400 C 173.833 123.679,173.387 124.465,172.975 126.000 C 171.637 130.984,170.924 132.400,169.754 132.400 C 169.277 132.400,168.000 135.807,168.000 137.077 C 168.000 138.151,166.376 141.021,165.552 141.405 C 165.084 141.622,164.462 142.513,164.169 143.385 C 163.608 145.052,162.265 146.376,161.119 146.391 C 160.042 146.405,158.400 147.279,158.400 147.837 C 158.400 148.806,156.151 150.000,154.338 149.994 C 147.596 149.971,133.419 151.376,132.400 152.168 C 130.157 153.911,122.881 155.359,119.010 154.834 C 117.760 154.664,115.986 154.665,115.069 154.837 C 114.151 155.008,111.960 155.357,110.200 155.612 C 108.440 155.867,106.730 156.300,106.400 156.574 C 105.700 157.154,101.939 158.651,100.200 159.040 C 98.630 159.392,96.800 160.455,96.800 161.017 C 96.800 161.261,96.334 161.897,95.765 162.430 C 92.562 165.431,92.550 176.909,95.747 179.000 C 96.420 179.440,97.393 180.430,97.911 181.200 C 98.428 181.970,99.530 182.921,100.359 183.313 C 101.287 183.752,102.206 184.628,102.746 185.590 C 103.230 186.450,103.999 187.273,104.455 187.418 C 104.912 187.563,105.641 187.978,106.076 188.341 C 106.511 188.703,107.257 189.321,107.734 189.713 C 108.684 190.495,114.816 196.169,117.137 198.415 C 119.584 200.783,125.200 206.855,125.203 207.136 C 125.204 207.281,125.879 207.849,126.703 208.398 C 128.362 209.504,130.765 211.855,132.600 214.166 C 133.260 214.998,134.129 215.975,134.531 216.339 C 138.355 219.796,138.687 239.009,134.990 242.928 C 133.553 244.452,133.412 245.376,133.001 256.000 C 132.664 264.724,131.761 269.844,130.113 272.380 C 128.472 274.907,128.709 285.032,130.454 286.865 C 132.026 288.518,132.806 289.586,133.494 291.027 C 133.854 291.782,134.394 292.400,134.694 292.400 C 134.994 292.400,135.761 292.670,136.399 293.000 C 140.363 295.050,147.979 294.122,151.181 291.200 C 151.784 290.650,153.160 289.954,154.238 289.654 C 158.214 288.547,159.754 287.946,160.369 287.261 C 161.039 286.516,162.477 285.782,165.918 284.430 C 167.083 283.972,168.433 283.223,168.918 282.765 C 170.049 281.697,171.274 281.062,174.161 280.048 C 175.440 279.598,177.429 278.503,178.581 277.615 C 179.732 276.727,180.927 275.999,181.237 275.999 C 181.939 275.997,184.108 274.692,185.164 273.636 C 185.601 273.199,186.642 272.665,187.479 272.448 C 188.316 272.231,189.801 271.845,190.780 271.590 C 192.011 271.269,193.029 270.613,194.080 269.463 L 195.600 267.800 201.300 267.803 C 207.127 267.806,208.970 268.220,209.880 269.731 C 210.056 270.023,210.785 270.602,211.500 271.018 C 212.215 271.433,212.800 271.914,212.800 272.086 C 212.800 272.259,213.025 272.402,213.300 272.404 C 213.575 272.406,214.590 273.036,215.556 273.804 C 216.522 274.572,217.561 275.200,217.865 275.200 C 218.536 275.200,223.682 277.501,223.985 277.936 C 224.490 278.663,226.249 279.600,227.109 279.600 C 228.843 279.600,230.345 280.698,230.620 282.166 C 230.871 283.504,230.923 283.535,233.338 283.797 C 237.431 284.240,240.018 285.197,241.627 286.864 C 242.644 287.918,245.183 289.200,246.253 289.200 C 247.026 289.200,250.433 290.789,251.400 291.601 C 255.384 294.945,264.419 294.224,268.160 290.264 C 269.128 289.239,270.085 288.400,270.285 288.400 C 270.485 288.400,270.886 287.455,271.176 286.300 C 271.467 285.145,271.804 284.027,271.927 283.816 C 272.050 283.605,272.102 282.647,272.043 281.687 C 271.984 280.727,271.768 276.489,271.562 272.270 C 271.122 263.263,270.842 260.400,270.401 260.400 C 270.223 260.400,269.849 259.815,269.568 259.100 C 267.901 254.848,267.643 252.926,266.488 236.181 C 266.208 232.125,266.077 231.602,264.891 229.813 C 262.656 226.437,263.351 219.600,265.930 219.600 C 266.133 219.600,266.851 218.445,267.525 217.034 C 268.352 215.302,269.113 214.294,269.864 213.934 C 270.476 213.640,271.182 212.988,271.433 212.485 C 272.035 211.276,273.567 209.666,274.363 209.405 C 274.713 209.290,275.390 208.593,275.867 207.855 C 276.343 207.117,277.423 206.155,278.267 205.718 C 279.196 205.236,280.115 204.320,280.600 203.394 C 281.046 202.542,282.121 201.429,283.028 200.879 C 283.924 200.336,284.824 199.528,285.028 199.083 C 285.233 198.638,286.246 197.822,287.280 197.269 C 288.466 196.635,289.340 195.828,289.649 195.081 C 290.151 193.870,294.827 188.949,296.223 188.163 C 296.650 187.922,297.498 186.990,298.108 186.091 C 298.717 185.191,299.797 184.091,300.508 183.645 C 301.218 183.199,302.498 182.106,303.352 181.217 C 304.205 180.328,305.119 179.600,305.382 179.600 C 308.016 179.600,309.304 165.944,306.897 163.537 C 306.624 163.264,306.394 162.761,306.387 162.420 C 306.363 161.249,305.322 160.419,301.905 158.848 C 300.022 157.982,298.303 156.955,298.084 156.565 C 297.743 155.955,296.637 155.788,290.144 155.369 C 277.697 154.566,273.670 153.969,268.800 152.208 C 266.229 151.278,263.611 150.800,261.094 150.801 C 253.286 150.805,243.815 149.344,242.046 147.864 C 241.741 147.609,240.751 147.113,239.846 146.762 C 238.086 146.079,236.980 144.405,235.958 140.882 C 235.684 139.937,234.906 138.572,234.230 137.849 C 233.416 136.979,232.665 135.435,232.010 133.286 C 231.291 130.930,230.769 129.905,230.110 129.552 C 229.609 129.284,229.200 128.825,229.200 128.532 C 229.200 128.240,229.020 128.000,228.800 128.000 C 228.580 128.000,228.400 127.780,228.400 127.511 C 228.400 125.799,226.513 121.323,225.367 120.317 C 223.919 119.046,223.481 118.051,222.764 114.413 C 222.370 112.415,221.992 111.605,221.107 110.860 C 220.477 110.330,219.501 108.988,218.939 107.879 C 218.377 106.770,217.320 104.948,216.591 103.831 C 215.862 102.714,214.847 100.540,214.335 99.000 C 213.823 97.460,213.088 95.851,212.702 95.425 C 212.316 94.998,212.000 94.503,212.000 94.325 C 212.000 94.146,211.814 94.000,211.587 94.000 C 211.359 94.000,210.559 93.415,209.808 92.700 C 208.132 91.103,207.675 90.730,206.284 89.818 C 204.964 88.953,200.434 88.041,199.365 88.425 M0.000 383.600 L 0.000 421.600 200.000 421.600 L 400.000 421.600 400.000 385.400 L 400.000 349.200 399.053 349.200 C 398.059 349.200,396.800 352.383,396.800 354.893 C 396.800 356.319,395.424 359.413,394.281 360.555 C 393.764 361.073,393.117 362.105,392.845 362.848 C 391.554 366.376,389.441 369.585,388.400 369.602 C 388.290 369.604,387.758 370.279,387.217 371.103 C 386.676 371.926,385.832 372.960,385.342 373.400 C 384.852 373.840,384.013 375.010,383.477 376.000 C 382.941 376.990,381.771 378.340,380.876 379.000 C 379.981 379.660,379.238 380.450,379.224 380.756 C 379.192 381.485,373.224 387.200,372.494 387.200 C 372.184 387.200,370.970 388.152,369.797 389.316 C 368.101 390.999,367.228 391.537,365.532 391.946 C 362.538 392.666,361.291 393.187,361.049 393.818 C 360.809 394.442,358.145 395.722,355.800 396.339 C 351.121 397.569,350.400 397.797,350.400 398.043 C 350.400 398.609,346.857 399.919,343.600 400.556 C 340.461 401.170,329.268 401.212,197.800 401.100 C 42.100 400.967,53.759 401.149,51.330 398.811 C 50.789 398.290,49.373 397.715,47.847 397.396 C 45.291 396.861,43.246 395.792,41.056 393.847 C 40.427 393.288,38.897 392.544,37.656 392.193 C 36.415 391.842,35.099 391.467,34.731 391.360 C 34.364 391.253,32.990 390.229,31.680 389.083 C 30.369 387.937,27.825 385.775,26.027 384.277 C 24.229 382.780,22.641 381.251,22.498 380.879 C 22.182 380.055,21.017 378.877,19.366 377.711 C 18.688 377.232,17.536 375.706,16.806 374.320 C 16.076 372.934,14.875 371.291,14.137 370.669 C 13.400 370.047,12.258 368.756,11.600 367.799 C 10.941 366.843,10.177 365.821,9.901 365.530 C 9.045 364.625,7.870 361.717,7.406 359.357 C 7.259 358.611,6.771 357.906,6.183 357.591 C 4.594 356.741,3.993 355.387,3.561 351.690 C 2.959 346.534,2.592 345.600,1.169 345.600 L 0.000 345.600 0.000 383.600 " stroke="none" fill="#fcfcfc" fill-rule="evenodd"></path><path id="path1" d="M60.400 1.209 C 60.400 2.566,59.984 2.812,56.400 3.583 C 53.887 4.123,53.958 4.096,48.600 6.605 C 44.513 8.519,44.037 8.727,41.600 9.649 C 40.830 9.941,39.880 10.454,39.488 10.790 C 39.097 11.125,37.441 12.120,35.809 13.000 C 33.858 14.052,31.625 15.783,29.289 18.054 C 27.335 19.954,25.161 21.807,24.457 22.171 C 23.753 22.534,22.688 23.391,22.089 24.073 C 21.490 24.756,20.526 25.784,19.948 26.357 C 19.369 26.931,18.325 28.480,17.628 29.800 C 16.930 31.120,15.778 32.740,15.066 33.400 C 14.355 34.060,13.344 35.230,12.821 36.000 C 12.297 36.770,11.436 37.791,10.907 38.270 C 9.801 39.270,8.400 42.672,8.400 44.355 C 8.400 45.743,7.528 47.909,6.531 49.000 C 5.230 50.423,4.663 51.933,3.769 56.351 C 2.781 61.235,2.422 62.000,1.120 62.000 L 0.000 62.000 0.000 65.200 L 0.000 68.400 1.157 68.400 C 1.881 68.400,2.424 68.138,2.607 67.700 C 2.962 66.852,3.588 63.968,5.259 55.488 C 5.509 54.217,5.869 53.081,6.057 52.965 C 6.246 52.848,6.400 52.423,6.400 52.019 C 6.400 51.616,6.631 51.197,6.914 51.089 C 7.830 50.737,9.149 47.472,9.621 44.389 C 10.134 41.032,10.427 40.485,12.301 39.388 C 13.016 38.970,13.707 38.291,13.838 37.881 C 13.968 37.471,14.576 36.655,15.189 36.068 C 16.390 34.917,18.023 32.308,19.048 29.900 C 19.399 29.075,19.812 28.400,19.965 28.400 C 20.431 28.400,23.036 25.846,23.304 25.127 C 23.441 24.757,24.510 23.843,25.677 23.096 C 27.705 21.798,30.730 19.032,32.291 17.048 C 32.930 16.235,35.049 14.996,38.934 13.163 C 39.558 12.869,40.498 12.230,41.022 11.744 C 41.547 11.258,42.656 10.630,43.488 10.349 C 44.320 10.067,45.171 9.693,45.380 9.518 C 45.589 9.343,46.060 9.200,46.427 9.200 C 47.383 9.200,51.200 7.559,51.200 7.148 C 51.200 6.432,55.358 4.800,57.181 4.800 C 60.840 4.800,64.400 3.000,64.400 1.151 C 64.400 0.036,64.337 0.000,62.400 0.000 C 60.441 0.000,60.400 0.025,60.400 1.209 M337.200 1.029 C 337.200 2.678,338.179 3.243,343.000 4.379 C 348.864 5.761,350.340 6.295,351.555 7.474 C 352.080 7.983,352.815 8.400,353.188 8.400 C 353.561 8.400,353.990 8.523,354.141 8.674 C 354.521 9.054,357.265 9.987,358.024 9.994 C 358.367 9.997,359.581 10.797,360.722 11.771 C 361.863 12.744,363.824 13.926,365.081 14.396 C 366.337 14.866,368.134 15.959,369.074 16.825 C 370.013 17.691,370.968 18.400,371.195 18.400 C 371.680 18.400,377.466 24.099,378.606 25.700 C 379.037 26.305,379.535 26.800,379.713 26.800 C 380.243 26.800,381.752 28.489,382.750 30.200 C 383.263 31.080,383.937 31.946,384.248 32.124 C 384.559 32.302,385.348 33.626,386.001 35.066 C 386.654 36.506,387.733 38.160,388.400 38.742 C 389.777 39.945,390.800 41.713,390.800 42.891 C 390.800 43.937,392.416 46.800,393.006 46.800 C 393.525 46.800,394.153 47.944,394.762 50.000 C 397.122 57.976,397.135 58.000,398.849 58.000 C 399.861 58.000,400.000 57.855,400.000 56.800 C 400.000 55.808,399.837 55.600,399.063 55.600 C 397.943 55.600,397.058 54.080,396.220 50.715 C 395.531 47.945,394.516 45.715,393.382 44.478 C 392.917 43.971,392.133 42.378,391.639 40.940 C 391.145 39.501,390.124 37.359,389.371 36.181 C 388.617 35.003,388.000 33.930,388.000 33.797 C 388.000 32.344,375.479 18.818,373.000 17.593 C 371.531 16.867,371.396 16.773,369.400 15.094 C 368.520 14.354,366.810 13.283,365.600 12.715 C 364.390 12.146,363.019 11.318,362.553 10.875 C 362.087 10.431,360.917 9.800,359.953 9.472 C 356.666 8.354,354.602 7.444,352.861 6.347 C 351.905 5.743,350.105 4.949,348.861 4.582 C 342.098 2.582,342.210 2.637,342.075 1.269 C 341.896 -0.541,337.200 -0.772,337.200 1.029 M198.400 84.300 C 197.630 84.657,196.370 85.202,195.600 85.511 C 191.806 87.035,190.894 87.679,188.596 90.459 C 185.747 93.906,185.302 94.612,183.868 97.959 C 183.265 99.367,182.328 101.046,181.786 101.690 C 181.243 102.334,180.690 103.343,180.556 103.931 C 179.810 107.204,178.465 110.412,177.556 111.088 C 176.818 111.636,175.200 114.869,175.200 115.795 C 175.200 116.127,174.589 117.254,173.842 118.299 C 171.982 120.904,170.800 123.088,170.800 123.922 C 170.800 124.305,169.982 126.055,168.982 127.810 C 167.982 129.564,166.917 131.720,166.616 132.600 C 165.908 134.666,165.259 135.870,163.893 137.651 C 163.284 138.444,162.571 139.998,162.309 141.103 C 162.030 142.275,161.506 143.316,161.052 143.600 C 159.886 144.328,155.011 145.600,153.386 145.600 C 152.602 145.600,151.205 145.966,150.281 146.413 C 147.797 147.615,144.488 148.250,138.000 148.770 C 125.497 149.771,124.502 149.921,122.776 151.063 C 121.264 152.064,121.032 152.103,118.903 151.717 C 117.040 151.380,116.245 151.431,114.419 152.006 C 112.350 152.657,106.472 153.600,104.481 153.600 C 102.417 153.600,94.466 157.626,93.529 159.144 C 91.143 163.014,89.152 168.884,89.657 170.562 C 89.862 171.243,90.215 172.430,90.442 173.200 C 90.668 173.970,91.012 174.960,91.206 175.400 C 91.401 175.840,91.846 177.082,92.196 178.160 C 93.120 181.011,96.026 184.712,97.400 184.790 C 97.931 184.820,100.400 187.010,100.401 187.453 C 100.403 188.369,106.425 193.600,107.477 193.600 C 107.699 193.600,108.312 194.183,108.840 194.895 C 109.368 195.607,110.298 196.642,110.906 197.195 C 113.153 199.237,115.736 201.862,117.691 204.089 C 118.797 205.348,120.075 206.497,120.532 206.642 C 121.535 206.960,122.019 207.450,122.769 208.903 C 123.082 209.509,123.690 210.319,124.120 210.703 C 124.550 211.086,125.734 212.220,126.751 213.222 C 127.768 214.225,129.051 215.325,129.601 215.667 C 130.152 216.009,131.021 217.127,131.533 218.151 C 132.044 219.175,132.906 220.540,133.448 221.184 C 135.608 223.752,135.785 231.114,133.761 234.203 C 132.977 235.399,132.712 236.796,131.784 244.600 C 131.443 247.460,130.993 250.568,130.783 251.506 C 130.572 252.444,130.400 254.258,130.400 255.538 C 130.400 256.935,130.023 258.969,129.455 260.632 C 127.453 266.496,126.624 273.284,126.894 281.605 C 127.172 290.201,128.409 292.855,133.142 295.014 C 135.964 296.301,137.802 297.291,138.023 297.642 C 138.639 298.623,144.563 298.107,147.379 296.826 C 148.907 296.131,150.797 295.277,151.579 294.928 C 152.360 294.579,154.642 293.507,156.648 292.547 C 158.655 291.586,160.610 290.800,160.992 290.800 C 161.849 290.800,166.400 288.412,166.400 287.963 C 166.400 287.634,166.783 287.438,171.782 285.214 C 173.312 284.533,174.842 283.727,175.182 283.424 C 175.522 283.120,177.500 282.141,179.578 281.247 C 181.655 280.354,183.509 279.348,183.697 279.012 C 183.886 278.675,184.228 278.400,184.458 278.400 C 184.688 278.400,185.354 278.074,185.938 277.675 C 186.522 277.276,187.810 276.696,188.800 276.387 C 189.790 276.078,191.500 275.333,192.600 274.732 C 196.868 272.398,197.219 272.302,201.678 272.250 C 204.625 272.216,206.113 272.356,206.458 272.700 C 206.734 272.975,207.205 273.200,207.504 273.200 C 207.803 273.200,208.846 273.809,209.821 274.554 C 210.796 275.299,213.081 276.496,214.897 277.216 C 216.714 277.935,218.560 278.902,219.000 279.365 C 220.250 280.678,223.543 282.000,225.565 282.000 C 226.233 282.000,226.897 282.386,227.405 283.070 C 228.789 284.932,229.529 285.431,231.692 285.960 C 234.584 286.666,236.400 287.309,236.400 287.627 C 236.400 288.130,239.402 289.867,241.940 290.833 C 243.337 291.365,244.889 292.176,245.390 292.635 C 246.283 293.453,252.122 296.006,253.091 296.002 C 253.361 296.001,254.531 296.430,255.691 296.955 C 260.808 299.274,261.383 299.276,266.222 297.000 C 268.326 296.010,270.135 295.200,270.242 295.200 C 271.108 295.200,273.650 291.475,274.146 289.481 C 274.300 288.865,274.964 287.249,275.622 285.890 C 276.955 283.139,276.875 281.567,275.168 276.878 C 274.723 275.658,274.144 272.258,273.805 268.878 C 273.481 265.645,273.031 261.200,272.806 259.000 C 272.580 256.800,272.396 254.419,272.398 253.709 C 272.399 252.999,271.888 251.469,271.263 250.309 C 270.041 248.044,269.968 247.525,269.187 235.600 C 268.949 231.961,268.532 228.762,268.176 227.855 C 266.861 224.501,268.937 218.298,271.883 216.777 C 272.497 216.460,273.195 216.020,273.434 215.800 C 273.673 215.580,274.348 215.042,274.934 214.605 C 275.520 214.168,276.000 213.668,276.000 213.495 C 276.000 213.093,279.475 209.604,279.889 209.589 C 280.060 209.583,280.650 208.967,281.200 208.221 C 281.750 207.475,283.613 205.545,285.341 203.932 C 290.186 199.409,293.645 195.959,295.400 193.899 C 296.280 192.867,297.180 192.013,297.400 192.002 C 297.620 191.992,298.508 190.994,299.374 189.786 C 300.239 188.578,301.679 187.160,302.574 186.635 C 304.582 185.457,306.264 183.781,310.378 178.859 C 314.433 174.009,311.844 158.946,306.686 157.375 C 306.199 157.227,305.530 156.875,305.200 156.593 C 302.822 154.564,299.963 153.760,293.000 153.166 C 287.841 152.725,285.146 152.216,279.800 150.673 C 276.515 149.725,264.939 148.400,259.943 148.400 C 257.338 148.400,253.333 147.662,251.400 146.827 C 249.759 146.117,248.151 145.658,246.500 145.428 C 241.880 144.783,239.846 143.483,239.242 140.787 C 238.665 138.212,237.847 136.420,236.444 134.654 C 235.253 133.157,233.200 129.242,233.200 128.470 C 233.200 128.261,232.570 127.174,231.800 126.055 C 231.030 124.935,230.400 123.756,230.400 123.433 C 230.400 123.111,230.234 122.744,230.031 122.619 C 229.827 122.493,229.371 121.516,229.015 120.446 C 228.660 119.377,227.841 117.804,227.196 116.951 C 226.550 116.098,226.017 115.096,226.011 114.724 C 226.005 114.352,225.820 113.936,225.600 113.800 C 225.380 113.664,225.200 113.203,225.200 112.774 C 225.200 112.346,224.769 111.142,224.243 110.098 C 223.717 109.054,222.437 106.490,221.399 104.400 C 220.361 102.310,219.202 100.150,218.824 99.600 C 218.446 99.050,217.713 97.520,217.194 96.200 C 215.375 91.566,213.784 89.621,210.429 87.932 C 209.423 87.425,208.510 86.917,208.400 86.802 C 205.998 84.290,201.077 83.059,198.400 84.300 M205.083 87.025 C 205.398 87.341,206.093 87.709,206.628 87.843 C 207.163 87.977,207.600 88.247,207.600 88.443 C 207.600 88.640,207.828 88.800,208.106 88.800 C 209.649 88.800,213.594 92.865,215.001 95.906 C 215.789 97.607,216.814 99.720,217.278 100.600 C 217.742 101.480,218.770 103.467,219.561 105.016 C 220.353 106.564,221.394 108.329,221.875 108.938 C 222.689 109.967,223.612 112.356,224.161 114.854 C 224.288 115.434,225.048 116.874,225.851 118.054 C 227.355 120.268,229.200 124.047,229.200 124.915 C 229.200 125.186,229.661 125.905,230.224 126.512 C 230.787 127.120,231.524 128.288,231.862 129.108 C 233.745 133.682,234.883 136.000,235.245 136.000 C 235.546 136.000,236.926 139.365,237.686 141.950 C 238.265 143.923,239.720 145.229,242.200 146.003 C 243.080 146.277,244.880 146.909,246.200 147.406 C 249.612 148.691,252.187 149.140,258.888 149.617 C 266.181 150.137,272.313 150.954,275.200 151.792 C 280.051 153.200,287.629 154.400,291.675 154.400 C 295.582 154.400,299.353 155.112,300.906 156.143 C 301.618 156.615,303.145 157.437,304.300 157.969 C 305.455 158.501,306.400 159.086,306.400 159.268 C 306.400 159.451,306.637 159.600,306.928 159.600 C 307.218 159.600,308.007 160.905,308.682 162.500 C 312.197 170.808,311.210 176.587,305.387 181.801 C 303.667 183.340,299.906 187.022,297.030 189.983 C 289.181 198.062,287.949 199.274,286.031 200.800 C 285.064 201.570,283.806 202.707,283.236 203.326 C 279.811 207.047,271.761 214.800,271.322 214.800 C 271.035 214.800,270.800 214.980,270.800 215.200 C 270.800 215.420,270.560 215.600,270.268 215.600 C 269.975 215.600,269.485 216.095,269.180 216.700 C 268.369 218.306,266.299 221.378,265.923 221.533 C 265.488 221.713,265.509 226.540,265.947 227.020 C 266.928 228.093,267.633 231.524,268.038 237.200 C 268.901 249.281,269.382 252.400,270.384 252.400 C 270.551 252.400,270.810 253.435,270.959 254.700 C 271.107 255.965,271.394 258.170,271.595 259.600 C 271.797 261.030,272.149 264.360,272.378 267.000 C 272.607 269.640,272.991 273.330,273.231 275.200 C 274.237 283.030,274.243 283.298,273.471 285.600 C 271.660 290.993,270.266 292.582,265.113 295.122 L 261.626 296.841 259.823 296.228 C 258.831 295.892,256.633 295.253,254.938 294.809 C 252.118 294.071,248.489 292.607,248.000 292.012 C 247.890 291.878,246.630 291.262,245.200 290.644 C 241.754 289.154,239.446 287.983,239.200 287.603 C 238.689 286.810,235.722 285.552,233.299 285.100 C 230.966 284.664,230.420 284.383,229.022 282.899 C 227.779 281.581,226.792 281.001,224.628 280.318 C 223.093 279.834,221.522 279.122,221.137 278.737 C 220.752 278.352,219.573 277.648,218.518 277.173 C 214.446 275.339,213.335 274.716,211.400 273.185 C 206.156 269.033,196.243 268.363,193.600 271.981 C 193.490 272.132,192.680 272.539,191.800 272.886 C 188.712 274.103,185.774 275.602,183.000 277.377 C 181.460 278.363,179.570 279.468,178.800 279.833 C 173.745 282.231,171.600 283.373,171.600 283.665 C 171.600 283.849,171.416 284.000,171.192 284.000 C 170.666 284.000,163.864 287.206,163.600 287.578 C 163.305 287.995,161.201 289.061,159.600 289.605 C 156.953 290.504,156.589 290.666,152.508 292.747 C 145.833 296.151,141.174 296.870,137.192 295.109 C 136.426 294.771,135.247 294.284,134.571 294.028 C 132.545 293.260,129.504 289.842,128.873 287.625 C 127.860 284.066,127.776 283.091,128.058 278.200 C 128.374 272.705,129.062 267.926,129.726 266.609 C 130.651 264.776,131.980 256.395,132.011 252.200 C 132.041 248.114,133.262 241.548,134.206 240.400 C 134.683 239.821,135.089 238.267,135.985 233.600 C 136.570 230.556,136.566 223.923,135.979 222.106 C 135.109 219.414,129.462 212.860,125.033 209.400 C 124.469 208.960,124.006 208.433,124.004 208.228 C 123.999 207.772,120.423 204.400,119.944 204.400 C 119.755 204.400,119.600 204.180,119.600 203.911 C 119.600 203.286,109.055 192.986,107.200 191.800 C 105.886 190.960,102.169 187.455,100.058 185.066 C 99.540 184.480,98.865 184.000,98.558 184.000 C 98.251 184.000,98.000 183.820,98.000 183.600 C 98.000 183.380,97.817 183.200,97.593 183.200 C 95.379 183.200,91.859 175.217,91.861 170.200 C 91.864 164.605,94.050 160.089,97.487 158.577 C 99.042 157.893,101.196 156.853,102.931 155.947 C 103.619 155.588,105.446 155.085,106.991 154.830 C 108.536 154.575,111.330 154.101,113.200 153.778 C 115.345 153.407,117.525 153.287,119.107 153.453 C 121.499 153.703,124.800 152.868,124.800 152.013 C 124.800 151.673,128.778 150.938,133.400 150.424 C 135.380 150.203,138.640 149.838,140.645 149.612 C 142.650 149.385,144.990 149.194,145.845 149.186 C 146.700 149.179,148.840 148.808,150.600 148.363 C 152.360 147.917,154.250 147.457,154.800 147.339 C 155.350 147.222,156.563 146.783,157.496 146.363 C 158.428 145.943,159.547 145.600,159.982 145.600 C 160.903 145.600,163.600 143.051,163.600 142.181 C 163.600 141.446,164.332 140.143,165.463 138.864 C 165.937 138.327,166.638 136.879,167.019 135.644 C 167.884 132.842,168.632 131.346,169.793 130.094 C 170.292 129.556,170.926 128.370,171.202 127.458 C 171.977 124.899,173.158 122.412,174.047 121.462 C 174.756 120.704,177.600 115.204,177.600 114.590 C 177.600 114.462,178.039 113.712,178.574 112.923 C 179.110 112.135,180.128 109.808,180.837 107.753 C 181.545 105.698,182.421 103.698,182.784 103.309 C 183.431 102.613,186.400 96.664,186.400 96.063 C 186.400 95.894,187.054 95.046,187.854 94.178 C 188.654 93.310,189.743 91.947,190.274 91.149 C 192.653 87.579,202.808 84.751,205.083 87.025 M0.000 337.000 L 0.000 340.400 1.184 340.400 C 2.491 340.400,2.325 340.026,3.980 346.710 C 4.431 348.531,4.800 350.915,4.800 352.008 C 4.800 353.835,4.950 354.147,6.652 355.874 C 7.671 356.908,8.769 358.394,9.091 359.177 C 10.352 362.242,11.035 363.489,12.716 365.800 C 13.676 367.120,14.857 368.560,15.341 369.000 C 15.825 369.440,16.666 370.664,17.211 371.720 C 18.265 373.766,26.276 382.115,29.000 384.006 C 29.880 384.618,31.590 386.085,32.800 387.267 C 34.010 388.449,35.540 389.656,36.200 389.950 C 39.353 391.353,39.861 391.562,40.708 391.802 C 41.207 391.943,42.377 392.631,43.308 393.329 C 45.411 394.909,46.510 395.445,48.800 396.012 C 49.790 396.257,51.500 397.044,52.600 397.762 C 56.148 400.078,50.910 400.000,202.104 400.000 C 350.588 400.000,341.955 400.116,346.467 398.061 C 348.970 396.921,351.555 395.990,353.200 395.636 C 354.850 395.282,357.282 394.162,360.600 392.230 C 361.920 391.461,363.954 390.527,365.120 390.155 C 366.286 389.782,367.456 389.190,367.720 388.839 C 368.203 388.196,369.600 386.983,372.832 384.400 C 373.796 383.630,375.218 382.302,375.992 381.449 C 378.171 379.048,379.146 378.072,379.717 377.722 C 380.410 377.297,382.614 374.477,383.301 373.138 C 383.600 372.554,384.984 370.844,386.375 369.338 C 389.330 366.141,390.307 364.663,391.595 361.445 C 392.114 360.149,393.226 358.294,394.067 357.323 C 394.908 356.351,395.676 355.161,395.775 354.678 C 395.873 354.195,396.179 352.540,396.455 351.000 C 397.056 347.638,397.753 346.400,399.046 346.400 C 399.892 346.400,400.000 346.219,400.000 344.800 C 400.000 343.309,399.923 343.200,398.863 343.200 C 397.119 343.200,395.200 347.681,395.200 351.752 C 395.200 353.953,393.988 356.400,392.898 356.400 C 392.225 356.400,390.897 358.197,390.386 359.800 C 389.562 362.391,388.896 363.727,387.816 364.962 C 387.257 365.601,386.800 366.236,386.800 366.372 C 386.800 366.508,385.900 367.549,384.800 368.684 C 383.700 369.819,382.800 370.843,382.800 370.960 C 382.800 371.503,380.258 375.096,379.288 375.926 C 378.689 376.437,376.670 378.342,374.800 380.158 C 372.930 381.975,370.552 384.037,369.515 384.740 C 368.478 385.443,367.488 386.239,367.315 386.509 C 366.903 387.151,365.130 388.208,362.400 389.440 C 359.601 390.702,356.485 392.332,355.200 393.206 C 354.650 393.580,353.750 393.985,353.200 394.106 C 349.742 394.866,346.689 395.864,344.600 396.918 C 339.847 399.315,348.200 399.173,212.600 399.164 C 64.318 399.155,55.693 399.015,54.396 396.593 C 53.949 395.758,51.977 394.800,50.705 394.800 C 49.919 394.800,46.294 393.273,46.008 392.821 C 45.446 391.934,41.347 390.132,38.311 389.439 C 37.694 389.298,36.814 388.590,36.280 387.804 C 35.762 387.042,34.452 385.746,33.369 384.924 C 32.286 384.103,31.162 383.199,30.871 382.916 C 30.581 382.632,30.165 382.400,29.948 382.400 C 29.731 382.400,27.500 380.330,24.992 377.800 C 22.483 375.270,20.276 373.200,20.089 373.200 C 19.669 373.200,18.000 370.134,18.000 369.362 C 18.000 369.053,17.820 368.800,17.600 368.800 C 17.380 368.800,17.200 368.574,17.200 368.297 C 17.200 368.021,16.399 366.818,15.420 365.624 C 14.441 364.431,12.792 361.780,11.756 359.734 C 9.707 355.686,8.835 354.545,7.362 353.985 C 6.668 353.722,6.398 353.310,6.393 352.510 C 6.385 351.394,5.516 346.378,4.814 343.400 C 4.606 342.520,4.276 341.080,4.079 340.200 C 2.863 334.763,2.347 333.600,1.147 333.600 L 0.000 333.600 0.000 337.000 " stroke="none" fill="#ececec" fill-rule="evenodd"></path><path id="path2" d="M70.785 1.100 C 70.750 3.645,66.819 5.359,59.418 6.057 C 54.386 6.531,54.000 6.626,54.000 7.389 C 54.000 8.970,50.150 10.693,46.400 10.791 C 45.689 10.810,45.227 11.178,44.800 12.064 C 44.144 13.427,40.487 15.200,38.332 15.200 C 37.709 15.200,37.200 15.355,37.200 15.545 C 37.200 16.166,35.108 18.000,34.399 18.000 C 33.287 18.000,31.684 19.509,31.394 20.827 C 31.179 21.808,30.706 22.244,28.963 23.069 C 27.773 23.633,26.800 24.237,26.800 24.413 C 26.800 24.589,26.062 25.513,25.160 26.466 C 24.258 27.420,23.085 28.875,22.555 29.700 C 21.914 30.696,21.289 31.201,20.695 31.203 C 19.712 31.207,18.800 32.700,18.800 34.306 C 18.800 35.196,18.175 36.755,17.639 37.200 C 17.507 37.310,17.163 37.850,16.876 38.400 C 15.714 40.622,14.779 41.365,12.867 41.585 L 11.000 41.800 10.906 43.600 C 10.804 45.550,10.245 48.744,9.506 51.600 C 9.059 53.329,7.908 54.759,6.940 54.787 C 6.391 54.803,6.133 56.684,5.620 64.400 C 5.407 67.590,5.158 70.970,5.065 71.912 C 4.850 74.088,3.658 75.200,1.539 75.200 L 0.000 75.200 0.000 198.400 L 0.000 321.600 1.056 321.600 C 2.479 321.600,3.171 322.636,3.193 324.800 C 3.203 325.790,3.498 327.410,3.848 328.400 C 4.495 330.230,4.914 332.700,5.612 338.800 C 6.327 345.054,6.538 345.864,7.813 347.266 C 9.070 348.649,10.800 351.955,10.800 352.976 C 10.800 353.297,11.044 353.704,11.342 353.880 C 12.118 354.339,12.800 355.782,12.800 356.966 C 12.800 358.757,15.224 363.130,16.455 363.559 C 17.605 363.960,18.301 365.067,19.201 367.925 C 19.500 368.874,20.228 370.044,20.820 370.525 C 21.411 371.006,22.639 372.002,23.549 372.739 C 24.459 373.475,26.138 375.334,27.281 376.871 C 28.526 378.546,29.956 379.969,30.852 380.426 C 31.673 380.846,32.459 381.371,32.596 381.594 C 32.734 381.817,33.189 382.000,33.607 382.000 C 34.025 382.000,35.123 382.720,36.048 383.600 C 36.973 384.480,37.883 385.200,38.069 385.200 C 38.559 385.200,40.620 387.283,40.906 388.066 C 41.058 388.482,41.947 388.899,43.275 389.176 C 46.981 389.950,48.470 390.626,49.154 391.847 C 50.102 393.539,50.385 393.660,52.782 393.406 C 55.026 393.167,57.690 393.937,60.600 395.665 C 64.553 398.013,50.615 397.780,200.600 398.000 C 339.492 398.204,339.867 398.200,341.096 396.647 C 342.097 395.382,343.705 394.825,348.722 394.009 C 349.889 393.818,351.239 393.378,351.722 393.030 C 352.205 392.682,353.475 391.768,354.544 390.999 C 355.648 390.204,356.966 389.600,357.596 389.600 C 358.357 389.600,359.317 389.033,360.653 387.793 C 361.724 386.799,363.529 385.526,364.665 384.963 C 365.801 384.401,367.056 383.580,367.455 383.139 C 367.854 382.699,369.101 381.903,370.226 381.370 C 371.601 380.720,372.510 379.961,372.996 379.060 C 373.393 378.322,374.344 377.381,375.109 376.969 C 375.873 376.558,376.785 375.766,377.134 375.210 C 377.484 374.655,378.213 373.840,378.755 373.400 C 380.668 371.846,381.200 371.191,381.200 370.389 C 381.200 369.944,381.979 368.800,382.931 367.848 C 385.632 365.147,386.417 363.814,387.994 359.250 L 389.463 355.000 391.632 354.579 L 393.800 354.159 394.101 350.979 C 394.917 342.342,396.351 338.800,399.031 338.800 L 400.000 338.800 400.000 205.827 L 400.000 72.853 398.900 72.687 L 397.800 72.520 398.900 72.460 L 400.000 72.400 400.000 66.979 L 400.000 61.558 397.941 61.679 C 396.603 61.758,395.779 62.010,395.588 62.400 C 395.425 62.730,395.057 63.503,394.769 64.118 C 394.405 64.895,393.996 65.200,393.423 65.118 C 392.134 64.933,392.137 63.092,393.429 61.398 C 394.670 59.771,395.010 54.021,394.037 51.100 C 393.542 49.612,393.520 49.600,391.369 49.600 L 389.200 49.600 389.200 45.600 C 389.200 41.666,389.184 41.600,388.258 41.600 C 387.071 41.600,385.316 40.001,384.964 38.598 C 384.816 38.010,384.311 37.114,383.842 36.608 C 383.373 36.102,382.767 34.858,382.496 33.844 C 382.225 32.830,381.844 32.000,381.650 32.000 C 381.456 32.000,381.086 31.491,380.829 30.870 C 380.571 30.248,379.658 29.159,378.800 28.449 C 377.942 27.739,376.881 26.582,376.444 25.879 C 375.648 24.600,370.961 19.600,370.558 19.600 C 370.440 19.600,369.559 19.060,368.600 18.400 C 367.563 17.687,366.342 17.200,365.590 17.200 C 364.325 17.200,362.000 16.108,362.000 15.514 C 362.000 15.341,361.696 15.200,361.324 15.200 C 360.952 15.200,359.783 14.264,358.725 13.119 C 356.792 11.027,354.692 10.064,351.961 10.018 C 350.393 9.991,348.457 8.871,347.808 7.615 C 347.089 6.225,345.711 5.901,340.000 5.777 C 337.690 5.727,335.600 5.666,335.355 5.643 C 334.147 5.527,332.800 3.471,332.800 1.745 L 332.800 0.000 201.800 0.000 L 70.800 0.000 70.785 1.100 M359.140 19.043 L 360.058 19.686 359.159 20.643 C 357.951 21.930,354.905 21.977,352.904 20.740 C 351.249 19.718,351.734 19.213,354.800 18.768 C 357.739 18.342,358.178 18.369,359.140 19.043 M376.549 49.168 C 376.804 50.767,376.565 52.000,376.000 52.000 C 375.452 52.000,375.256 50.952,375.484 49.249 C 375.763 47.170,376.223 47.135,376.549 49.168 M11.089 62.900 C 11.001 63.615,10.928 63.030,10.928 61.600 C 10.928 60.170,11.001 59.585,11.089 60.300 C 11.178 61.015,11.178 62.185,11.089 62.900 M389.826 71.763 C 390.207 73.281,389.266 74.778,388.547 73.796 C 387.891 72.898,387.872 72.586,388.414 71.574 C 388.975 70.525,389.535 70.600,389.826 71.763 M201.100 78.500 C 201.554 79.435,202.027 80.515,202.150 80.900 C 202.288 81.329,202.776 81.600,203.410 81.600 C 204.418 81.600,207.601 83.150,208.581 84.118 C 208.850 84.383,210.608 85.388,212.489 86.350 L 215.908 88.100 218.757 93.750 C 220.324 96.858,221.605 99.601,221.603 99.846 C 221.601 100.091,221.938 100.722,222.351 101.247 C 224.471 103.943,225.322 106.189,225.957 110.775 C 226.160 112.235,226.499 113.090,226.990 113.375 C 228.559 114.286,229.501 116.002,230.407 119.600 C 230.601 120.370,231.221 121.368,231.785 121.819 C 232.773 122.609,234.099 125.490,234.812 128.400 C 235.001 129.170,235.475 129.980,235.866 130.200 C 237.280 130.997,238.797 132.905,239.197 134.390 C 239.422 135.224,239.874 136.130,240.203 136.402 C 240.531 136.675,240.800 137.153,240.800 137.465 C 240.800 141.882,242.895 143.831,248.000 144.161 C 256.584 144.717,257.565 144.859,257.793 145.579 C 258.177 146.789,259.632 147.125,266.600 147.613 C 285.440 148.932,285.529 148.945,288.400 150.826 C 289.775 151.727,291.364 151.998,297.400 152.363 C 302.758 152.687,307.088 154.137,308.778 156.174 C 309.071 156.526,309.960 157.111,310.755 157.472 C 313.047 158.516,313.581 159.439,313.591 162.379 C 313.596 163.798,313.816 166.453,314.080 168.279 C 314.858 173.662,313.353 179.785,310.861 181.367 C 309.809 182.035,309.256 182.770,308.884 183.992 C 308.600 184.925,308.150 185.902,307.884 186.163 C 306.977 187.053,303.657 189.200,303.190 189.200 C 302.068 189.200,300.457 190.615,299.999 192.002 C 299.622 193.147,299.114 193.677,297.769 194.330 C 296.558 194.919,295.781 195.661,295.213 196.774 C 294.146 198.866,289.849 203.200,288.842 203.200 C 288.094 203.200,286.400 205.082,286.400 205.914 C 286.400 206.128,285.590 206.967,284.600 207.779 C 283.610 208.590,282.800 209.430,282.800 209.645 C 282.800 210.290,281.089 211.789,279.700 212.362 C 278.901 212.691,278.400 213.180,278.400 213.630 C 278.400 214.972,277.503 216.355,276.245 216.953 C 275.560 217.278,274.471 218.097,273.825 218.772 C 273.179 219.447,272.293 220.000,271.857 220.000 C 269.070 220.000,268.582 228.690,271.271 230.433 C 271.480 230.569,271.457 231.124,271.216 231.759 C 270.343 234.054,270.704 238.559,271.979 241.282 C 273.285 244.071,273.409 245.024,273.958 256.400 C 274.502 267.673,274.639 268.474,276.211 269.552 C 279.569 271.852,279.717 285.413,276.462 292.483 C 274.168 297.466,271.505 299.127,263.208 300.753 C 260.611 301.262,251.650 298.786,249.479 296.960 C 248.852 296.432,247.907 296.000,247.380 296.000 C 245.956 296.000,242.802 294.380,241.346 292.900 C 240.642 292.185,239.690 291.600,239.229 291.600 C 237.861 291.600,234.851 289.991,233.867 288.734 C 233.174 287.848,232.344 287.423,230.445 286.980 C 227.972 286.403,227.100 285.900,226.750 284.851 C 226.530 284.190,224.170 283.353,221.481 282.984 C 219.079 282.653,217.048 281.593,215.400 279.810 C 214.469 278.802,213.639 278.397,211.700 278.001 C 210.325 277.720,209.200 277.335,209.200 277.145 C 209.200 276.955,208.874 276.800,208.475 276.800 C 207.708 276.800,206.000 275.421,206.000 274.803 C 206.000 273.336,197.758 273.980,196.087 275.577 C 195.369 276.263,194.091 276.880,192.761 277.184 C 188.898 278.064,187.820 278.524,186.591 279.814 C 185.455 281.008,181.424 282.800,179.876 282.800 C 179.507 282.800,178.406 283.588,177.429 284.551 C 176.452 285.514,175.146 286.399,174.526 286.518 C 170.829 287.229,169.809 287.694,168.232 289.385 C 167.301 290.385,166.085 291.244,165.400 291.388 C 164.740 291.526,162.760 292.340,161.000 293.195 C 159.240 294.051,157.350 294.863,156.800 295.001 C 156.250 295.138,155.440 295.405,155.000 295.594 C 154.560 295.783,153.710 296.044,153.112 296.174 C 152.513 296.303,151.599 296.867,151.080 297.427 C 147.722 301.048,136.548 301.184,133.241 297.644 C 132.652 297.014,131.367 296.131,130.385 295.684 C 125.896 293.637,125.901 293.659,125.962 277.600 C 126.010 265.088,126.320 259.875,127.227 256.354 C 127.432 255.558,127.600 254.460,127.600 253.913 C 127.600 253.337,128.147 252.347,128.900 251.560 L 130.200 250.200 130.328 243.880 C 130.441 238.304,130.368 237.410,129.713 236.280 C 128.127 233.547,129.907 229.176,133.099 227.962 C 134.697 227.355,134.627 226.487,132.849 224.845 C 131.942 224.008,131.200 223.023,131.200 222.656 C 131.200 222.289,131.046 221.677,130.859 221.295 C 130.671 220.913,130.189 219.918,129.788 219.085 C 129.339 218.153,128.541 217.325,127.715 216.933 C 126.977 216.582,126.216 216.004,126.025 215.648 C 125.834 215.292,124.761 214.100,123.640 213.000 C 122.455 211.838,121.601 210.644,121.601 210.149 C 121.600 209.139,121.007 208.608,119.470 208.240 C 118.849 208.092,117.994 207.572,117.570 207.085 C 117.146 206.598,115.900 205.193,114.800 203.961 C 113.700 202.730,112.800 201.580,112.800 201.405 C 112.800 200.928,111.486 200.027,110.770 200.013 C 109.838 199.994,108.448 198.340,108.162 196.911 C 107.979 195.997,107.574 195.525,106.656 195.155 C 105.965 194.877,104.843 194.233,104.162 193.725 C 103.481 193.216,102.637 192.800,102.285 192.800 C 101.933 192.800,101.326 192.260,100.936 191.600 C 100.546 190.940,100.106 190.400,99.957 190.400 C 99.808 190.400,99.584 189.991,99.459 189.492 C 99.226 188.563,96.966 186.000,96.381 186.000 C 96.203 186.000,95.819 185.775,95.529 185.500 C 95.238 185.225,94.485 184.734,93.855 184.408 C 92.561 183.740,92.189 182.970,91.247 179.000 C 90.627 176.392,90.473 176.143,88.992 175.374 C 85.831 173.731,86.041 164.344,89.271 162.917 C 89.890 162.643,90.621 161.801,91.004 160.922 C 92.057 158.504,92.764 157.047,93.198 156.400 C 93.419 156.070,93.776 155.305,93.990 154.700 C 94.354 153.673,94.534 153.600,96.690 153.594 C 97.961 153.591,99.744 153.329,100.653 153.012 C 101.561 152.696,103.901 152.227,105.853 151.972 C 107.804 151.716,109.760 151.359,110.200 151.179 C 110.640 150.998,111.360 150.751,111.800 150.630 C 112.240 150.508,113.050 150.000,113.600 149.501 C 115.902 147.411,116.679 147.117,118.041 147.821 C 119.508 148.580,119.444 148.579,130.230 148.064 C 140.183 147.590,141.213 147.428,143.364 146.002 C 145.553 144.550,147.481 144.134,154.700 143.553 L 160.800 143.063 160.800 141.119 C 160.800 138.021,162.298 135.130,164.300 134.364 C 164.928 134.124,165.204 133.685,165.214 132.910 C 165.222 132.299,165.486 131.350,165.800 130.800 C 166.114 130.250,166.378 129.389,166.386 128.886 C 166.401 127.878,167.312 126.325,168.699 124.937 C 169.194 124.442,169.600 123.623,169.600 123.118 C 169.601 121.465,171.239 117.842,172.574 116.547 C 173.631 115.520,173.931 114.853,174.142 113.054 C 174.556 109.535,175.672 108.000,177.819 108.000 C 178.256 108.000,178.400 107.461,178.400 105.831 C 178.400 101.447,179.930 97.657,181.960 97.013 C 182.550 96.825,183.600 94.318,183.600 93.095 C 183.600 92.592,185.079 90.861,186.630 89.549 C 187.684 88.658,190.091 85.722,190.698 84.588 C 191.096 83.843,191.653 83.604,193.498 83.385 C 197.634 82.895,199.600 81.719,199.600 79.735 C 199.600 78.280,199.892 76.800,200.180 76.800 C 200.232 76.800,200.646 77.565,201.100 78.500 M236.500 112.957 C 236.465 113.831,236.218 115.074,235.950 115.720 L 235.464 116.894 234.550 115.147 C 233.389 112.927,233.372 111.749,234.487 110.591 L 235.374 109.670 235.968 110.519 C 236.296 110.986,236.535 112.083,236.500 112.957 M248.895 112.880 C 248.724 113.535,248.663 113.535,247.782 112.886 L 246.850 112.200 247.725 111.522 C 248.707 110.760,249.276 111.421,248.895 112.880 M323.981 168.577 C 324.354 169.026,324.340 169.578,323.916 171.077 C 323.220 173.541,322.634 173.530,322.476 171.051 C 322.293 168.175,322.866 167.233,323.981 168.577 M98.277 195.344 C 98.735 195.802,97.876 196.286,96.147 196.546 C 94.265 196.829,93.122 196.058,93.948 195.063 C 94.397 194.522,97.668 194.734,98.277 195.344 M288.748 252.137 C 289.080 252.537,289.033 253.217,288.567 254.787 C 287.872 257.127,287.625 257.075,286.459 254.346 L 285.668 252.492 286.534 252.073 C 287.727 251.496,288.228 251.510,288.748 252.137 M288.516 282.800 C 288.751 283.700,288.129 284.289,287.552 283.712 C 287.145 283.305,287.484 282.000,287.996 282.000 C 288.167 282.000,288.401 282.360,288.516 282.800 M148.000 312.302 C 148.000 312.607,149.358 313.262,151.200 313.845 C 152.121 314.136,152.074 314.181,150.600 314.408 C 149.720 314.543,148.640 314.769,148.200 314.911 C 146.742 315.379,145.805 314.269,146.615 313.033 C 147.261 312.048,148.000 311.658,148.000 312.302 M263.200 314.242 C 263.200 314.517,261.585 314.638,261.189 314.393 C 260.794 314.149,260.801 313.966,261.223 313.513 C 261.674 313.030,263.200 313.593,263.200 314.242 " stroke="none" fill="#dcdcdc" fill-rule="evenodd"></path><path id="path3" d="M56.400 1.148 C 56.400 2.181,56.210 2.346,54.500 2.794 C 47.784 4.554,46.808 4.900,45.717 5.912 C 44.535 7.007,41.535 8.400,40.358 8.400 C 39.546 8.400,36.400 10.300,36.400 10.790 C 36.400 11.037,34.890 11.849,31.743 13.295 C 31.272 13.512,30.373 14.372,29.745 15.206 C 29.117 16.041,28.039 17.028,27.349 17.400 C 26.659 17.771,25.909 18.482,25.682 18.979 C 25.456 19.476,24.496 20.286,23.549 20.780 C 21.961 21.607,20.002 23.426,20.000 24.073 C 20.000 24.223,19.630 24.464,19.177 24.607 C 18.725 24.751,18.077 25.528,17.738 26.334 C 16.161 30.081,15.494 31.140,14.562 31.374 C 13.607 31.613,10.001 35.785,10.000 36.651 C 10.000 36.899,9.740 37.318,9.422 37.582 C 8.782 38.113,7.933 40.615,7.229 44.041 C 6.884 45.724,6.531 46.409,5.811 46.794 C 4.750 47.362,4.241 48.416,3.588 51.400 C 2.430 56.693,2.382 56.800,1.148 56.800 C 0.002 56.800,0.000 56.804,0.000 59.400 C 0.000 61.981,0.008 62.000,1.120 62.000 C 2.422 62.000,2.781 61.235,3.769 56.351 C 4.663 51.933,5.230 50.423,6.531 49.000 C 7.528 47.909,8.400 45.743,8.400 44.355 C 8.400 42.672,9.801 39.270,10.907 38.270 C 11.436 37.791,12.297 36.770,12.821 36.000 C 13.344 35.230,14.355 34.060,15.066 33.400 C 15.778 32.740,16.930 31.120,17.628 29.800 C 18.325 28.480,19.369 26.931,19.948 26.357 C 20.526 25.784,21.490 24.756,22.089 24.073 C 22.688 23.391,23.753 22.534,24.457 22.171 C 25.161 21.807,27.335 19.954,29.289 18.054 C 31.625 15.783,33.858 14.052,35.809 13.000 C 37.441 12.120,39.097 11.125,39.488 10.790 C 39.880 10.454,40.830 9.941,41.600 9.649 C 44.037 8.727,44.513 8.519,48.600 6.605 C 53.958 4.096,53.887 4.123,56.400 3.583 C 59.984 2.812,60.400 2.566,60.400 1.209 C 60.400 0.025,60.359 0.000,58.400 0.000 C 56.465 0.000,56.400 0.037,56.400 1.148 M342.075 1.269 C 342.210 2.637,342.098 2.582,348.861 4.582 C 350.105 4.949,351.905 5.743,352.861 6.347 C 354.602 7.444,356.666 8.354,359.953 9.472 C 360.917 9.800,362.087 10.431,362.553 10.875 C 363.019 11.318,364.390 12.146,365.600 12.715 C 366.810 13.283,368.520 14.354,369.400 15.094 C 371.396 16.773,371.531 16.867,373.000 17.593 C 375.479 18.818,388.000 32.344,388.000 33.797 C 388.000 33.930,388.617 35.003,389.371 36.181 C 390.124 37.359,391.145 39.501,391.639 40.940 C 392.133 42.378,392.917 43.971,393.382 44.478 C 394.516 45.715,395.531 47.945,396.220 50.715 C 397.462 55.702,400.000 57.774,400.000 53.800 C 400.000 52.154,399.916 52.000,399.014 52.000 C 397.924 52.000,397.429 51.302,397.027 49.200 C 396.420 46.021,395.743 44.216,394.767 43.168 C 394.161 42.517,393.432 40.933,393.000 39.330 C 391.890 35.208,387.810 29.035,384.161 25.958 C 383.743 25.605,382.753 24.595,381.963 23.713 C 381.173 22.832,380.270 21.951,379.958 21.755 C 379.645 21.560,378.621 20.468,377.682 19.330 C 376.701 18.140,375.194 16.881,374.137 16.370 C 373.126 15.880,371.827 14.941,371.250 14.283 C 370.672 13.625,369.300 12.683,368.200 12.190 C 367.100 11.697,365.849 10.904,365.421 10.428 C 364.354 9.242,360.360 7.600,358.544 7.600 C 358.104 7.600,357.037 7.012,356.172 6.293 C 354.061 4.537,353.131 4.134,349.551 3.421 C 345.378 2.590,345.200 2.498,345.200 1.157 C 345.200 0.071,345.101 -0.000,343.575 -0.000 C 341.989 -0.000,341.952 0.031,342.075 1.269 M198.000 86.688 C 194.031 88.083,191.245 89.693,190.274 91.149 C 189.743 91.947,188.654 93.310,187.854 94.178 C 187.054 95.046,186.400 95.894,186.400 96.063 C 186.400 96.664,183.431 102.613,182.784 103.309 C 182.421 103.698,181.545 105.698,180.837 107.753 C 180.128 109.808,179.110 112.135,178.574 112.923 C 178.039 113.712,177.600 114.462,177.600 114.590 C 177.600 115.204,174.756 120.704,174.047 121.462 C 173.158 122.412,171.977 124.899,171.202 127.458 C 170.926 128.370,170.292 129.556,169.793 130.094 C 168.632 131.346,167.884 132.842,167.019 135.644 C 166.638 136.879,165.937 138.327,165.463 138.864 C 164.332 140.143,163.600 141.446,163.600 142.181 C 163.600 143.051,160.903 145.600,159.982 145.600 C 159.547 145.600,158.428 145.943,157.496 146.363 C 156.563 146.783,155.350 147.222,154.800 147.339 C 154.250 147.457,152.360 147.917,150.600 148.363 C 148.840 148.808,146.700 149.179,145.845 149.186 C 144.990 149.194,142.650 149.385,140.645 149.612 C 138.640 149.838,135.380 150.203,133.400 150.424 C 128.778 150.938,124.800 151.673,124.800 152.013 C 124.800 152.868,121.499 153.703,119.107 153.453 C 117.525 153.287,115.345 153.407,113.200 153.778 C 111.330 154.101,108.536 154.575,106.991 154.830 C 105.446 155.085,103.619 155.588,102.931 155.947 C 101.196 156.853,99.042 157.893,97.487 158.577 C 94.050 160.089,91.864 164.605,91.861 170.200 C 91.859 175.217,95.379 183.200,97.593 183.200 C 97.817 183.200,98.000 183.380,98.000 183.600 C 98.000 183.820,98.251 184.000,98.558 184.000 C 98.865 184.000,99.540 184.480,100.058 185.066 C 102.169 187.455,105.886 190.960,107.200 191.800 C 109.055 192.986,119.600 203.286,119.600 203.911 C 119.600 204.180,119.755 204.400,119.944 204.400 C 120.423 204.400,123.999 207.772,124.004 208.228 C 124.006 208.433,124.469 208.960,125.033 209.400 C 129.462 212.860,135.109 219.414,135.979 222.106 C 136.566 223.923,136.570 230.556,135.985 233.600 C 135.089 238.267,134.683 239.821,134.206 240.400 C 133.262 241.548,132.041 248.114,132.011 252.200 C 131.980 256.395,130.651 264.776,129.726 266.609 C 129.062 267.926,128.374 272.705,128.058 278.200 C 127.776 283.091,127.860 284.066,128.873 287.625 C 129.504 289.842,132.545 293.260,134.571 294.028 C 135.247 294.284,136.426 294.771,137.192 295.109 C 141.174 296.870,145.833 296.151,152.508 292.747 C 156.589 290.666,156.953 290.504,159.600 289.605 C 161.201 289.061,163.305 287.995,163.600 287.578 C 163.864 287.206,170.666 284.000,171.192 284.000 C 171.416 284.000,171.600 283.849,171.600 283.665 C 171.600 283.373,173.745 282.231,178.800 279.833 C 179.570 279.468,181.460 278.363,183.000 277.377 C 185.774 275.602,188.712 274.103,191.800 272.886 C 192.680 272.539,193.490 272.132,193.600 271.981 C 196.243 268.363,206.156 269.033,211.400 273.185 C 213.335 274.716,214.446 275.339,218.518 277.173 C 219.573 277.648,220.752 278.352,221.137 278.737 C 221.522 279.122,223.093 279.834,224.628 280.318 C 226.792 281.001,227.779 281.581,229.022 282.899 C 230.420 284.383,230.966 284.664,233.299 285.100 C 235.722 285.552,238.689 286.810,239.200 287.603 C 239.446 287.983,241.754 289.154,245.200 290.644 C 246.630 291.262,247.890 291.878,248.000 292.012 C 248.489 292.607,252.118 294.071,254.938 294.809 C 256.633 295.253,258.831 295.892,259.823 296.228 L 261.626 296.841 265.113 295.122 C 270.266 292.582,271.660 290.993,273.471 285.600 C 274.243 283.298,274.237 283.030,273.231 275.200 C 272.991 273.330,272.607 269.640,272.378 267.000 C 272.149 264.360,271.797 261.030,271.595 259.600 C 271.394 258.170,271.107 255.965,270.959 254.700 C 270.810 253.435,270.551 252.400,270.384 252.400 C 269.382 252.400,268.901 249.281,268.038 237.200 C 267.633 231.524,266.928 228.093,265.947 227.020 C 265.509 226.540,265.488 221.713,265.923 221.533 C 266.299 221.378,268.369 218.306,269.180 216.700 C 269.485 216.095,269.975 215.600,270.268 215.600 C 270.560 215.600,270.800 215.420,270.800 215.200 C 270.800 214.980,271.035 214.800,271.322 214.800 C 271.761 214.800,279.811 207.047,283.236 203.326 C 283.806 202.707,285.064 201.570,286.031 200.800 C 287.949 199.274,289.181 198.062,297.030 189.983 C 299.906 187.022,303.667 183.340,305.387 181.801 C 311.210 176.587,312.197 170.808,308.682 162.500 C 308.007 160.905,307.218 159.600,306.928 159.600 C 306.637 159.600,306.400 159.451,306.400 159.268 C 306.400 159.086,305.455 158.501,304.300 157.969 C 303.145 157.437,301.618 156.615,300.906 156.143 C 299.353 155.112,295.582 154.400,291.675 154.400 C 287.629 154.400,280.051 153.200,275.200 151.792 C 272.313 150.954,266.181 150.137,258.888 149.617 C 252.187 149.140,249.612 148.691,246.200 147.406 C 244.880 146.909,243.080 146.277,242.200 146.003 C 239.720 145.229,238.265 143.923,237.686 141.950 C 236.926 139.365,235.546 136.000,235.245 136.000 C 234.883 136.000,233.745 133.682,231.862 129.108 C 231.524 128.288,230.787 127.120,230.224 126.512 C 229.661 125.905,229.200 125.186,229.200 124.915 C 229.200 124.047,227.355 120.268,225.851 118.054 C 225.048 116.874,224.288 115.434,224.161 114.854 C 223.612 112.356,222.689 109.967,221.875 108.938 C 221.394 108.329,220.353 106.564,219.561 105.016 C 218.770 103.467,217.742 101.480,217.278 100.600 C 216.814 99.720,215.789 97.607,215.001 95.906 C 213.594 92.865,209.649 88.800,208.106 88.800 C 207.828 88.800,207.600 88.640,207.600 88.443 C 207.600 88.247,207.163 87.977,206.628 87.843 C 206.093 87.709,205.398 87.341,205.083 87.025 C 204.195 86.138,200.116 85.943,198.000 86.688 M206.284 89.818 C 207.675 90.730,208.132 91.103,209.808 92.700 C 210.559 93.415,211.359 94.000,211.587 94.000 C 211.814 94.000,212.000 94.146,212.000 94.325 C 212.000 94.503,212.316 94.998,212.702 95.425 C 213.088 95.851,213.823 97.460,214.335 99.000 C 214.847 100.540,215.862 102.714,216.591 103.831 C 217.320 104.948,218.377 106.770,218.939 107.879 C 219.501 108.988,220.477 110.330,221.107 110.860 C 221.992 111.605,222.370 112.415,222.764 114.413 C 223.481 118.051,223.919 119.046,225.367 120.317 C 226.513 121.323,228.400 125.799,228.400 127.511 C 228.400 127.780,228.580 128.000,228.800 128.000 C 229.020 128.000,229.200 128.240,229.200 128.532 C 229.200 128.825,229.609 129.284,230.110 129.552 C 230.769 129.905,231.291 130.930,232.010 133.286 C 232.665 135.435,233.416 136.979,234.230 137.849 C 234.906 138.572,235.684 139.937,235.958 140.882 C 236.980 144.405,238.086 146.079,239.846 146.762 C 240.751 147.113,241.741 147.609,242.046 147.864 C 243.815 149.344,253.286 150.805,261.094 150.801 C 263.611 150.800,266.229 151.278,268.800 152.208 C 273.670 153.969,277.697 154.566,290.144 155.369 C 296.637 155.788,297.743 155.955,298.084 156.565 C 298.303 156.955,300.022 157.982,301.905 158.848 C 305.322 160.419,306.363 161.249,306.387 162.420 C 306.394 162.761,306.624 163.264,306.897 163.537 C 309.304 165.944,308.016 179.600,305.382 179.600 C 305.119 179.600,304.205 180.328,303.352 181.217 C 302.498 182.106,301.218 183.199,300.508 183.645 C 299.797 184.091,298.717 185.191,298.108 186.091 C 297.498 186.990,296.650 187.922,296.223 188.163 C 294.827 188.949,290.151 193.870,289.649 195.081 C 289.340 195.828,288.466 196.635,287.280 197.269 C 286.246 197.822,285.233 198.638,285.028 199.083 C 284.824 199.528,283.924 200.336,283.028 200.879 C 282.121 201.429,281.046 202.542,280.600 203.394 C 280.115 204.320,279.196 205.236,278.267 205.718 C 277.423 206.155,276.343 207.117,275.867 207.855 C 275.390 208.593,274.713 209.290,274.363 209.405 C 273.567 209.666,272.035 211.276,271.433 212.485 C 271.182 212.988,270.476 213.640,269.864 213.934 C 269.113 214.294,268.352 215.302,267.525 217.034 C 266.851 218.445,266.133 219.600,265.930 219.600 C 263.351 219.600,262.656 226.437,264.891 229.813 C 266.077 231.602,266.208 232.125,266.488 236.181 C 267.643 252.926,267.901 254.848,269.568 259.100 C 269.849 259.815,270.223 260.400,270.401 260.400 C 270.842 260.400,271.122 263.263,271.562 272.270 C 271.768 276.489,271.984 280.727,272.043 281.687 C 272.102 282.647,272.050 283.605,271.927 283.816 C 271.804 284.027,271.467 285.145,271.176 286.300 C 270.886 287.455,270.485 288.400,270.285 288.400 C 270.085 288.400,269.128 289.239,268.160 290.264 C 264.419 294.224,255.384 294.945,251.400 291.601 C 250.433 290.789,247.026 289.200,246.253 289.200 C 245.183 289.200,242.644 287.918,241.627 286.864 C 240.018 285.197,237.431 284.240,233.338 283.797 C 230.923 283.535,230.871 283.504,230.620 282.166 C 230.345 280.698,228.843 279.600,227.109 279.600 C 226.249 279.600,224.490 278.663,223.985 277.936 C 223.682 277.501,218.536 275.200,217.865 275.200 C 217.561 275.200,216.522 274.572,215.556 273.804 C 214.590 273.036,213.575 272.406,213.300 272.404 C 213.025 272.402,212.800 272.259,212.800 272.086 C 212.800 271.914,212.215 271.433,211.500 271.018 C 210.785 270.602,210.056 270.023,209.880 269.731 C 208.970 268.220,207.127 267.806,201.300 267.803 L 195.600 267.800 194.080 269.463 C 193.029 270.613,192.011 271.269,190.780 271.590 C 189.801 271.845,188.316 272.231,187.479 272.448 C 186.642 272.665,185.601 273.199,185.164 273.636 C 184.108 274.692,181.939 275.997,181.237 275.999 C 180.927 275.999,179.732 276.727,178.581 277.615 C 177.429 278.503,175.440 279.598,174.161 280.048 C 171.274 281.062,170.049 281.697,168.918 282.765 C 168.433 283.223,167.083 283.972,165.918 284.430 C 162.477 285.782,161.039 286.516,160.369 287.261 C 159.754 287.946,158.214 288.547,154.238 289.654 C 153.160 289.954,151.784 290.650,151.181 291.200 C 147.979 294.122,140.363 295.050,136.399 293.000 C 135.761 292.670,134.994 292.400,134.694 292.400 C 134.394 292.400,133.854 291.782,133.494 291.027 C 132.806 289.586,132.026 288.518,130.454 286.865 C 128.709 285.032,128.472 274.907,130.113 272.380 C 131.761 269.844,132.664 264.724,133.001 256.000 C 133.412 245.376,133.553 244.452,134.990 242.928 C 138.687 239.009,138.355 219.796,134.531 216.339 C 134.129 215.975,133.260 214.998,132.600 214.166 C 130.765 211.855,128.362 209.504,126.703 208.398 C 125.879 207.849,125.204 207.281,125.203 207.136 C 125.200 206.855,119.584 200.783,117.137 198.415 C 114.816 196.169,108.684 190.495,107.734 189.713 C 107.257 189.321,106.511 188.703,106.076 188.341 C 105.641 187.978,104.912 187.563,104.455 187.418 C 103.999 187.273,103.230 186.450,102.746 185.590 C 102.206 184.628,101.287 183.752,100.359 183.313 C 99.530 182.921,98.428 181.970,97.911 181.200 C 97.393 180.430,96.420 179.440,95.747 179.000 C 92.550 176.909,92.562 165.431,95.765 162.430 C 96.334 161.897,96.800 161.261,96.800 161.017 C 96.800 160.455,98.630 159.392,100.200 159.040 C 101.939 158.651,105.700 157.154,106.400 156.574 C 106.730 156.300,108.440 155.867,110.200 155.612 C 111.960 155.357,114.151 155.008,115.069 154.837 C 115.986 154.665,117.760 154.664,119.010 154.834 C 122.881 155.359,130.157 153.911,132.400 152.168 C 133.419 151.376,147.596 149.971,154.338 149.994 C 156.151 150.000,158.400 148.806,158.400 147.837 C 158.400 147.279,160.042 146.405,161.119 146.391 C 162.265 146.376,163.608 145.052,164.169 143.385 C 164.462 142.513,165.084 141.622,165.552 141.405 C 166.376 141.021,168.000 138.151,168.000 137.077 C 168.000 135.807,169.277 132.400,169.754 132.400 C 170.924 132.400,171.637 130.984,172.975 126.000 C 173.387 124.465,173.833 123.679,174.450 123.400 C 174.937 123.180,175.482 122.730,175.662 122.400 C 176.266 121.292,178.000 117.254,178.000 116.955 C 178.000 116.792,178.518 116.195,179.152 115.629 C 180.256 114.643,181.154 112.313,181.988 108.272 C 182.161 107.431,182.681 106.479,183.143 106.155 C 184.064 105.510,186.400 101.030,186.400 99.909 C 186.400 99.522,186.956 98.711,187.635 98.105 C 188.315 97.500,189.132 96.380,189.451 95.617 C 190.013 94.272,192.540 91.600,193.250 91.600 C 193.443 91.600,193.600 91.407,193.600 91.171 C 193.600 90.359,194.731 89.615,196.663 89.158 C 197.728 88.906,198.944 88.576,199.365 88.425 C 200.434 88.041,204.964 88.953,206.284 89.818 M0.000 343.000 L 0.000 345.600 1.169 345.600 C 2.592 345.600,2.959 346.534,3.561 351.690 C 3.993 355.387,4.594 356.741,6.183 357.591 C 6.771 357.906,7.259 358.611,7.406 359.357 C 7.870 361.717,9.045 364.625,9.901 365.530 C 10.177 365.821,10.941 366.843,11.600 367.799 C 12.258 368.756,13.400 370.047,14.137 370.669 C 14.875 371.291,16.076 372.934,16.806 374.320 C 17.536 375.706,18.688 377.232,19.366 377.711 C 21.017 378.877,22.182 380.055,22.498 380.879 C 22.641 381.251,24.229 382.780,26.027 384.277 C 27.825 385.775,30.369 387.937,31.680 389.083 C 32.990 390.229,34.364 391.253,34.731 391.360 C 35.099 391.467,36.415 391.842,37.656 392.193 C 38.897 392.544,40.427 393.288,41.056 393.847 C 43.246 395.792,45.291 396.861,47.847 397.396 C 49.373 397.715,50.789 398.290,51.330 398.811 C 53.759 401.149,42.100 400.967,197.800 401.100 C 329.268 401.212,340.461 401.170,343.600 400.556 C 346.857 399.919,350.400 398.609,350.400 398.043 C 350.400 397.797,351.121 397.569,355.800 396.339 C 358.145 395.722,360.809 394.442,361.049 393.818 C 361.291 393.187,362.538 392.666,365.532 391.946 C 367.228 391.537,368.101 390.999,369.797 389.316 C 370.970 388.152,372.184 387.200,372.494 387.200 C 373.224 387.200,379.192 381.485,379.224 380.756 C 379.238 380.450,379.981 379.660,380.876 379.000 C 381.771 378.340,382.941 376.990,383.477 376.000 C 384.013 375.010,384.852 373.840,385.342 373.400 C 385.832 372.960,386.676 371.926,387.217 371.103 C 387.758 370.279,388.290 369.604,388.400 369.602 C 389.441 369.585,391.554 366.376,392.845 362.848 C 393.117 362.105,393.764 361.073,394.281 360.555 C 395.424 359.413,396.800 356.319,396.800 354.893 C 396.800 352.383,398.059 349.200,399.053 349.200 C 399.869 349.200,400.000 349.006,400.000 347.800 C 400.000 346.591,399.870 346.400,399.046 346.400 C 397.753 346.400,397.056 347.638,396.455 351.000 C 396.179 352.540,395.873 354.195,395.775 354.678 C 395.676 355.161,394.908 356.351,394.067 357.323 C 393.226 358.294,392.114 360.149,391.595 361.445 C 390.307 364.663,389.330 366.141,386.375 369.338 C 384.984 370.844,383.600 372.554,383.301 373.138 C 382.587 374.531,380.398 377.305,379.657 377.755 C 379.336 377.951,378.427 378.829,377.637 379.707 C 375.348 382.248,374.666 382.913,372.819 384.400 C 369.469 387.097,368.196 388.205,367.720 388.839 C 367.456 389.190,366.286 389.782,365.120 390.155 C 363.954 390.527,361.920 391.461,360.600 392.230 C 357.282 394.162,354.850 395.282,353.200 395.636 C 351.555 395.990,348.970 396.921,346.467 398.061 C 341.955 400.116,350.588 400.000,202.104 400.000 C 50.910 400.000,56.148 400.078,52.600 397.762 C 51.500 397.044,49.790 396.257,48.800 396.012 C 46.510 395.445,45.411 394.909,43.308 393.329 C 42.377 392.631,41.207 391.943,40.708 391.802 C 39.861 391.562,39.353 391.353,36.200 389.950 C 35.540 389.656,34.010 388.449,32.800 387.267 C 31.590 386.085,29.880 384.618,29.000 384.006 C 26.276 382.115,18.265 373.766,17.211 371.720 C 16.666 370.664,15.825 369.440,15.341 369.000 C 14.857 368.560,13.676 367.120,12.716 365.800 C 11.035 363.489,10.352 362.242,9.091 359.177 C 8.769 358.394,7.671 356.908,6.652 355.874 C 4.950 354.147,4.800 353.835,4.800 352.008 C 4.800 350.915,4.431 348.531,3.980 346.710 C 2.325 340.026,2.491 340.400,1.184 340.400 L 0.000 340.400 0.000 343.000 " stroke="none" fill="#f4f4f4" fill-rule="evenodd"></path><path id="path4" d="M64.400 1.151 C 64.400 3.000,60.840 4.800,57.181 4.800 C 55.358 4.800,51.200 6.432,51.200 7.148 C 51.200 7.559,47.383 9.200,46.427 9.200 C 46.060 9.200,45.589 9.343,45.380 9.518 C 45.171 9.693,44.320 10.067,43.488 10.349 C 42.656 10.630,41.547 11.258,41.022 11.744 C 40.498 12.230,39.558 12.869,38.934 13.163 C 35.049 14.996,32.930 16.235,32.291 17.048 C 30.730 19.032,27.705 21.798,25.677 23.096 C 24.510 23.843,23.441 24.757,23.304 25.127 C 23.036 25.846,20.431 28.400,19.965 28.400 C 19.812 28.400,19.399 29.075,19.048 29.900 C 18.023 32.308,16.390 34.917,15.189 36.068 C 14.576 36.655,13.968 37.471,13.838 37.881 C 13.707 38.291,13.016 38.970,12.301 39.388 C 10.427 40.485,10.134 41.032,9.621 44.389 C 9.149 47.472,7.830 50.737,6.914 51.089 C 6.631 51.197,6.400 51.616,6.400 52.019 C 6.400 52.423,6.246 52.848,6.057 52.965 C 5.869 53.081,5.509 54.217,5.259 55.488 C 3.588 63.968,2.962 66.852,2.607 67.700 C 2.424 68.138,1.881 68.400,1.157 68.400 L 0.000 68.400 0.000 71.800 L 0.000 75.200 1.539 75.200 C 3.658 75.200,4.850 74.088,5.065 71.912 C 5.158 70.970,5.407 67.590,5.620 64.400 C 6.133 56.684,6.391 54.803,6.940 54.787 C 7.908 54.759,9.059 53.329,9.506 51.600 C 10.245 48.744,10.804 45.550,10.906 43.600 L 11.000 41.800 12.867 41.585 C 14.779 41.365,15.714 40.622,16.876 38.400 C 17.163 37.850,17.507 37.310,17.639 37.200 C 18.175 36.755,18.800 35.196,18.800 34.306 C 18.800 32.700,19.712 31.207,20.695 31.203 C 21.289 31.201,21.914 30.696,22.555 29.700 C 23.085 28.875,24.258 27.420,25.160 26.466 C 26.062 25.513,26.800 24.589,26.800 24.413 C 26.800 24.237,27.773 23.633,28.963 23.069 C 30.706 22.244,31.179 21.808,31.394 20.827 C 31.684 19.509,33.287 18.000,34.399 18.000 C 35.108 18.000,37.200 16.166,37.200 15.545 C 37.200 15.355,37.709 15.200,38.332 15.200 C 40.487 15.200,44.144 13.427,44.800 12.064 C 45.227 11.178,45.689 10.810,46.400 10.791 C 50.150 10.693,54.000 8.970,54.000 7.389 C 54.000 6.626,54.386 6.531,59.418 6.057 C 66.819 5.359,70.750 3.645,70.785 1.100 L 70.800 0.000 67.600 0.000 L 64.400 0.000 64.400 1.151 M332.800 1.745 C 332.800 3.471,334.147 5.527,335.355 5.643 C 335.600 5.666,337.690 5.727,340.000 5.777 C 345.711 5.901,347.089 6.225,347.808 7.615 C 348.457 8.871,350.393 9.991,351.961 10.018 C 354.692 10.064,356.792 11.027,358.725 13.119 C 359.783 14.264,360.952 15.200,361.324 15.200 C 361.696 15.200,362.000 15.341,362.000 15.514 C 362.000 16.108,364.325 17.200,365.590 17.200 C 366.342 17.200,367.563 17.687,368.600 18.400 C 369.559 19.060,370.440 19.600,370.558 19.600 C 370.961 19.600,375.648 24.600,376.444 25.879 C 376.881 26.582,377.942 27.739,378.800 28.449 C 379.658 29.159,380.571 30.248,380.829 30.870 C 381.086 31.491,381.456 32.000,381.650 32.000 C 381.844 32.000,382.225 32.830,382.496 33.844 C 382.767 34.858,383.373 36.102,383.842 36.608 C 384.311 37.114,384.816 38.010,384.964 38.598 C 385.316 40.001,387.071 41.600,388.258 41.600 C 389.184 41.600,389.200 41.666,389.200 45.600 L 389.200 49.600 391.369 49.600 C 393.520 49.600,393.542 49.612,394.037 51.100 C 395.010 54.021,394.670 59.771,393.429 61.398 C 392.137 63.092,392.134 64.933,393.423 65.118 C 393.996 65.200,394.405 64.895,394.769 64.118 C 395.057 63.503,395.425 62.730,395.588 62.400 C 395.779 62.010,396.603 61.758,397.941 61.679 L 400.000 61.558 400.000 59.779 C 400.000 58.086,399.944 58.000,398.849 58.000 C 397.135 58.000,397.122 57.976,394.762 50.000 C 394.153 47.944,393.525 46.800,393.006 46.800 C 392.416 46.800,390.800 43.937,390.800 42.891 C 390.800 41.713,389.777 39.945,388.400 38.742 C 387.733 38.160,386.654 36.506,386.001 35.066 C 385.348 33.626,384.559 32.302,384.248 32.124 C 383.937 31.946,383.263 31.080,382.750 30.200 C 381.752 28.489,380.243 26.800,379.713 26.800 C 379.535 26.800,379.037 26.305,378.606 25.700 C 377.466 24.099,371.680 18.400,371.195 18.400 C 370.968 18.400,370.013 17.691,369.074 16.825 C 368.134 15.959,366.337 14.866,365.081 14.396 C 363.824 13.926,361.863 12.744,360.722 11.771 C 359.581 10.797,358.367 9.997,358.024 9.994 C 357.265 9.987,354.521 9.054,354.141 8.674 C 353.990 8.523,353.561 8.400,353.188 8.400 C 352.815 8.400,352.080 7.983,351.555 7.474 C 350.340 6.295,348.864 5.761,343.000 4.379 C 338.179 3.243,337.200 2.678,337.200 1.029 C 337.200 0.048,337.096 0.000,335.000 0.000 L 332.800 0.000 332.800 1.745 M354.800 18.768 C 351.734 19.213,351.249 19.718,352.904 20.740 C 354.905 21.977,357.951 21.930,359.159 20.643 L 360.058 19.686 359.140 19.043 C 358.178 18.369,357.739 18.342,354.800 18.768 M375.484 49.249 C 375.256 50.952,375.452 52.000,376.000 52.000 C 376.565 52.000,376.804 50.767,376.549 49.168 C 376.223 47.135,375.763 47.170,375.484 49.249 M10.928 61.600 C 10.928 63.030,11.001 63.615,11.089 62.900 C 11.178 62.185,11.178 61.015,11.089 60.300 C 11.001 59.585,10.928 60.170,10.928 61.600 M388.414 71.574 C 387.872 72.586,387.891 72.898,388.547 73.796 C 389.266 74.778,390.207 73.281,389.826 71.763 C 389.535 70.600,388.975 70.525,388.414 71.574 M199.843 77.433 C 199.709 77.781,199.600 78.817,199.600 79.735 C 199.600 81.719,197.634 82.895,193.498 83.385 C 191.653 83.604,191.096 83.843,190.698 84.588 C 190.091 85.722,187.684 88.658,186.630 89.549 C 185.079 90.861,183.600 92.592,183.600 93.095 C 183.600 94.318,182.550 96.825,181.960 97.013 C 179.930 97.657,178.400 101.447,178.400 105.831 C 178.400 107.461,178.256 108.000,177.819 108.000 C 175.672 108.000,174.556 109.535,174.142 113.054 C 173.931 114.853,173.631 115.520,172.574 116.547 C 171.239 117.842,169.601 121.465,169.600 123.118 C 169.600 123.623,169.194 124.442,168.699 124.937 C 167.312 126.325,166.401 127.878,166.386 128.886 C 166.378 129.389,166.114 130.250,165.800 130.800 C 165.486 131.350,165.222 132.299,165.214 132.910 C 165.204 133.685,164.928 134.124,164.300 134.364 C 162.298 135.130,160.800 138.021,160.800 141.119 L 160.800 143.063 154.700 143.553 C 147.481 144.134,145.553 144.550,143.364 146.002 C 141.213 147.428,140.183 147.590,130.230 148.064 C 119.444 148.579,119.508 148.580,118.041 147.821 C 116.679 147.117,115.902 147.411,113.600 149.501 C 113.050 150.000,112.240 150.508,111.800 150.630 C 111.360 150.751,110.640 150.998,110.200 151.179 C 109.760 151.359,107.804 151.716,105.853 151.972 C 103.901 152.227,101.561 152.696,100.653 153.012 C 99.744 153.329,97.961 153.591,96.690 153.594 C 94.534 153.600,94.354 153.673,93.990 154.700 C 93.776 155.305,93.419 156.070,93.198 156.400 C 92.764 157.047,92.057 158.504,91.004 160.922 C 90.621 161.801,89.890 162.643,89.271 162.917 C 86.041 164.344,85.831 173.731,88.992 175.374 C 90.473 176.143,90.627 176.392,91.247 179.000 C 92.189 182.970,92.561 183.740,93.855 184.408 C 94.485 184.734,95.238 185.225,95.529 185.500 C 95.819 185.775,96.203 186.000,96.381 186.000 C 96.966 186.000,99.226 188.563,99.459 189.492 C 99.584 189.991,99.808 190.400,99.957 190.400 C 100.106 190.400,100.546 190.940,100.936 191.600 C 101.326 192.260,101.933 192.800,102.285 192.800 C 102.637 192.800,103.481 193.216,104.162 193.725 C 104.843 194.233,105.965 194.877,106.656 195.155 C 107.574 195.525,107.979 195.997,108.162 196.911 C 108.448 198.340,109.838 199.994,110.770 200.013 C 111.486 200.027,112.800 200.928,112.800 201.405 C 112.800 201.580,113.700 202.730,114.800 203.961 C 115.900 205.193,117.146 206.598,117.570 207.085 C 117.994 207.572,118.849 208.092,119.470 208.240 C 121.007 208.608,121.600 209.139,121.601 210.149 C 121.601 210.644,122.455 211.838,123.640 213.000 C 124.761 214.100,125.834 215.292,126.025 215.648 C 126.216 216.004,126.977 216.582,127.715 216.933 C 128.541 217.325,129.339 218.153,129.788 219.085 C 130.189 219.918,130.671 220.913,130.859 221.295 C 131.046 221.677,131.200 222.289,131.200 222.656 C 131.200 223.023,131.942 224.008,132.849 224.845 C 134.627 226.487,134.697 227.355,133.099 227.962 C 129.907 229.176,128.127 233.547,129.713 236.280 C 130.368 237.410,130.441 238.304,130.328 243.880 L 130.200 250.200 128.900 251.560 C 128.147 252.347,127.600 253.337,127.600 253.913 C 127.600 254.460,127.432 255.558,127.227 256.354 C 126.320 259.875,126.010 265.088,125.962 277.600 C 125.901 293.659,125.896 293.637,130.385 295.684 C 131.367 296.131,132.652 297.014,133.241 297.644 C 136.548 301.184,147.722 301.048,151.080 297.427 C 151.599 296.867,152.513 296.303,153.112 296.174 C 153.710 296.044,154.560 295.783,155.000 295.594 C 155.440 295.405,156.250 295.138,156.800 295.001 C 157.350 294.863,159.240 294.051,161.000 293.195 C 162.760 292.340,164.740 291.526,165.400 291.388 C 166.085 291.244,167.301 290.385,168.232 289.385 C 169.809 287.694,170.829 287.229,174.526 286.518 C 175.146 286.399,176.452 285.514,177.429 284.551 C 178.406 283.588,179.507 282.800,179.876 282.800 C 181.424 282.800,185.455 281.008,186.591 279.814 C 187.820 278.524,188.898 278.064,192.761 277.184 C 194.091 276.880,195.369 276.263,196.087 275.577 C 197.758 273.980,206.000 273.336,206.000 274.803 C 206.000 275.421,207.708 276.800,208.475 276.800 C 208.874 276.800,209.200 276.955,209.200 277.145 C 209.200 277.335,210.325 277.720,211.700 278.001 C 213.639 278.397,214.469 278.802,215.400 279.810 C 217.048 281.593,219.079 282.653,221.481 282.984 C 224.170 283.353,226.530 284.190,226.750 284.851 C 227.100 285.900,227.972 286.403,230.445 286.980 C 232.344 287.423,233.174 287.848,233.867 288.734 C 234.851 289.991,237.861 291.600,239.229 291.600 C 239.690 291.600,240.642 292.185,241.346 292.900 C 242.802 294.380,245.956 296.000,247.380 296.000 C 247.907 296.000,248.852 296.432,249.479 296.960 C 251.650 298.786,260.611 301.262,263.208 300.753 C 270.896 299.247,270.844 299.268,273.336 296.652 C 277.528 292.251,278.583 288.825,278.588 279.600 C 278.591 272.199,278.305 270.986,276.211 269.552 C 274.639 268.474,274.502 267.673,273.958 256.400 C 273.409 245.024,273.285 244.071,271.979 241.282 C 270.704 238.559,270.343 234.054,271.216 231.759 C 271.457 231.124,271.480 230.569,271.271 230.433 C 268.582 228.690,269.070 220.000,271.857 220.000 C 272.293 220.000,273.179 219.447,273.825 218.772 C 274.471 218.097,275.560 217.278,276.245 216.953 C 277.503 216.355,278.400 214.972,278.400 213.630 C 278.400 213.180,278.901 212.691,279.700 212.362 C 281.089 211.789,282.800 210.290,282.800 209.645 C 282.800 209.430,283.610 208.590,284.600 207.779 C 285.590 206.967,286.400 206.128,286.400 205.914 C 286.400 205.082,288.094 203.200,288.842 203.200 C 289.849 203.200,294.146 198.866,295.213 196.774 C 295.781 195.661,296.558 194.919,297.769 194.330 C 299.114 193.677,299.622 193.147,299.999 192.002 C 300.457 190.615,302.068 189.200,303.190 189.200 C 303.657 189.200,306.977 187.053,307.884 186.163 C 308.150 185.902,308.600 184.925,308.884 183.992 C 309.256 182.770,309.809 182.035,310.861 181.367 C 313.353 179.785,314.858 173.662,314.080 168.279 C 313.816 166.453,313.596 163.798,313.591 162.379 C 313.581 159.439,313.047 158.516,310.755 157.472 C 309.960 157.111,309.071 156.526,308.778 156.174 C 307.088 154.137,302.758 152.687,297.400 152.363 C 291.364 151.998,289.775 151.727,288.400 150.826 C 285.529 148.945,285.440 148.932,266.600 147.613 C 259.632 147.125,258.177 146.789,257.793 145.579 C 257.565 144.859,256.584 144.717,248.000 144.161 C 242.895 143.831,240.800 141.882,240.800 137.465 C 240.800 137.153,240.531 136.675,240.203 136.402 C 239.874 136.130,239.422 135.224,239.197 134.390 C 238.797 132.905,237.280 130.997,235.866 130.200 C 235.475 129.980,235.001 129.170,234.812 128.400 C 234.099 125.490,232.773 122.609,231.785 121.819 C 231.221 121.368,230.601 120.370,230.407 119.600 C 229.501 116.002,228.559 114.286,226.990 113.375 C 226.499 113.090,226.160 112.235,225.957 110.775 C 225.322 106.189,224.471 103.943,222.351 101.247 C 221.938 100.722,221.601 100.091,221.603 99.846 C 221.605 99.601,220.324 96.858,218.757 93.750 L 215.908 88.100 212.489 86.350 C 210.608 85.388,208.850 84.383,208.581 84.118 C 207.601 83.150,204.418 81.600,203.410 81.600 C 202.776 81.600,202.288 81.329,202.150 80.900 C 201.881 80.061,200.314 76.800,200.180 76.800 C 200.128 76.800,199.976 77.085,199.843 77.433 M203.118 84.016 C 204.534 84.342,207.589 85.954,208.400 86.802 C 208.510 86.917,209.423 87.425,210.429 87.932 C 213.784 89.621,215.375 91.566,217.194 96.200 C 217.713 97.520,218.446 99.050,218.824 99.600 C 219.202 100.150,220.361 102.310,221.399 104.400 C 222.437 106.490,223.717 109.054,224.243 110.098 C 224.769 111.142,225.200 112.346,225.200 112.774 C 225.200 113.203,225.380 113.664,225.600 113.800 C 225.820 113.936,226.005 114.352,226.011 114.724 C 226.017 115.096,226.550 116.098,227.196 116.951 C 227.841 117.804,228.660 119.377,229.015 120.446 C 229.371 121.516,229.827 122.493,230.031 122.619 C 230.234 122.744,230.400 123.111,230.400 123.433 C 230.400 123.756,231.030 124.935,231.800 126.055 C 232.570 127.174,233.200 128.261,233.200 128.470 C 233.200 129.242,235.253 133.157,236.444 134.654 C 237.847 136.420,238.665 138.212,239.242 140.787 C 239.846 143.483,241.880 144.783,246.500 145.428 C 248.151 145.658,249.759 146.117,251.400 146.827 C 253.333 147.662,257.338 148.400,259.943 148.400 C 264.939 148.400,276.515 149.725,279.800 150.673 C 285.146 152.216,287.841 152.725,293.000 153.166 C 299.963 153.760,302.822 154.564,305.200 156.593 C 305.530 156.875,306.199 157.227,306.686 157.375 C 311.844 158.946,314.433 174.009,310.378 178.859 C 306.264 183.781,304.582 185.457,302.574 186.635 C 301.679 187.160,300.239 188.578,299.374 189.786 C 298.508 190.994,297.620 191.992,297.400 192.002 C 297.180 192.013,296.280 192.867,295.400 193.899 C 293.645 195.959,290.186 199.409,285.341 203.932 C 283.613 205.545,281.750 207.475,281.200 208.221 C 280.650 208.967,280.060 209.583,279.889 209.589 C 279.475 209.604,276.000 213.093,276.000 213.495 C 276.000 213.668,275.520 214.168,274.934 214.605 C 274.348 215.042,273.673 215.580,273.434 215.800 C 273.195 216.020,272.497 216.460,271.883 216.777 C 268.937 218.298,266.861 224.501,268.176 227.855 C 268.532 228.762,268.949 231.961,269.187 235.600 C 269.968 247.525,270.041 248.044,271.263 250.309 C 271.888 251.469,272.399 252.999,272.398 253.709 C 272.396 254.419,272.580 256.800,272.806 259.000 C 273.031 261.200,273.481 265.645,273.805 268.878 C 274.144 272.258,274.723 275.658,275.168 276.878 C 276.875 281.567,276.955 283.139,275.622 285.890 C 274.964 287.249,274.300 288.865,274.146 289.481 C 273.650 291.475,271.108 295.200,270.242 295.200 C 270.135 295.200,268.326 296.010,266.222 297.000 C 261.383 299.276,260.808 299.274,255.691 296.955 C 254.531 296.430,253.361 296.001,253.091 296.002 C 252.122 296.006,246.283 293.453,245.390 292.635 C 244.889 292.176,243.337 291.365,241.940 290.833 C 239.402 289.867,236.400 288.130,236.400 287.627 C 236.400 287.309,234.584 286.666,231.692 285.960 C 229.529 285.431,228.789 284.932,227.405 283.070 C 226.897 282.386,226.233 282.000,225.565 282.000 C 223.543 282.000,220.250 280.678,219.000 279.365 C 218.560 278.902,216.714 277.935,214.897 277.216 C 213.081 276.496,210.796 275.299,209.821 274.554 C 208.846 273.809,207.803 273.200,207.504 273.200 C 207.205 273.200,206.734 272.975,206.458 272.700 C 206.113 272.356,204.625 272.216,201.678 272.250 C 197.219 272.302,196.868 272.398,192.600 274.732 C 191.500 275.333,189.790 276.078,188.800 276.387 C 187.810 276.696,186.522 277.276,185.938 277.675 C 185.354 278.074,184.688 278.400,184.458 278.400 C 184.228 278.400,183.886 278.675,183.697 279.012 C 183.509 279.348,181.655 280.354,179.578 281.247 C 177.500 282.141,175.522 283.120,175.182 283.424 C 174.842 283.727,173.312 284.533,171.782 285.214 C 166.783 287.438,166.400 287.634,166.400 287.963 C 166.400 288.412,161.849 290.800,160.992 290.800 C 160.610 290.800,158.655 291.586,156.648 292.547 C 154.642 293.507,152.360 294.579,151.579 294.928 C 150.797 295.277,148.907 296.131,147.379 296.826 C 144.563 298.107,138.639 298.623,138.023 297.642 C 137.802 297.291,135.964 296.301,133.142 295.014 C 128.409 292.855,127.172 290.201,126.894 281.605 C 126.624 273.284,127.453 266.496,129.455 260.632 C 130.023 258.969,130.400 256.935,130.400 255.538 C 130.400 254.258,130.572 252.444,130.783 251.506 C 130.993 250.568,131.443 247.460,131.784 244.600 C 132.712 236.796,132.977 235.399,133.761 234.203 C 135.785 231.114,135.608 223.752,133.448 221.184 C 132.906 220.540,132.044 219.175,131.533 218.151 C 131.021 217.127,130.152 216.009,129.601 215.667 C 129.051 215.325,127.768 214.225,126.751 213.222 C 125.734 212.220,124.550 211.086,124.120 210.703 C 123.690 210.319,123.082 209.509,122.769 208.903 C 122.019 207.450,121.535 206.960,120.532 206.642 C 120.075 206.497,118.797 205.348,117.691 204.089 C 115.736 201.862,113.153 199.237,110.906 197.195 C 110.298 196.642,109.368 195.607,108.840 194.895 C 108.312 194.183,107.699 193.600,107.477 193.600 C 106.425 193.600,100.403 188.369,100.401 187.453 C 100.400 187.010,97.931 184.820,97.400 184.790 C 96.026 184.712,93.120 181.011,92.196 178.160 C 91.846 177.082,91.401 175.840,91.206 175.400 C 91.012 174.960,90.668 173.970,90.442 173.200 C 90.215 172.430,89.862 171.243,89.657 170.562 C 89.152 168.884,91.143 163.014,93.529 159.144 C 94.466 157.626,102.417 153.600,104.481 153.600 C 106.472 153.600,112.350 152.657,114.419 152.006 C 116.245 151.431,117.040 151.380,118.903 151.717 C 121.032 152.103,121.264 152.064,122.776 151.063 C 124.502 149.921,125.497 149.771,138.000 148.770 C 144.488 148.250,147.797 147.615,150.281 146.413 C 151.205 145.966,152.602 145.600,153.386 145.600 C 155.011 145.600,159.886 144.328,161.052 143.600 C 161.506 143.316,162.030 142.275,162.309 141.103 C 162.571 139.998,163.284 138.444,163.893 137.651 C 165.259 135.870,165.908 134.666,166.616 132.600 C 166.917 131.720,167.982 129.564,168.982 127.810 C 169.982 126.055,170.800 124.305,170.800 123.922 C 170.800 123.088,171.982 120.904,173.842 118.299 C 174.589 117.254,175.200 116.127,175.200 115.795 C 175.200 114.869,176.818 111.636,177.556 111.088 C 178.465 110.412,179.810 107.204,180.556 103.931 C 180.690 103.343,181.243 102.334,181.786 101.690 C 182.328 101.046,183.265 99.367,183.868 97.959 C 185.302 94.612,185.747 93.906,188.596 90.459 C 190.894 87.679,191.806 87.035,195.600 85.511 C 196.370 85.202,197.630 84.657,198.400 84.300 C 200.056 83.532,200.822 83.486,203.118 84.016 M234.487 110.591 C 233.372 111.749,233.389 112.927,234.550 115.147 L 235.464 116.894 235.950 115.720 C 236.650 114.030,236.659 111.505,235.968 110.519 L 235.374 109.670 234.487 110.591 M247.725 111.522 L 246.850 112.200 247.782 112.886 C 248.663 113.535,248.724 113.535,248.895 112.880 C 249.276 111.421,248.707 110.760,247.725 111.522 M322.564 168.551 C 322.224 169.435,322.563 173.000,322.987 173.000 C 323.682 173.000,324.528 169.236,323.981 168.577 C 323.378 167.850,322.836 167.840,322.564 168.551 M93.948 195.063 C 93.122 196.058,94.265 196.829,96.147 196.546 C 99.146 196.095,99.172 195.251,96.201 194.800 C 94.900 194.603,94.268 194.677,93.948 195.063 M286.534 252.073 L 285.668 252.492 286.459 254.346 C 287.625 257.075,287.872 257.127,288.567 254.787 C 289.415 251.932,288.726 251.013,286.534 252.073 M287.430 282.667 C 287.137 283.429,287.734 284.212,288.328 283.845 C 288.769 283.572,288.486 282.000,287.996 282.000 C 287.825 282.000,287.570 282.300,287.430 282.667 M146.615 313.033 C 145.805 314.269,146.742 315.379,148.200 314.911 C 148.640 314.769,149.720 314.543,150.600 314.408 C 152.074 314.181,152.121 314.136,151.200 313.845 C 149.358 313.262,148.000 312.607,148.000 312.302 C 148.000 311.658,147.261 312.048,146.615 313.033 M261.223 313.513 C 260.561 314.222,261.282 314.808,262.444 314.504 C 263.362 314.264,263.360 314.315,262.478 313.560 C 261.854 313.025,261.685 313.019,261.223 313.513 M0.000 327.600 L 0.000 333.600 1.147 333.600 C 2.347 333.600,2.863 334.763,4.079 340.200 C 4.276 341.080,4.606 342.520,4.814 343.400 C 5.516 346.378,6.385 351.394,6.393 352.510 C 6.398 353.310,6.668 353.722,7.362 353.985 C 8.835 354.545,9.707 355.686,11.756 359.734 C 12.792 361.780,14.441 364.431,15.420 365.624 C 16.399 366.818,17.200 368.021,17.200 368.297 C 17.200 368.574,17.380 368.800,17.600 368.800 C 17.820 368.800,18.000 369.053,18.000 369.362 C 18.000 370.134,19.669 373.200,20.089 373.200 C 20.276 373.200,22.483 375.270,24.992 377.800 C 27.500 380.330,29.731 382.400,29.948 382.400 C 30.165 382.400,30.581 382.632,30.871 382.916 C 31.162 383.199,32.286 384.103,33.369 384.924 C 34.452 385.746,35.762 387.042,36.280 387.804 C 36.814 388.590,37.694 389.298,38.311 389.439 C 41.347 390.132,45.446 391.934,46.008 392.821 C 46.294 393.273,49.919 394.800,50.705 394.800 C 51.977 394.800,53.949 395.758,54.396 396.593 C 55.693 399.015,64.318 399.155,212.600 399.164 C 348.200 399.173,339.847 399.315,344.600 396.918 C 346.689 395.864,349.742 394.866,353.200 394.106 C 353.750 393.985,354.650 393.580,355.200 393.206 C 356.485 392.332,359.601 390.702,362.400 389.440 C 365.130 388.208,366.903 387.151,367.315 386.509 C 367.488 386.239,368.478 385.443,369.515 384.740 C 370.552 384.037,372.930 381.975,374.800 380.158 C 376.670 378.342,378.689 376.437,379.288 375.926 C 380.258 375.096,382.800 371.503,382.800 370.960 C 382.800 370.843,383.700 369.819,384.800 368.684 C 385.900 367.549,386.800 366.508,386.800 366.372 C 386.800 366.236,387.257 365.601,387.816 364.962 C 388.896 363.727,389.562 362.391,390.386 359.800 C 390.897 358.197,392.225 356.400,392.898 356.400 C 393.988 356.400,395.200 353.953,395.200 351.752 C 395.200 347.681,397.119 343.200,398.863 343.200 C 399.975 343.200,400.000 343.151,400.000 341.000 C 400.000 338.130,398.817 337.919,396.686 340.407 C 395.217 342.124,394.761 343.987,394.101 350.979 L 393.800 354.159 391.632 354.579 L 389.463 355.000 387.994 359.250 C 386.417 363.814,385.632 365.147,382.931 367.848 C 381.979 368.800,381.200 369.944,381.200 370.389 C 381.200 371.191,380.668 371.846,378.755 373.400 C 378.213 373.840,377.484 374.655,377.134 375.210 C 376.785 375.766,375.873 376.558,375.109 376.969 C 374.344 377.381,373.393 378.322,372.996 379.060 C 372.510 379.961,371.601 380.720,370.226 381.370 C 369.101 381.903,367.854 382.699,367.455 383.139 C 367.056 383.580,365.801 384.401,364.665 384.963 C 363.529 385.526,361.724 386.799,360.653 387.793 C 359.317 389.033,358.357 389.600,357.596 389.600 C 356.966 389.600,355.648 390.204,354.544 390.999 C 353.475 391.768,352.205 392.682,351.722 393.030 C 351.239 393.378,349.889 393.818,348.722 394.009 C 343.705 394.825,342.097 395.382,341.096 396.647 C 339.867 398.200,339.492 398.204,200.600 398.000 C 50.615 397.780,64.553 398.013,60.600 395.665 C 57.690 393.937,55.026 393.167,52.782 393.406 C 50.385 393.660,50.102 393.539,49.154 391.847 C 48.470 390.626,46.981 389.950,43.275 389.176 C 41.947 388.899,41.058 388.482,40.906 388.066 C 40.620 387.283,38.559 385.200,38.069 385.200 C 37.883 385.200,36.973 384.480,36.048 383.600 C 35.123 382.720,34.025 382.000,33.607 382.000 C 33.189 382.000,32.734 381.817,32.596 381.594 C 32.459 381.371,31.673 380.846,30.852 380.426 C 29.956 379.969,28.526 378.546,27.281 376.871 C 26.138 375.334,24.459 373.475,23.549 372.739 C 22.639 372.002,21.411 371.006,20.820 370.525 C 20.228 370.044,19.500 368.874,19.201 367.925 C 18.301 365.067,17.605 363.960,16.455 363.559 C 15.224 363.130,12.800 358.757,12.800 356.966 C 12.800 355.782,12.118 354.339,11.342 353.880 C 11.044 353.704,10.800 353.297,10.800 352.976 C 10.800 351.955,9.070 348.649,7.813 347.266 C 6.538 345.864,6.327 345.054,5.612 338.800 C 4.914 332.700,4.495 330.230,3.848 328.400 C 3.498 327.410,3.203 325.790,3.193 324.800 C 3.171 322.636,2.479 321.600,1.056 321.600 L 0.000 321.600 0.000 327.600 " stroke="none" fill="#e4e4e4" fill-rule="evenodd"></path></g></svg>