<svg id="svg" version="1.1" xmlns="http://www.w3.org/2000/svg" xmlns:xlink="http://www.w3.org/1999/xlink" viewBox="0, 0, 400,424"><g id="svgg"><path id="path0" d="M0.000 29.400 C 0.000 57.520,0.032 58.800,0.725 58.800 C 1.789 58.800,3.545 54.518,4.195 50.339 C 4.355 49.309,4.813 48.580,5.751 47.865 C 6.848 47.028,7.171 46.410,7.600 44.325 C 8.313 40.865,8.955 39.740,10.546 39.165 C 11.759 38.726,11.952 38.442,12.395 36.438 C 13.092 33.284,17.999 26.000,19.427 26.000 C 20.068 26.000,20.800 24.771,20.800 23.696 C 20.800 22.581,22.475 21.203,24.160 20.929 C 25.342 20.737,25.743 20.433,26.175 19.398 C 26.472 18.687,27.409 17.587,28.258 16.953 C 29.106 16.319,30.116 15.411,30.502 14.935 C 30.888 14.459,32.508 13.574,34.102 12.969 C 36.150 12.192,37.471 11.376,38.605 10.190 C 39.817 8.923,40.798 8.345,42.605 7.833 C 43.922 7.460,45.353 7.051,45.785 6.924 C 46.216 6.796,47.074 6.187,47.692 5.570 C 48.465 4.797,49.405 4.363,50.707 4.177 C 53.729 3.747,58.400 1.673,58.400 0.763 C 58.400 0.019,57.657 0.000,29.200 0.000 L 0.000 0.000 0.000 29.400 M344.000 0.822 C 344.000 1.766,347.059 3.307,349.875 3.780 C 350.796 3.935,352.546 4.662,353.764 5.395 C 354.982 6.128,356.928 7.027,358.089 7.393 C 362.596 8.811,364.095 9.611,364.733 10.938 C 365.268 12.050,366.087 12.551,368.057 12.969 C 369.472 13.270,373.813 16.984,374.397 18.394 C 374.720 19.172,375.457 19.766,376.784 20.318 C 378.718 21.122,382.000 23.749,382.000 24.494 C 382.000 24.714,382.495 25.476,383.100 26.187 C 383.705 26.898,384.767 28.156,385.460 28.982 C 386.153 29.809,386.949 31.303,387.228 32.302 C 387.659 33.838,387.967 34.208,389.224 34.702 C 390.936 35.375,391.262 35.919,392.357 39.935 C 392.798 41.549,393.507 43.172,393.933 43.542 C 394.801 44.294,396.505 47.569,397.606 50.600 C 398.121 52.017,398.576 52.637,399.167 52.728 L 400.000 52.856 400.000 26.428 L 400.000 0.000 372.000 0.000 C 344.017 0.000,344.000 0.000,344.000 0.822 M198.600 88.003 C 192.683 88.703,191.525 89.592,188.827 95.510 C 188.599 96.011,188.121 96.532,187.766 96.669 C 187.170 96.897,184.922 101.261,184.196 103.600 C 184.025 104.150,183.480 105.140,182.984 105.800 C 182.489 106.460,181.581 108.499,180.965 110.331 C 179.974 113.284,179.685 113.745,178.418 114.391 C 177.035 115.097,176.973 115.226,176.470 118.460 C 175.990 121.553,175.835 121.908,174.376 123.254 C 173.509 124.053,172.800 125.024,172.800 125.412 C 172.800 126.303,170.078 132.000,169.653 132.000 C 169.479 132.000,168.726 133.826,167.981 136.057 C 166.760 139.713,166.500 140.166,165.349 140.647 C 164.284 141.092,163.932 141.598,163.230 143.690 C 162.767 145.071,162.232 146.445,162.042 146.745 C 160.997 148.396,152.142 149.953,143.633 149.983 C 137.162 150.005,134.109 150.556,130.200 152.404 C 126.743 154.038,123.888 154.462,112.600 155.012 C 105.989 155.334,103.279 155.883,101.747 157.209 C 101.058 157.805,99.850 158.414,99.063 158.562 C 98.088 158.745,97.344 159.239,96.723 160.115 C 96.223 160.822,95.252 161.964,94.566 162.654 C 92.065 165.168,92.477 175.931,95.169 178.400 C 95.845 179.020,97.200 181.627,97.200 182.307 C 97.200 182.520,98.099 183.067,99.198 183.524 C 101.184 184.349,101.685 184.980,102.172 187.267 C 102.360 188.152,102.709 188.401,104.204 188.720 C 106.407 189.190,109.110 191.479,110.339 193.915 C 110.990 195.205,111.630 195.813,112.923 196.367 C 114.267 196.943,114.861 197.529,115.642 199.052 C 116.273 200.282,117.099 201.221,117.884 201.600 C 119.760 202.506,123.216 206.174,123.803 207.881 C 124.241 209.155,124.572 209.455,125.910 209.796 C 127.703 210.253,128.800 211.033,128.800 211.853 C 128.800 212.474,130.888 214.800,131.446 214.800 C 131.932 214.800,135.774 218.780,136.344 219.874 C 137.665 222.407,136.400 238.488,134.415 244.400 C 133.585 246.873,133.207 248.946,133.027 252.000 C 132.541 260.273,131.326 267.103,129.898 269.600 C 128.550 271.956,128.078 282.507,129.063 288.277 C 129.235 289.286,129.525 289.608,130.445 289.810 C 131.090 289.952,132.061 290.658,132.622 291.393 C 134.824 294.281,145.852 295.630,149.318 293.437 C 149.803 293.130,150.793 292.755,151.518 292.604 C 152.243 292.452,153.294 291.904,153.854 291.385 C 154.447 290.835,155.817 290.248,157.136 289.979 C 160.642 289.262,161.511 288.831,161.943 287.592 C 162.503 285.985,163.869 285.243,166.828 284.937 C 169.135 284.698,169.544 284.515,170.800 283.159 C 171.649 282.244,173.066 281.325,174.400 280.828 C 175.610 280.376,177.680 279.286,179.000 278.405 C 180.320 277.524,181.721 276.802,182.113 276.801 C 183.119 276.799,185.254 275.830,186.200 274.947 C 188.763 272.552,189.632 272.095,192.953 271.398 C 195.334 270.899,196.448 270.478,196.592 270.026 C 197.381 267.538,203.727 267.364,206.127 269.764 C 206.637 270.273,207.761 270.916,208.627 271.192 C 210.184 271.689,212.441 272.586,213.600 273.168 C 213.930 273.333,214.560 274.024,215.000 274.703 C 215.915 276.115,217.144 276.800,218.759 276.800 C 220.506 276.800,222.486 277.600,223.803 278.838 C 224.528 279.520,225.844 280.163,227.113 280.456 C 228.720 280.827,229.624 281.353,230.932 282.679 C 232.347 284.115,233.023 284.480,234.822 284.784 C 236.020 284.986,237.713 285.523,238.585 285.976 C 239.456 286.429,240.399 286.800,240.681 286.800 C 240.962 286.800,241.599 287.424,242.096 288.187 C 242.679 289.082,243.426 289.661,244.200 289.817 C 245.750 290.130,247.807 291.068,249.735 292.340 C 251.196 293.304,254.095 293.991,259.490 294.653 C 262.715 295.049,268.330 293.161,270.560 290.931 C 272.258 289.233,272.675 279.570,271.573 267.500 C 271.327 264.805,271.029 261.436,270.911 260.013 C 270.767 258.286,270.393 256.955,269.785 256.013 C 268.811 254.502,268.412 252.415,267.376 243.400 C 267.022 240.320,266.568 237.045,266.366 236.123 C 266.165 235.200,266.000 233.980,266.000 233.411 C 266.000 232.842,265.550 231.307,265.000 230.000 C 262.627 224.361,264.552 219.198,270.568 215.069 C 271.153 214.667,271.736 213.821,271.862 213.190 C 272.150 211.748,272.951 211.066,275.057 210.466 C 276.324 210.105,276.777 209.746,276.978 208.946 C 277.317 207.594,281.380 203.330,283.228 202.386 C 284.294 201.842,284.777 201.256,285.130 200.076 C 285.680 198.241,286.057 197.879,288.109 197.218 C 289.187 196.871,289.843 196.313,290.405 195.266 C 291.641 192.962,294.846 189.761,296.509 189.170 C 297.764 188.723,298.096 188.361,298.479 187.016 C 299.094 184.860,299.429 184.483,301.202 183.952 C 302.312 183.620,302.942 183.086,303.596 181.922 C 304.084 181.053,304.743 180.243,305.060 180.122 C 305.377 180.000,306.085 179.016,306.632 177.936 C 307.180 176.856,307.970 175.630,308.389 175.211 C 308.808 174.792,309.549 173.289,310.035 171.871 L 310.920 169.292 310.087 168.122 C 309.628 167.478,309.128 166.422,308.975 165.776 C 308.822 165.129,308.284 164.150,307.779 163.600 C 307.275 163.050,306.566 161.855,306.205 160.945 C 305.540 159.267,303.483 158.008,301.387 157.995 C 300.954 157.993,299.843 157.557,298.917 157.028 C 296.571 155.686,291.848 154.800,287.045 154.800 C 279.677 154.800,273.356 153.791,271.495 152.317 C 269.492 150.731,267.977 150.468,259.200 150.182 C 249.438 149.864,244.800 149.088,242.273 147.350 C 241.194 146.608,240.015 145.999,239.655 145.997 C 238.483 145.992,237.161 143.434,236.661 140.205 C 236.192 137.166,236.185 137.155,234.539 136.418 C 232.779 135.630,232.335 134.793,231.780 131.223 C 231.576 129.909,231.154 129.136,230.157 128.254 C 229.294 127.491,228.719 126.548,228.557 125.631 C 228.327 124.330,226.310 120.484,225.603 120.000 C 224.926 119.535,224.070 117.174,223.400 113.919 C 222.747 110.749,222.583 110.403,221.571 110.050 C 220.102 109.538,219.207 108.095,218.524 105.138 C 218.107 103.331,217.624 102.391,216.633 101.456 C 215.588 100.470,215.240 99.753,215.016 98.121 C 214.727 96.016,214.012 94.964,211.881 93.506 C 211.304 93.112,210.753 92.249,210.603 91.506 C 210.071 88.865,210.229 88.972,206.095 88.435 C 203.953 88.156,201.930 87.882,201.600 87.824 C 201.270 87.766,199.920 87.847,198.600 88.003 M0.000 384.000 L 0.000 424.000 200.000 424.000 L 400.000 424.000 400.000 386.600 C 400.000 344.934,400.118 346.508,397.406 352.099 C 396.633 353.693,396.000 355.232,396.000 355.518 C 396.000 356.397,394.743 358.530,393.777 359.289 C 393.154 359.779,392.668 360.866,392.249 362.704 C 391.647 365.351,391.487 365.580,389.053 367.293 C 388.468 367.705,387.797 368.839,387.398 370.093 C 386.781 372.030,386.253 372.722,384.114 374.400 C 383.694 374.730,383.107 375.601,382.812 376.335 C 382.506 377.094,381.614 378.086,380.742 378.637 C 379.852 379.199,378.961 380.198,378.618 381.019 C 378.182 382.063,377.563 382.638,376.252 383.218 C 375.164 383.700,374.178 384.511,373.703 385.315 C 373.117 386.309,372.382 386.812,370.666 387.396 C 369.350 387.843,368.309 388.455,368.182 388.858 C 367.736 390.261,365.295 391.924,362.971 392.406 C 361.335 392.746,360.336 393.237,359.420 394.154 C 358.566 395.007,357.313 395.660,355.627 396.129 C 354.242 396.514,352.545 397.252,351.855 397.768 C 351.165 398.285,349.340 399.134,347.800 399.654 L 345.000 400.600 201.800 400.600 C 54.283 400.600,54.781 400.605,52.838 398.971 C 52.204 398.437,51.463 398.000,51.192 398.000 C 50.922 398.000,49.688 397.568,48.450 397.041 C 47.213 396.513,45.592 395.852,44.848 395.571 C 44.105 395.290,43.081 394.644,42.573 394.137 C 41.539 393.103,38.759 392.015,37.129 392.006 C 35.977 392.000,34.552 390.544,34.157 388.970 C 33.993 388.316,33.375 387.888,31.903 387.406 C 29.743 386.700,26.175 383.983,25.783 382.746 C 25.653 382.335,25.327 382.000,25.058 382.000 C 24.350 382.000,20.984 378.716,20.262 377.320 C 19.923 376.664,19.163 375.694,18.573 375.164 C 14.633 371.623,12.807 369.081,12.794 367.120 C 12.785 365.844,12.347 365.271,10.771 364.481 C 9.560 363.874,9.258 363.362,8.006 359.790 C 7.233 357.584,6.083 355.021,5.450 354.095 C 4.818 353.168,3.973 351.193,3.573 349.705 C 2.449 345.522,1.708 344.000,0.795 344.000 C 0.007 344.000,0.000 344.357,0.000 384.000 " stroke="none" fill="#fcf7f7" fill-rule="evenodd"></path><path id="path1" d="M68.000 0.759 C 68.000 1.684,65.454 4.000,64.437 4.000 C 64.033 4.000,62.897 4.356,61.912 4.791 C 60.928 5.227,58.810 5.705,57.204 5.854 C 54.807 6.077,54.059 6.324,53.021 7.236 C 52.325 7.846,51.226 8.461,50.578 8.602 C 48.919 8.963,46.466 10.004,44.660 11.114 C 41.195 13.244,39.589 14.000,38.523 14.005 C 36.375 14.016,35.568 14.465,34.959 15.986 C 34.416 17.343,30.342 20.800,29.286 20.800 C 28.402 20.800,22.041 27.730,19.975 30.942 C 18.158 33.767,17.371 34.631,16.090 35.204 C 14.660 35.845,14.454 36.114,14.221 37.662 C 13.916 39.683,13.023 41.965,11.686 44.140 C 9.784 47.234,8.892 49.029,8.613 50.318 C 8.457 51.043,7.890 52.109,7.355 52.687 C 6.310 53.814,6.295 53.864,5.654 58.400 C 4.508 66.511,2.354 72.766,0.700 72.790 C 0.035 72.799,0.000 79.212,0.000 201.772 L 0.000 330.744 0.842 330.872 C 1.919 331.036,3.961 334.548,3.983 336.276 C 3.992 336.978,4.159 337.651,4.354 337.771 C 4.690 337.979,5.289 340.864,5.814 344.800 C 6.168 347.455,7.166 350.800,7.604 350.800 C 8.105 350.800,9.773 354.116,10.421 356.400 C 10.702 357.390,11.537 358.842,12.276 359.628 C 13.345 360.763,13.705 361.577,14.031 363.598 C 14.533 366.715,14.520 366.694,16.378 367.438 C 17.887 368.042,18.427 368.748,19.100 371.000 C 19.306 371.686,19.923 372.426,20.542 372.728 C 21.138 373.018,22.063 373.949,22.597 374.796 C 23.132 375.643,24.197 376.815,24.964 377.400 C 25.731 377.985,26.709 379.058,27.138 379.784 C 27.676 380.696,28.448 381.283,29.630 381.677 C 31.357 382.252,31.533 382.432,32.479 384.584 C 32.835 385.393,33.381 385.848,34.200 386.017 C 36.023 386.394,38.881 387.802,40.000 388.873 C 41.015 389.845,42.502 390.539,44.510 390.978 C 45.121 391.111,46.305 391.839,47.143 392.596 C 48.418 393.748,49.149 394.045,51.633 394.423 C 55.617 395.028,57.756 396.000,58.424 397.510 C 59.212 399.289,51.677 399.200,201.156 399.196 C 349.967 399.191,342.345 399.279,343.364 397.553 C 344.302 395.965,346.406 394.984,350.173 394.377 C 352.665 393.976,353.592 393.632,354.489 392.776 C 355.116 392.176,356.208 391.470,356.915 391.208 C 359.548 390.231,364.210 387.879,364.502 387.380 C 364.669 387.095,365.665 386.577,366.716 386.228 C 368.178 385.742,368.731 385.319,369.067 384.429 C 369.329 383.735,370.132 382.929,371.053 382.437 C 371.904 381.982,373.410 380.799,374.400 379.808 C 375.390 378.817,376.434 378.005,376.720 378.003 C 377.007 378.001,377.510 377.355,377.840 376.566 C 378.170 375.777,379.152 374.472,380.023 373.666 C 380.894 372.860,381.920 371.570,382.303 370.800 C 382.736 369.930,383.568 369.134,384.500 368.697 C 385.429 368.262,386.000 367.716,386.000 367.264 C 386.000 366.379,389.004 360.527,390.051 359.374 C 390.463 358.920,390.800 358.221,390.800 357.821 C 390.800 356.940,392.242 354.528,393.035 354.084 C 393.350 353.908,393.789 352.782,394.010 351.582 C 394.231 350.382,394.604 348.356,394.839 347.081 C 395.331 344.400,397.303 342.000,399.013 342.000 L 400.000 342.000 400.000 201.400 L 400.000 60.800 399.019 60.800 C 396.250 60.800,395.314 59.084,394.395 52.318 C 393.957 49.087,393.827 48.763,392.597 47.824 C 391.583 47.051,391.071 46.167,390.421 44.067 C 389.812 42.099,389.197 40.991,388.251 40.153 C 387.213 39.234,386.783 38.377,386.233 36.134 C 385.546 33.333,385.504 33.272,383.773 32.611 C 382.205 32.012,381.933 31.713,381.305 29.904 C 380.800 28.446,380.237 27.653,379.318 27.106 C 378.612 26.686,377.924 25.992,377.789 25.564 C 377.653 25.136,376.475 24.034,375.171 23.115 C 373.867 22.195,372.800 21.140,372.800 20.770 C 372.800 19.909,372.108 19.360,370.600 19.027 C 368.934 18.659,368.209 18.030,367.345 16.202 C 366.570 14.564,366.355 14.462,362.253 13.797 C 361.282 13.640,360.313 13.119,359.653 12.399 C 359.074 11.769,357.700 10.956,356.600 10.593 C 355.500 10.230,352.800 9.059,350.600 7.990 C 347.713 6.589,345.765 5.927,343.600 5.613 C 339.698 5.047,338.089 4.508,337.821 3.675 C 337.702 3.304,336.748 2.730,335.702 2.400 C 334.261 1.945,333.769 1.582,333.672 0.900 L 333.544 0.000 200.772 0.000 C 70.684 0.000,68.000 0.015,68.000 0.759 M205.192 83.519 C 205.957 83.894,206.947 84.778,207.392 85.485 C 207.863 86.234,208.542 86.776,209.020 86.785 C 211.697 86.835,215.744 90.710,216.459 93.909 C 216.800 95.431,217.234 96.266,217.920 96.715 C 218.781 97.279,222.000 103.299,222.000 104.345 C 222.000 104.561,222.412 105.247,222.916 105.869 C 224.217 107.476,224.800 109.000,224.800 110.793 C 224.800 113.201,225.375 114.287,226.816 114.604 C 228.275 114.924,229.341 116.885,229.815 120.120 C 230.098 122.045,230.375 122.497,231.951 123.588 C 232.418 123.912,232.800 124.412,232.800 124.700 C 232.800 125.566,234.808 130.061,235.781 131.374 C 236.931 132.926,237.570 134.716,238.145 137.999 C 238.576 140.461,238.681 140.635,240.141 141.321 C 240.988 141.719,242.064 142.402,242.533 142.838 C 243.479 143.719,243.672 143.772,248.168 144.384 C 249.911 144.621,251.531 144.968,251.768 145.155 C 252.006 145.341,253.176 145.618,254.369 145.770 C 256.854 146.086,258.000 146.592,258.000 147.371 C 258.000 148.319,259.184 148.474,269.000 148.811 C 278.173 149.126,282.295 149.558,284.330 150.417 C 285.709 151.000,292.145 152.329,295.800 152.787 C 302.065 153.571,303.571 153.994,304.482 155.225 C 304.945 155.851,305.791 156.471,306.362 156.601 C 308.276 157.040,310.000 159.018,310.000 160.774 C 310.000 161.228,310.188 161.600,310.418 161.600 C 312.895 161.600,313.989 172.760,311.974 177.462 C 311.207 179.250,306.430 184.400,305.538 184.400 C 305.348 184.400,304.789 185.238,304.296 186.263 C 303.374 188.180,303.231 188.305,300.718 189.418 C 299.670 189.882,298.993 190.575,298.409 191.782 C 297.638 193.374,295.948 195.018,292.300 197.727 C 291.475 198.340,290.800 199.066,290.800 199.341 C 290.800 200.634,289.731 201.932,288.215 202.480 C 287.008 202.916,286.231 203.612,285.142 205.232 C 283.425 207.784,281.543 209.635,279.600 210.683 C 278.676 211.182,277.888 212.085,277.282 213.341 C 276.556 214.846,276.005 215.398,274.646 215.980 C 272.037 217.099,269.059 221.890,269.057 224.974 C 269.051 231.708,270.077 241.449,270.999 243.400 C 272.192 245.926,272.767 250.081,273.049 258.200 C 273.289 265.098,273.471 266.039,275.337 270.000 C 278.598 276.924,278.140 288.212,274.506 290.458 C 273.699 290.957,273.077 291.715,272.949 292.357 C 271.789 298.156,259.942 301.113,252.359 297.496 C 250.732 296.719,248.860 295.962,248.200 295.812 C 246.820 295.500,245.267 294.193,244.780 292.934 C 244.526 292.275,243.890 291.957,242.123 291.604 C 237.564 290.696,237.427 290.636,236.730 289.250 C 235.834 287.466,235.071 287.012,232.000 286.433 C 230.570 286.163,228.770 285.540,228.000 285.047 C 227.230 284.554,225.340 283.646,223.800 283.029 C 219.500 281.305,219.252 281.155,218.432 279.765 C 217.748 278.604,217.417 278.437,215.333 278.200 C 211.651 277.781,210.010 276.866,209.994 275.225 C 209.980 273.856,209.245 273.502,205.348 272.991 C 198.082 272.037,194.702 272.896,190.086 276.869 C 189.130 277.692,188.348 278.000,187.212 278.000 C 184.953 278.000,183.749 278.583,182.714 280.177 C 181.845 281.514,179.602 282.800,178.137 282.800 C 177.781 282.800,176.738 283.493,175.819 284.340 C 174.382 285.665,173.799 285.919,171.647 286.163 C 168.709 286.495,168.005 286.722,167.987 287.343 C 167.941 288.903,162.873 291.569,159.910 291.592 C 159.173 291.597,158.394 292.068,157.510 293.042 C 155.968 294.739,153.675 296.000,152.133 296.000 C 151.419 296.000,150.537 296.485,149.615 297.385 L 148.197 298.770 142.777 299.042 L 137.357 299.314 135.979 298.117 C 135.220 297.459,134.134 296.807,133.565 296.669 C 131.995 296.287,130.500 294.934,129.941 293.388 C 129.665 292.625,129.219 292.000,128.949 292.000 C 126.002 292.000,125.924 262.120,128.857 256.898 C 129.755 255.300,130.205 251.837,130.594 243.534 C 130.978 235.321,131.404 233.206,133.174 230.719 C 134.510 228.842,134.707 228.254,134.905 225.566 C 135.160 222.098,135.151 222.076,133.000 221.000 C 131.873 220.436,131.170 219.705,130.621 218.523 C 130.135 217.479,129.498 216.761,128.930 216.618 C 128.400 216.485,127.430 215.470,126.614 214.195 C 125.842 212.988,124.962 212.000,124.659 212.000 C 123.769 212.000,122.064 210.456,121.927 209.526 C 121.843 208.960,121.338 208.513,120.446 208.213 C 119.091 207.759,117.206 205.837,117.202 204.905 C 117.201 204.633,116.483 203.958,115.608 203.405 C 114.713 202.840,113.906 201.966,113.767 201.411 C 113.555 200.567,110.425 198.000,109.608 198.000 C 109.468 198.000,109.036 197.280,108.648 196.400 C 108.260 195.520,107.679 194.800,107.357 194.800 C 106.363 194.800,104.763 193.526,103.759 191.935 C 103.231 191.099,102.373 190.308,101.851 190.177 C 101.329 190.046,100.689 189.548,100.427 189.070 C 100.166 188.591,99.288 187.889,98.476 187.508 C 97.140 186.883,96.443 186.073,94.889 183.344 C 94.609 182.851,94.036 182.338,93.616 182.205 C 92.914 181.982,91.200 179.094,91.200 178.134 C 91.200 177.906,90.674 176.994,90.032 176.108 C 87.165 172.150,87.398 166.575,90.603 162.462 C 91.371 161.476,92.000 160.255,92.000 159.749 C 92.000 158.830,94.398 156.800,95.484 156.800 C 95.757 156.800,96.269 156.362,96.620 155.826 C 97.543 154.416,101.455 153.184,106.400 152.744 C 113.213 152.138,113.866 152.009,114.998 151.036 C 115.777 150.366,116.817 150.029,118.738 149.823 C 120.202 149.666,122.840 149.383,124.600 149.194 C 126.360 149.005,129.960 148.836,132.600 148.818 C 142.205 148.754,145.795 148.040,148.468 145.662 C 149.403 144.830,150.269 144.638,155.468 144.109 C 162.173 143.427,161.813 143.652,162.182 139.906 C 162.426 137.430,162.611 136.962,163.780 135.853 C 164.539 135.134,165.208 134.030,165.349 133.264 C 165.794 130.840,167.116 128.411,168.379 127.692 C 169.266 127.188,169.654 126.621,169.810 125.600 C 170.452 121.413,172.181 117.977,173.926 117.423 C 174.583 117.215,175.103 115.599,175.819 111.532 C 175.972 110.659,176.532 109.658,177.198 109.064 C 177.954 108.391,178.464 107.393,178.762 106.002 C 179.424 102.916,180.844 100.800,182.254 100.800 C 182.546 100.800,182.882 100.305,183.002 99.700 C 184.151 93.870,184.481 93.126,186.398 92.049 C 187.411 91.480,188.120 90.684,188.533 89.652 C 189.120 88.183,191.231 86.806,192.908 86.797 C 193.179 86.796,193.700 86.268,194.066 85.625 C 195.565 82.990,201.726 81.824,205.192 83.519 " stroke="none" fill="#fc443c" fill-rule="evenodd"></path><path id="path2" d="M62.000 0.662 C 62.000 2.318,60.133 3.864,57.525 4.368 C 53.359 5.174,49.461 6.453,48.428 7.354 C 48.083 7.655,47.080 8.127,46.200 8.401 C 42.145 9.668,41.374 10.068,40.597 11.304 C 39.964 12.314,39.366 12.678,37.753 13.036 C 35.152 13.613,33.595 14.539,32.477 16.169 C 31.990 16.881,30.788 17.864,29.807 18.354 C 28.825 18.844,27.639 19.784,27.170 20.442 C 26.701 21.101,25.593 21.929,24.708 22.283 C 23.449 22.787,22.931 23.306,22.329 24.668 C 21.905 25.625,21.117 26.698,20.576 27.052 C 20.036 27.406,19.142 28.595,18.591 29.693 C 17.664 31.539,15.510 34.000,14.822 34.000 C 14.402 34.000,13.656 35.763,13.183 37.877 C 12.887 39.199,12.294 40.163,11.013 41.408 C 9.757 42.629,9.176 43.563,8.991 44.660 C 8.580 47.088,8.430 47.460,7.455 48.460 C 6.445 49.495,5.107 53.518,4.379 57.703 C 3.880 60.569,2.473 62.400,0.769 62.400 C 0.050 62.400,0.000 62.736,0.000 67.600 C 0.000 77.758,3.789 71.592,5.654 58.400 C 6.295 53.864,6.310 53.814,7.355 52.687 C 7.890 52.109,8.457 51.043,8.613 50.318 C 8.892 49.029,9.784 47.234,11.686 44.140 C 13.023 41.965,13.916 39.683,14.221 37.662 C 14.454 36.114,14.660 35.845,16.090 35.204 C 17.371 34.631,18.158 33.767,19.975 30.942 C 22.041 27.730,28.402 20.800,29.286 20.800 C 30.342 20.800,34.416 17.343,34.959 15.986 C 35.568 14.465,36.375 14.016,38.523 14.005 C 39.589 14.000,41.195 13.244,44.660 11.114 C 46.466 10.004,48.919 8.963,50.578 8.602 C 51.226 8.461,52.325 7.846,53.021 7.236 C 54.059 6.324,54.807 6.077,57.204 5.854 C 58.810 5.705,60.928 5.227,61.912 4.791 C 62.897 4.356,64.033 4.000,64.437 4.000 C 65.454 4.000,68.000 1.684,68.000 0.759 C 68.000 0.081,67.679 0.000,65.000 0.000 C 62.475 0.000,62.000 0.105,62.000 0.662 M333.672 0.900 C 333.769 1.582,334.261 1.945,335.702 2.400 C 336.748 2.730,337.702 3.304,337.821 3.675 C 338.089 4.508,339.698 5.047,343.600 5.613 C 345.765 5.927,347.713 6.589,350.600 7.990 C 352.800 9.059,355.500 10.230,356.600 10.593 C 357.700 10.956,359.074 11.769,359.653 12.399 C 360.313 13.119,361.282 13.640,362.253 13.797 C 366.355 14.462,366.570 14.564,367.345 16.202 C 368.209 18.030,368.934 18.659,370.600 19.027 C 372.108 19.360,372.800 19.909,372.800 20.770 C 372.800 21.140,373.867 22.195,375.171 23.115 C 376.475 24.034,377.653 25.136,377.789 25.564 C 377.924 25.992,378.612 26.686,379.318 27.106 C 380.237 27.653,380.800 28.446,381.305 29.904 C 381.933 31.713,382.205 32.012,383.773 32.611 C 385.504 33.272,385.546 33.333,386.233 36.134 C 386.783 38.377,387.213 39.234,388.251 40.153 C 389.197 40.991,389.812 42.099,390.421 44.067 C 391.071 46.167,391.583 47.051,392.597 47.824 C 393.827 48.763,393.957 49.087,394.395 52.318 C 395.314 59.084,396.250 60.800,399.019 60.800 C 400.446 60.800,400.539 56.934,399.117 56.728 C 397.848 56.544,396.073 53.763,395.596 51.210 C 395.335 49.814,394.610 48.161,393.593 46.648 C 392.717 45.343,391.996 43.988,391.991 43.637 C 391.977 42.596,390.587 39.883,389.445 38.670 C 388.860 38.048,387.752 36.213,386.983 34.591 C 386.138 32.811,385.109 31.305,384.386 30.790 C 383.727 30.321,382.894 29.366,382.534 28.668 C 382.174 27.971,381.232 26.766,380.440 25.992 C 379.648 25.217,378.707 24.027,378.349 23.346 C 377.870 22.434,377.319 22.036,376.257 21.837 C 375.150 21.629,374.535 21.159,373.607 19.810 C 372.942 18.844,372.044 17.941,371.610 17.803 C 371.177 17.666,370.142 16.783,369.311 15.842 C 367.846 14.182,365.925 13.208,362.928 12.605 C 361.807 12.379,361.245 11.852,359.369 9.271 C 359.317 9.200,357.953 8.870,356.337 8.539 C 354.321 8.126,353.068 7.622,352.343 6.935 C 351.592 6.223,350.257 5.706,347.743 5.154 C 342.898 4.090,339.841 2.554,339.673 1.100 C 339.548 0.009,339.522 0.000,336.546 0.000 C 333.662 0.000,333.549 0.035,333.672 0.900 M196.266 83.645 C 195.422 84.090,194.432 84.981,194.066 85.625 C 193.700 86.268,193.179 86.796,192.908 86.797 C 191.231 86.806,189.120 88.183,188.533 89.652 C 188.120 90.684,187.411 91.480,186.398 92.049 C 184.481 93.126,184.151 93.870,183.002 99.700 C 182.882 100.305,182.546 100.800,182.254 100.800 C 180.844 100.800,179.424 102.916,178.762 106.002 C 178.464 107.393,177.954 108.391,177.198 109.064 C 176.532 109.658,175.972 110.659,175.819 111.532 C 175.103 115.599,174.583 117.215,173.926 117.423 C 172.181 117.977,170.452 121.413,169.810 125.600 C 169.654 126.621,169.266 127.188,168.379 127.692 C 167.116 128.411,165.794 130.840,165.349 133.264 C 165.208 134.030,164.539 135.134,163.780 135.853 C 162.611 136.962,162.426 137.430,162.182 139.906 C 161.813 143.652,162.173 143.427,155.468 144.109 C 150.269 144.638,149.403 144.830,148.468 145.662 C 145.795 148.040,142.205 148.754,132.600 148.818 C 129.960 148.836,126.360 149.005,124.600 149.194 C 122.840 149.383,120.202 149.666,118.738 149.823 C 116.817 150.029,115.777 150.366,114.998 151.036 C 113.866 152.009,113.213 152.138,106.400 152.744 C 101.455 153.184,97.543 154.416,96.620 155.826 C 96.269 156.362,95.757 156.800,95.484 156.800 C 94.398 156.800,92.000 158.830,92.000 159.749 C 92.000 160.255,91.371 161.476,90.603 162.462 C 87.398 166.575,87.165 172.150,90.032 176.108 C 90.674 176.994,91.200 177.906,91.200 178.134 C 91.200 179.094,92.914 181.982,93.616 182.205 C 94.036 182.338,94.609 182.851,94.889 183.344 C 96.443 186.073,97.140 186.883,98.476 187.508 C 99.288 187.889,100.166 188.591,100.427 189.070 C 100.689 189.548,101.329 190.046,101.851 190.177 C 102.373 190.308,103.231 191.099,103.759 191.935 C 104.763 193.526,106.363 194.800,107.357 194.800 C 107.679 194.800,108.260 195.520,108.648 196.400 C 109.036 197.280,109.468 198.000,109.608 198.000 C 110.425 198.000,113.555 200.567,113.767 201.411 C 113.906 201.966,114.713 202.840,115.608 203.405 C 116.483 203.958,117.201 204.633,117.202 204.905 C 117.206 205.837,119.091 207.759,120.446 208.213 C 121.338 208.513,121.843 208.960,121.927 209.526 C 122.064 210.456,123.769 212.000,124.659 212.000 C 124.962 212.000,125.842 212.988,126.614 214.195 C 127.430 215.470,128.400 216.485,128.930 216.618 C 129.498 216.761,130.135 217.479,130.621 218.523 C 131.170 219.705,131.873 220.436,133.000 221.000 C 135.151 222.076,135.160 222.098,134.905 225.566 C 134.707 228.254,134.510 228.842,133.174 230.719 C 131.404 233.206,130.978 235.321,130.594 243.534 C 130.205 251.837,129.755 255.300,128.857 256.898 C 125.924 262.120,126.002 292.000,128.949 292.000 C 129.219 292.000,129.665 292.625,129.941 293.388 C 130.500 294.934,131.995 296.287,133.565 296.669 C 134.134 296.807,135.220 297.459,135.979 298.117 L 137.357 299.314 142.777 299.042 L 148.197 298.770 149.615 297.385 C 150.537 296.485,151.419 296.000,152.133 296.000 C 153.675 296.000,155.968 294.739,157.510 293.042 C 158.394 292.068,159.173 291.597,159.910 291.592 C 162.873 291.569,167.941 288.903,167.987 287.343 C 168.005 286.722,168.709 286.495,171.647 286.163 C 173.799 285.919,174.382 285.665,175.819 284.340 C 176.738 283.493,177.781 282.800,178.137 282.800 C 179.602 282.800,181.845 281.514,182.714 280.177 C 183.749 278.583,184.953 278.000,187.212 278.000 C 188.348 278.000,189.130 277.692,190.086 276.869 C 194.702 272.896,198.082 272.037,205.348 272.991 C 209.245 273.502,209.980 273.856,209.994 275.225 C 210.010 276.866,211.651 277.781,215.333 278.200 C 217.417 278.437,217.748 278.604,218.432 279.765 C 219.252 281.155,219.500 281.305,223.800 283.029 C 225.340 283.646,227.230 284.554,228.000 285.047 C 228.770 285.540,230.570 286.163,232.000 286.433 C 235.071 287.012,235.834 287.466,236.730 289.250 C 237.427 290.636,237.564 290.696,242.123 291.604 C 243.890 291.957,244.526 292.275,244.780 292.934 C 245.267 294.193,246.820 295.500,248.200 295.812 C 248.860 295.962,250.732 296.719,252.359 297.496 C 259.942 301.113,271.789 298.156,272.949 292.357 C 273.077 291.715,273.699 290.957,274.506 290.458 C 278.140 288.212,278.598 276.924,275.337 270.000 C 273.471 266.039,273.289 265.098,273.049 258.200 C 272.767 250.081,272.192 245.926,270.999 243.400 C 270.077 241.449,269.051 231.708,269.057 224.974 C 269.059 221.890,272.037 217.099,274.646 215.980 C 276.005 215.398,276.556 214.846,277.282 213.341 C 277.888 212.085,278.676 211.182,279.600 210.683 C 281.543 209.635,283.425 207.784,285.142 205.232 C 286.231 203.612,287.008 202.916,288.215 202.480 C 289.731 201.932,290.800 200.634,290.800 199.341 C 290.800 199.066,291.475 198.340,292.300 197.727 C 295.948 195.018,297.638 193.374,298.409 191.782 C 298.993 190.575,299.670 189.882,300.718 189.418 C 303.231 188.305,303.374 188.180,304.296 186.263 C 304.789 185.238,305.348 184.400,305.538 184.400 C 306.430 184.400,311.207 179.250,311.974 177.462 C 313.989 172.760,312.895 161.600,310.418 161.600 C 310.188 161.600,310.000 161.228,310.000 160.774 C 310.000 159.018,308.276 157.040,306.362 156.601 C 305.791 156.471,304.945 155.851,304.482 155.225 C 303.571 153.994,302.065 153.571,295.800 152.787 C 292.145 152.329,285.709 151.000,284.330 150.417 C 282.295 149.558,278.173 149.126,269.000 148.811 C 259.184 148.474,258.000 148.319,258.000 147.371 C 258.000 146.592,256.854 146.086,254.369 145.770 C 253.176 145.618,252.006 145.341,251.768 145.155 C 251.531 144.968,249.911 144.621,248.168 144.384 C 243.672 143.772,243.479 143.719,242.533 142.838 C 242.064 142.402,240.988 141.719,240.141 141.321 C 238.681 140.635,238.576 140.461,238.145 137.999 C 237.570 134.716,236.931 132.926,235.781 131.374 C 234.808 130.061,232.800 125.566,232.800 124.700 C 232.800 124.412,232.418 123.912,231.951 123.588 C 230.375 122.497,230.098 122.045,229.815 120.120 C 229.341 116.885,228.275 114.924,226.816 114.604 C 225.375 114.287,224.800 113.201,224.800 110.793 C 224.800 109.000,224.217 107.476,222.916 105.869 C 222.412 105.247,222.000 104.561,222.000 104.345 C 222.000 103.299,218.781 97.279,217.920 96.715 C 217.234 96.266,216.800 95.431,216.459 93.909 C 215.744 90.710,211.697 86.835,209.020 86.785 C 208.542 86.776,207.863 86.234,207.392 85.485 C 205.709 82.809,199.725 81.820,196.266 83.645 M203.263 85.784 C 204.060 86.326,205.947 87.072,207.456 87.443 C 210.648 88.227,211.060 88.492,211.783 90.222 C 212.079 90.929,212.876 91.836,213.554 92.236 C 214.764 92.951,216.000 94.922,216.000 96.137 C 216.000 96.476,216.180 96.864,216.400 97.000 C 216.620 97.136,216.800 97.769,216.800 98.408 C 216.800 99.046,217.079 99.801,217.419 100.084 C 219.063 101.453,219.628 102.289,220.177 104.165 C 220.509 105.297,221.489 107.062,222.387 108.144 C 223.545 109.539,224.000 110.456,224.000 111.393 C 224.000 113.494,225.055 115.897,226.556 117.215 C 227.323 117.889,228.156 119.106,228.407 119.920 C 229.256 122.674,230.982 126.596,231.683 127.365 C 232.067 127.786,232.590 128.776,232.845 129.565 C 233.614 131.946,234.836 134.153,235.853 135.000 C 236.557 135.587,236.978 136.600,237.430 138.800 C 238.160 142.349,238.762 143.403,240.276 143.783 C 240.892 143.938,242.677 144.680,244.240 145.432 C 245.804 146.185,247.335 146.806,247.642 146.813 C 247.949 146.819,249.100 147.268,250.200 147.809 C 251.428 148.413,252.895 148.792,254.000 148.792 C 261.300 148.787,277.852 150.443,279.277 151.320 C 281.019 152.391,286.605 153.561,292.000 153.984 C 298.333 154.480,299.571 154.769,303.675 156.707 C 306.667 158.120,307.143 158.585,307.989 160.919 C 308.240 161.612,308.911 162.254,309.749 162.604 C 311.433 163.308,311.574 163.681,311.871 168.204 C 312.231 173.680,311.914 175.061,309.809 177.200 C 308.834 178.190,308.027 179.180,308.015 179.400 C 307.980 180.040,302.727 185.364,301.300 186.206 C 300.585 186.627,300.000 187.177,300.000 187.428 C 300.000 187.679,299.375 188.495,298.612 189.242 C 294.884 192.889,291.174 196.711,290.401 197.700 C 289.929 198.305,289.303 198.800,289.010 198.800 C 288.718 198.800,287.966 199.423,287.339 200.184 C 285.366 202.580,276.053 212.000,275.657 212.000 C 275.449 212.000,274.766 212.638,274.139 213.417 C 273.513 214.197,272.267 215.592,271.372 216.517 C 267.171 220.860,265.753 224.374,266.900 227.601 C 267.330 228.811,268.003 232.680,268.396 236.200 C 269.124 242.717,269.346 244.046,271.005 251.800 C 271.523 254.220,272.043 257.730,272.162 259.600 C 273.092 274.314,273.370 276.069,275.012 277.611 C 276.705 279.202,276.481 283.816,274.640 285.286 C 273.560 286.147,273.220 286.766,272.994 288.286 C 272.488 291.678,271.363 293.183,267.983 294.988 C 266.323 295.875,264.528 296.915,263.994 297.300 C 262.403 298.446,257.790 298.275,255.914 297.000 C 255.105 296.450,254.157 296.000,253.808 296.000 C 253.459 296.000,252.285 295.550,251.200 295.000 C 250.115 294.450,248.983 294.000,248.685 294.000 C 248.388 294.000,247.401 293.364,246.494 292.587 C 244.836 291.168,241.907 290.012,239.949 290.004 C 238.739 289.999,238.179 289.451,237.786 287.887 C 237.477 286.657,236.542 286.000,235.099 286.000 C 233.396 286.000,230.135 284.825,229.156 283.859 C 228.630 283.341,227.284 282.615,226.164 282.247 C 225.044 281.879,223.774 281.268,223.342 280.889 C 221.304 279.101,218.673 277.887,214.872 276.978 C 212.072 276.309,211.918 276.211,211.324 274.728 C 210.615 272.954,210.105 272.608,207.600 272.199 C 206.610 272.038,205.279 271.639,204.643 271.313 C 203.145 270.546,199.179 270.543,197.947 271.308 C 197.426 271.631,195.830 272.112,194.400 272.377 C 192.970 272.642,191.440 272.936,191.000 273.030 C 190.547 273.127,189.853 273.923,189.400 274.867 C 188.625 276.481,188.501 276.557,185.400 277.306 C 182.955 277.896,181.870 278.389,180.800 279.396 C 180.030 280.120,178.950 280.846,178.400 281.009 C 177.437 281.294,175.213 282.670,174.800 283.236 C 174.397 283.789,169.624 285.585,166.926 286.199 C 164.335 286.788,164.116 286.922,163.649 288.215 C 163.056 289.855,162.463 290.224,159.800 290.612 C 157.414 290.960,156.136 291.564,154.830 292.962 C 154.297 293.533,153.526 294.000,153.117 294.000 C 152.038 294.000,149.790 295.010,148.909 295.891 C 146.661 298.139,138.361 298.422,136.261 296.323 C 135.630 295.691,134.526 294.929,133.809 294.630 C 133.093 294.330,131.912 293.346,131.186 292.443 C 130.460 291.539,129.657 290.800,129.401 290.800 C 126.787 290.800,127.188 269.800,129.994 259.708 C 130.436 258.118,131.069 254.068,131.401 250.708 C 131.732 247.349,132.178 243.880,132.392 243.000 C 132.606 242.120,132.785 240.805,132.790 240.078 C 132.796 239.351,133.186 237.911,133.658 236.878 C 136.259 231.181,136.748 219.600,134.387 219.600 C 134.210 219.600,133.348 218.925,132.472 218.100 C 131.596 217.275,130.231 216.097,129.439 215.483 C 128.648 214.869,128.000 214.054,128.000 213.672 C 128.000 212.497,126.863 211.277,125.500 210.987 C 124.050 210.679,122.800 209.743,122.800 208.966 C 122.800 208.207,118.009 203.317,116.445 202.479 C 115.491 201.968,114.899 201.237,114.445 200.010 C 113.892 198.516,113.556 198.185,112.092 197.697 C 110.912 197.304,110.190 196.755,109.761 195.924 C 108.874 194.209,104.728 190.004,103.922 190.002 C 102.870 189.999,101.134 188.289,100.643 186.772 C 100.280 185.649,99.890 185.302,98.489 184.859 C 97.258 184.469,96.597 183.964,96.133 183.059 C 95.779 182.366,94.977 181.212,94.350 180.493 C 93.724 179.774,93.093 178.694,92.949 178.093 C 92.804 177.492,92.261 176.191,91.743 175.203 C 91.224 174.215,90.799 173.045,90.798 172.603 C 90.797 172.161,90.462 171.260,90.055 170.600 C 89.347 169.453,89.345 169.356,90.016 168.396 C 90.402 167.844,90.914 166.674,91.154 165.796 C 91.394 164.918,92.132 163.390,92.793 162.400 C 93.455 161.410,93.997 160.387,93.998 160.127 C 94.001 159.418,97.364 156.800,98.273 156.800 C 98.707 156.800,99.897 156.247,100.918 155.571 C 102.699 154.392,102.983 154.335,108.086 154.139 C 111.009 154.027,113.940 153.752,114.600 153.528 C 115.260 153.305,117.150 152.796,118.800 152.399 C 120.450 152.002,122.550 151.396,123.466 151.052 C 125.020 150.469,132.725 149.676,144.694 148.866 C 148.311 148.621,149.776 148.364,150.311 147.881 C 150.708 147.521,152.101 147.101,153.405 146.948 C 154.709 146.795,156.321 146.356,156.988 145.973 C 157.655 145.589,158.976 145.151,159.925 144.999 C 161.852 144.689,162.159 144.228,163.399 139.790 C 163.928 137.896,164.348 137.200,165.365 136.533 C 166.406 135.851,166.793 135.187,167.350 133.129 C 167.766 131.593,168.592 129.877,169.421 128.830 C 170.179 127.872,170.800 126.666,170.800 126.152 C 170.800 124.512,171.999 122.226,173.292 121.400 C 174.571 120.583,174.622 120.469,176.428 114.400 C 176.985 112.529,177.806 110.831,178.610 109.887 C 179.319 109.055,180.195 107.435,180.557 106.287 C 180.919 105.139,181.846 103.404,182.617 102.432 C 184.011 100.674,184.135 100.365,184.594 97.508 C 184.771 96.401,185.217 95.729,186.317 94.908 C 188.270 93.449,188.637 92.958,189.465 90.694 L 190.162 88.788 193.665 87.737 C 195.822 87.090,197.508 86.324,198.054 85.743 C 199.247 84.473,201.358 84.490,203.263 85.784 M0.000 334.772 C 0.000 338.421,0.070 338.800,0.738 338.800 C 2.132 338.800,4.763 343.872,4.792 346.613 C 4.809 348.330,5.873 351.448,6.808 352.523 C 7.808 353.673,8.783 356.306,8.794 357.884 C 8.800 358.796,10.632 360.800,11.460 360.800 C 11.717 360.800,12.435 362.375,13.054 364.300 C 13.957 367.105,14.511 368.126,15.844 369.441 C 16.760 370.343,17.623 371.442,17.763 371.882 C 17.902 372.323,18.637 373.017,19.395 373.425 C 20.357 373.943,21.026 374.754,21.608 376.107 C 22.292 377.696,22.751 378.179,24.155 378.781 C 25.342 379.289,26.026 379.897,26.382 380.757 C 26.665 381.441,27.059 382.000,27.257 382.000 C 27.455 382.000,28.634 383.001,29.877 384.224 C 31.123 385.451,32.639 386.548,33.259 386.672 C 33.877 386.795,34.971 387.511,35.691 388.262 C 36.922 389.547,41.439 392.000,42.572 392.000 C 42.856 392.000,43.698 392.411,44.444 392.913 C 46.555 394.334,48.564 395.179,50.989 395.666 C 52.701 396.010,53.488 396.422,54.386 397.446 C 55.161 398.328,56.204 398.950,57.478 399.289 C 60.363 400.056,342.319 400.041,344.487 399.273 C 345.304 398.984,346.591 398.129,347.347 397.373 C 348.102 396.618,349.053 395.999,349.460 395.997 C 350.659 395.993,355.819 394.123,357.473 393.094 C 359.363 391.918,362.156 390.800,363.202 390.800 C 363.676 390.800,364.408 390.166,365.045 389.203 C 365.919 387.883,366.610 387.416,369.040 386.503 C 371.348 385.636,372.076 385.164,372.438 384.298 C 372.962 383.045,375.356 380.800,376.168 380.800 C 376.775 380.800,380.800 376.058,380.800 375.343 C 380.800 375.090,381.475 374.313,382.300 373.617 C 385.335 371.055,385.916 370.320,386.588 368.182 C 387.194 366.257,388.386 364.739,389.618 364.327 C 389.826 364.257,390.326 363.300,390.729 362.200 C 391.709 359.528,392.803 357.219,393.668 356.000 C 394.467 354.873,395.987 350.257,395.995 348.931 C 396.001 347.853,398.190 345.600,399.231 345.600 C 399.876 345.600,400.000 345.309,400.000 343.800 C 400.000 339.922,395.645 342.690,394.839 347.081 C 394.604 348.356,394.231 350.382,394.010 351.582 C 393.789 352.782,393.350 353.908,393.035 354.084 C 392.242 354.528,390.800 356.940,390.800 357.821 C 390.800 358.221,390.463 358.920,390.051 359.374 C 389.004 360.527,386.000 366.379,386.000 367.264 C 386.000 367.716,385.429 368.262,384.500 368.697 C 383.568 369.134,382.736 369.930,382.303 370.800 C 381.920 371.570,380.894 372.860,380.023 373.666 C 379.152 374.472,378.170 375.777,377.840 376.566 C 377.510 377.355,377.007 378.001,376.720 378.003 C 376.434 378.005,375.390 378.817,374.400 379.808 C 373.410 380.799,371.904 381.982,371.053 382.437 C 370.132 382.929,369.329 383.735,369.067 384.429 C 368.731 385.319,368.178 385.742,366.716 386.228 C 365.665 386.577,364.669 387.095,364.502 387.380 C 364.210 387.879,359.548 390.231,356.915 391.208 C 356.208 391.470,355.116 392.176,354.489 392.776 C 353.592 393.632,352.665 393.976,350.173 394.377 C 346.406 394.984,344.302 395.965,343.364 397.553 C 342.345 399.279,349.967 399.191,201.156 399.196 C 51.677 399.200,59.212 399.289,58.424 397.510 C 57.756 396.000,55.617 395.028,51.633 394.423 C 49.149 394.045,48.418 393.748,47.143 392.596 C 46.305 391.839,45.121 391.111,44.510 390.978 C 42.502 390.539,41.015 389.845,40.000 388.873 C 38.881 387.802,36.023 386.394,34.200 386.017 C 33.381 385.848,32.835 385.393,32.479 384.584 C 31.533 382.432,31.357 382.252,29.630 381.677 C 28.448 381.283,27.676 380.696,27.138 379.784 C 26.709 379.058,25.731 377.985,24.964 377.400 C 24.197 376.815,23.132 375.643,22.597 374.796 C 22.063 373.949,21.138 373.018,20.542 372.728 C 19.923 372.426,19.306 371.686,19.100 371.000 C 18.427 368.748,17.887 368.042,16.378 367.438 C 14.520 366.694,14.533 366.715,14.031 363.598 C 13.705 361.577,13.345 360.763,12.276 359.628 C 11.537 358.842,10.702 357.390,10.421 356.400 C 9.773 354.116,8.105 350.800,7.604 350.800 C 7.166 350.800,6.168 347.455,5.814 344.800 C 5.289 340.864,4.690 337.979,4.354 337.771 C 4.159 337.651,3.992 336.978,3.983 336.276 C 3.961 334.548,1.919 331.036,0.842 330.872 C 0.033 330.749,0.000 330.904,0.000 334.772 " stroke="none" fill="#fc8885" fill-rule="evenodd"></path><path id="path3" d="M61.063 1.185 C 60.798 2.508,58.869 3.726,56.263 4.215 C 55.438 4.369,54.857 4.590,54.971 4.705 C 56.242 5.975,62.000 2.663,62.000 0.662 C 62.000 -0.455,61.314 -0.072,61.063 1.185 M339.673 1.100 C 339.816 2.341,343.014 4.223,345.600 4.588 L 347.000 4.786 345.589 4.293 C 343.034 3.401,340.400 1.619,340.400 0.783 C 340.400 0.352,340.208 0.000,339.973 0.000 C 339.739 0.000,339.604 0.495,339.673 1.100 M51.187 5.556 C 49.423 6.187,46.686 8.000,47.497 8.000 C 47.720 8.000,48.128 7.728,48.403 7.396 C 48.679 7.064,49.826 6.521,50.952 6.190 C 53.179 5.535,54.696 4.773,53.600 4.860 C 53.270 4.886,52.184 5.199,51.187 5.556 M349.143 5.411 C 350.322 5.698,351.762 6.376,352.343 6.918 C 353.360 7.865,357.398 9.136,357.875 8.658 C 358.002 8.531,357.351 8.306,356.428 8.158 C 355.504 8.010,354.085 7.433,353.274 6.874 C 351.483 5.641,349.347 4.826,348.000 4.862 C 347.445 4.877,347.955 5.121,349.143 5.411 M45.000 8.400 L 44.200 8.744 45.000 8.766 C 45.440 8.778,46.070 8.613,46.400 8.400 C 47.195 7.886,46.196 7.886,45.000 8.400 M42.014 9.094 C 41.261 9.390,40.031 10.858,40.013 11.480 C 40.006 11.744,39.685 12.160,39.300 12.403 C 38.824 12.705,38.792 12.798,39.200 12.695 C 39.530 12.612,40.160 11.980,40.600 11.291 C 41.040 10.602,42.030 9.769,42.800 9.440 C 44.135 8.869,43.404 8.547,42.014 9.094 M359.572 9.700 C 359.994 10.195,360.668 11.004,361.070 11.499 C 361.481 12.005,362.412 12.483,363.200 12.593 L 364.600 12.788 363.284 12.332 C 362.560 12.081,361.420 11.183,360.751 10.338 C 360.081 9.492,359.369 8.800,359.169 8.800 C 358.969 8.800,359.150 9.205,359.572 9.700 M35.376 13.430 C 34.949 13.776,34.854 13.927,35.165 13.766 C 35.476 13.604,36.286 13.339,36.965 13.177 C 38.100 12.906,38.118 12.879,37.176 12.841 C 36.614 12.818,35.804 13.083,35.376 13.430 M31.996 15.850 C 31.026 16.867,29.760 17.865,29.182 18.066 C 28.604 18.268,27.553 19.280,26.847 20.316 L 25.564 22.200 27.082 20.568 C 27.917 19.671,29.283 18.591,30.119 18.168 C 30.954 17.746,31.898 17.003,32.216 16.518 C 32.535 16.033,33.190 15.268,33.673 14.818 C 34.156 14.368,34.373 14.000,34.155 14.000 C 33.937 14.000,32.965 14.832,31.996 15.850 M368.740 15.104 C 369.246 15.821,370.124 16.721,370.690 17.104 C 371.257 17.487,372.236 18.317,372.866 18.949 C 373.497 19.581,373.906 19.820,373.775 19.480 C 373.645 19.140,372.251 17.723,370.679 16.331 C 368.591 14.483,368.068 14.152,368.740 15.104 M374.416 21.019 C 374.671 21.327,375.515 21.698,376.290 21.843 C 377.291 22.031,377.887 22.452,378.349 23.298 C 379.578 25.546,380.543 26.419,379.566 24.400 C 378.620 22.442,378.262 22.142,375.675 21.132 C 374.343 20.612,374.056 20.586,374.416 21.019 M23.267 22.276 C 22.973 22.393,22.411 23.234,22.016 24.144 C 21.621 25.055,20.556 26.551,19.649 27.469 C 18.742 28.386,18.000 29.400,18.000 29.722 C 18.000 30.044,17.124 31.183,16.054 32.254 C 14.055 34.253,13.184 35.550,13.221 36.474 C 13.232 36.763,13.521 36.325,13.863 35.500 C 14.206 34.675,14.627 34.000,14.800 34.000 C 15.507 34.000,17.651 31.564,18.591 29.693 C 19.142 28.595,20.049 27.398,20.606 27.033 C 21.163 26.668,21.906 25.650,22.258 24.772 C 22.610 23.893,23.370 22.918,23.948 22.603 C 24.940 22.065,24.421 21.815,23.267 22.276 M380.812 26.300 C 380.805 26.575,380.976 26.800,381.192 26.800 C 381.407 26.800,381.943 27.505,382.383 28.366 C 382.822 29.228,383.746 30.334,384.435 30.825 C 385.124 31.316,385.931 32.276,386.228 32.959 C 386.525 33.641,386.769 33.930,386.770 33.600 C 386.772 32.808,386.081 31.710,384.506 30.000 C 383.796 29.230,382.677 27.970,382.020 27.200 C 381.362 26.430,380.818 26.025,380.812 26.300 M387.790 36.200 C 388.392 37.300,389.245 38.541,389.687 38.958 C 390.129 39.375,390.827 40.455,391.237 41.358 C 391.647 42.261,391.986 42.757,391.991 42.460 C 392.003 41.758,390.776 39.149,390.115 38.471 C 389.832 38.181,389.593 37.821,389.583 37.671 C 389.574 37.522,388.921 36.680,388.132 35.800 L 386.697 34.200 387.790 36.200 M12.400 39.485 C 12.400 39.715,11.852 40.130,11.181 40.408 C 9.937 40.923,8.798 42.586,8.802 43.880 C 8.804 44.364,9.003 44.207,9.411 43.400 C 9.744 42.740,10.684 41.626,11.499 40.924 C 12.314 40.222,12.850 39.517,12.691 39.357 C 12.531 39.197,12.400 39.255,12.400 39.485 M392.000 43.638 C 392.000 43.989,392.717 45.343,393.593 46.648 C 394.610 48.161,395.335 49.814,395.596 51.210 C 396.200 54.438,400.000 58.940,400.000 56.428 C 400.000 56.193,399.760 56.000,399.466 56.000 C 398.316 56.000,396.000 52.595,396.000 50.905 C 396.000 50.296,395.100 48.269,394.000 46.400 C 392.900 44.531,392.000 43.288,392.000 43.638 M8.262 45.992 C 8.110 46.750,7.561 47.828,7.042 48.386 C 6.091 49.408,4.532 53.466,4.936 53.869 C 5.055 53.988,5.457 53.032,5.830 51.743 C 6.202 50.454,6.936 48.967,7.461 48.437 C 8.458 47.432,8.999 45.996,8.708 45.123 C 8.614 44.842,8.413 45.233,8.262 45.992 M4.192 56.473 C 3.693 59.480,2.302 61.600,0.829 61.600 C 0.373 61.600,0.000 61.780,0.000 62.000 C 0.000 62.742,1.530 62.407,2.723 61.403 C 3.850 60.455,5.330 55.597,4.688 54.955 C 4.573 54.840,4.350 55.523,4.192 56.473 M198.079 85.700 C 197.585 86.195,196.330 86.916,195.290 87.303 C 194.185 87.714,193.899 87.912,194.600 87.780 C 195.260 87.655,196.520 87.216,197.400 86.805 C 199.408 85.865,201.237 85.680,202.456 86.291 C 203.699 86.914,207.576 88.010,208.373 87.964 C 208.718 87.944,208.032 87.665,206.850 87.344 C 205.667 87.023,204.050 86.319,203.257 85.780 C 201.396 84.516,199.294 84.483,198.079 85.700 M210.469 88.607 C 210.837 89.043,211.259 89.888,211.408 90.484 C 211.691 91.618,212.308 92.281,213.743 92.995 C 214.214 93.230,214.906 94.047,215.281 94.811 C 215.655 95.575,215.970 96.047,215.981 95.860 C 216.032 94.947,214.652 92.885,213.554 92.236 C 212.876 91.836,212.079 90.929,211.783 90.222 C 211.488 89.515,210.921 88.684,210.523 88.375 C 209.837 87.843,209.835 87.855,210.469 88.607 M188.900 91.897 C 188.341 93.081,187.398 94.214,186.401 94.896 C 185.520 95.499,184.803 96.219,184.806 96.496 C 184.810 96.827,184.913 96.855,185.106 96.579 C 185.268 96.347,186.087 95.642,186.926 95.011 C 188.395 93.908,190.180 91.141,189.922 90.367 C 189.854 90.162,189.394 90.850,188.900 91.897 M216.240 97.866 C 216.608 99.399,216.800 99.544,216.800 98.290 C 216.800 97.717,216.613 97.132,216.384 96.990 C 216.111 96.821,216.062 97.123,216.240 97.866 M184.464 98.326 C 184.391 99.848,183.928 100.827,182.351 102.800 C 181.735 103.570,180.927 105.144,180.556 106.298 C 180.184 107.452,179.287 109.089,178.563 109.934 C 177.840 110.780,177.132 111.996,176.991 112.636 C 176.776 113.612,176.906 113.509,177.799 112.000 C 178.385 111.010,179.107 110.064,179.402 109.897 C 179.698 109.730,180.158 108.920,180.425 108.097 C 180.934 106.527,182.663 103.094,184.041 100.917 C 184.574 100.077,184.797 99.181,184.691 98.317 L 184.528 97.000 184.464 98.326 M216.800 99.938 C 216.800 100.142,217.207 100.574,217.704 100.900 C 218.774 101.602,219.404 102.763,220.016 105.163 C 220.263 106.133,220.989 107.450,221.629 108.090 C 222.269 108.730,223.064 109.642,223.396 110.116 C 223.728 110.590,224.000 110.778,224.000 110.533 C 224.000 110.288,223.274 109.213,222.387 108.144 C 221.489 107.062,220.509 105.297,220.177 104.165 C 219.849 103.046,219.234 101.786,218.810 101.365 C 217.460 100.027,216.800 99.558,216.800 99.938 M224.800 115.993 C 224.800 116.227,225.495 117.179,226.345 118.109 C 227.194 119.039,228.100 120.430,228.358 121.200 C 228.617 121.970,229.104 123.050,229.442 123.600 C 229.838 124.246,229.954 124.317,229.769 123.800 C 229.611 123.360,229.140 121.985,228.720 120.745 C 228.024 118.684,224.800 114.776,224.800 115.993 M175.196 118.484 C 174.745 120.069,174.284 120.783,173.319 121.392 C 171.996 122.228,170.773 124.549,170.836 126.108 C 170.855 126.599,171.111 126.130,171.403 125.066 C 171.695 124.003,171.994 123.089,172.067 123.037 C 172.140 122.984,172.771 122.547,173.470 122.065 C 174.685 121.226,176.274 117.821,175.930 116.790 C 175.855 116.566,175.525 117.329,175.196 118.484 M230.027 125.430 C 230.012 125.887,230.452 126.686,231.005 127.205 C 231.608 127.771,232.346 129.274,232.847 130.959 C 233.641 133.623,236.082 136.857,236.772 136.159 C 236.897 136.032,236.526 135.539,235.946 135.064 C 234.847 134.164,233.637 132.018,232.845 129.565 C 232.590 128.776,232.068 127.786,231.685 127.365 C 231.303 126.944,230.779 126.150,230.522 125.600 C 230.098 124.693,230.052 124.677,230.027 125.430 M169.329 128.940 C 168.630 129.854,167.740 131.748,167.350 133.149 C 166.786 135.179,166.381 135.867,165.357 136.538 C 164.531 137.080,163.907 137.934,163.608 138.932 C 163.352 139.785,163.053 140.780,162.944 141.142 C 162.834 141.504,163.021 141.350,163.358 140.800 C 163.696 140.250,163.978 139.500,163.986 139.134 C 163.994 138.767,164.702 137.802,165.560 136.989 C 166.689 135.920,167.296 134.884,167.757 133.238 C 168.108 131.987,168.958 130.199,169.646 129.263 C 171.271 127.054,170.990 126.767,169.329 128.940 M238.000 142.235 C 238.000 143.106,239.066 143.960,240.683 144.382 C 241.609 144.624,242.479 145.004,242.616 145.226 C 243.213 146.192,249.889 148.810,251.720 148.796 C 252.376 148.791,248.341 146.828,247.642 146.813 C 247.335 146.806,245.804 146.185,244.240 145.432 C 242.677 144.680,240.898 143.940,240.289 143.787 C 239.680 143.634,238.916 143.129,238.591 142.665 C 238.266 142.201,238.000 142.008,238.000 142.235 M159.693 145.003 C 158.534 145.286,157.184 145.778,156.693 146.096 C 156.202 146.415,154.728 146.799,153.417 146.951 C 152.106 147.102,150.756 147.467,150.417 147.761 C 150.078 148.055,149.530 148.411,149.200 148.552 C 148.870 148.693,149.050 148.708,149.600 148.584 C 150.150 148.461,151.827 148.192,153.328 147.987 C 154.836 147.781,156.536 147.273,157.131 146.849 C 157.723 146.427,158.963 145.879,159.887 145.630 C 160.810 145.382,161.674 145.003,161.807 144.789 C 161.939 144.575,161.992 144.420,161.924 144.444 C 161.856 144.469,160.852 144.720,159.693 145.003 M144.300 149.089 C 145.015 149.178,146.185 149.178,146.900 149.089 C 147.615 149.001,147.030 148.928,145.600 148.928 C 144.170 148.928,143.585 149.001,144.300 149.089 M137.891 149.489 C 138.601 149.577,139.861 149.579,140.691 149.492 C 141.521 149.405,140.940 149.333,139.400 149.331 C 137.860 149.329,137.181 149.400,137.891 149.489 M260.707 149.490 C 261.426 149.579,262.506 149.577,263.107 149.486 C 263.708 149.395,263.120 149.322,261.800 149.324 C 260.480 149.326,259.988 149.401,260.707 149.490 M132.900 149.887 C 133.505 149.978,134.495 149.978,135.100 149.887 C 135.705 149.795,135.210 149.720,134.000 149.720 C 132.790 149.720,132.295 149.795,132.900 149.887 M266.500 149.891 C 267.325 149.978,268.675 149.978,269.500 149.891 C 270.325 149.805,269.650 149.734,268.000 149.734 C 266.350 149.734,265.675 149.805,266.500 149.891 M125.681 150.446 C 124.516 150.640,123.074 151.052,122.476 151.361 C 121.879 151.670,120.222 152.150,118.795 152.428 C 117.368 152.706,115.660 153.179,115.000 153.479 C 112.057 154.816,119.689 153.262,125.400 151.362 C 129.452 150.014,129.515 149.808,125.681 150.446 M274.200 150.611 C 275.520 150.895,277.734 151.605,279.121 152.188 C 282.026 153.410,285.255 154.020,288.400 153.939 L 290.600 153.883 287.800 153.584 C 284.899 153.274,279.879 151.930,279.048 151.240 C 278.545 150.822,273.953 149.975,272.600 150.051 C 272.160 150.075,272.880 150.328,274.200 150.611 M104.000 154.376 C 103.010 154.524,101.500 155.130,100.644 155.722 C 99.788 156.315,98.727 156.800,98.285 156.800 C 97.368 156.800,94.001 159.413,93.998 160.127 C 93.997 160.387,93.455 161.410,92.793 162.400 C 92.132 163.390,91.394 164.920,91.154 165.800 C 90.914 166.680,90.396 167.842,90.004 168.382 C 89.362 169.266,89.350 169.457,89.886 170.274 C 90.213 170.775,90.643 171.903,90.840 172.782 C 91.038 173.661,91.579 174.969,92.042 175.690 C 92.506 176.410,92.754 176.640,92.593 176.200 C 92.433 175.760,92.150 174.637,91.964 173.705 C 91.778 172.773,91.339 171.455,90.988 170.776 C 90.389 169.618,90.400 169.445,91.175 167.959 C 91.629 167.088,92.000 165.934,92.000 165.395 C 92.000 162.898,95.554 158.421,98.400 157.334 C 99.390 156.955,100.742 156.242,101.403 155.749 C 102.347 155.046,103.472 154.772,106.603 154.481 C 109.594 154.204,109.996 154.110,108.200 154.109 C 106.880 154.108,104.990 154.228,104.000 154.376 M294.600 154.428 C 301.151 155.487,306.076 157.752,307.161 160.204 C 307.660 161.333,308.486 162.297,309.506 162.941 C 312.325 164.720,312.572 174.916,309.832 176.383 C 309.320 176.657,308.530 177.537,308.076 178.340 C 307.621 179.143,306.518 180.580,305.625 181.534 C 304.731 182.487,304.000 183.416,304.000 183.598 C 304.000 183.780,303.170 184.330,302.156 184.821 C 300.888 185.435,300.145 186.113,299.779 186.989 C 299.486 187.690,298.966 188.496,298.623 188.781 C 298.280 189.065,298.001 189.501,298.002 189.749 C 298.004 190.302,299.965 187.966,299.986 187.386 C 299.994 187.159,300.585 186.627,301.300 186.206 C 302.727 185.364,307.980 180.040,308.015 179.400 C 308.027 179.180,308.834 178.190,309.809 177.200 C 311.914 175.061,312.231 173.680,311.871 168.204 C 311.574 163.681,311.433 163.308,309.749 162.604 C 308.911 162.254,308.240 161.612,307.989 160.919 C 307.143 158.585,306.667 158.120,303.675 156.705 C 300.062 154.996,298.330 154.515,294.800 154.242 L 292.200 154.040 294.600 154.428 M92.805 177.526 C 92.802 177.816,93.006 178.446,93.259 178.926 C 93.882 180.114,96.000 182.521,96.000 182.042 C 96.000 181.831,95.723 181.380,95.384 181.041 C 95.045 180.702,94.327 179.654,93.789 178.712 C 93.250 177.771,92.807 177.237,92.805 177.526 M96.378 183.473 C 96.784 184.314,98.249 185.084,98.660 184.673 C 98.770 184.563,98.442 184.340,97.932 184.178 C 97.421 184.016,96.767 183.595,96.479 183.242 C 96.031 182.692,96.016 182.725,96.378 183.473 M99.900 185.533 C 100.698 186.369,101.009 186.321,100.662 185.417 C 100.532 185.078,100.149 184.800,99.813 184.800 C 99.294 184.800,99.308 184.913,99.900 185.533 M100.806 187.264 C 100.799 188.072,103.002 190.000,103.931 189.999 C 104.299 189.999,103.973 189.684,103.206 189.299 C 102.439 188.915,101.586 188.150,101.311 187.600 C 100.977 186.930,100.810 186.820,100.806 187.264 M105.438 190.894 C 105.857 191.385,106.698 192.241,107.307 192.795 C 107.916 193.349,108.770 194.342,109.205 195.001 C 109.639 195.661,109.995 196.020,109.995 195.800 C 109.995 195.159,108.737 193.526,106.836 191.697 C 104.934 189.867,104.206 189.448,105.438 190.894 M293.438 193.652 C 291.547 195.660,290.000 197.446,290.000 197.621 C 290.000 197.795,289.367 198.147,288.593 198.402 C 287.730 198.687,286.957 199.310,286.593 200.013 C 285.705 201.730,285.866 201.780,287.241 200.214 C 287.924 199.436,288.721 198.800,289.012 198.800 C 289.304 198.800,289.928 198.305,290.399 197.700 C 290.871 197.095,292.709 195.115,294.484 193.300 C 296.259 191.485,297.523 190.000,297.293 190.000 C 297.063 190.000,295.328 191.643,293.438 193.652 M110.224 196.838 C 110.339 197.025,111.170 197.398,112.069 197.668 C 113.276 198.030,113.845 198.478,114.237 199.379 C 114.662 200.355,114.772 200.432,114.784 199.762 C 114.793 199.301,114.485 198.640,114.100 198.293 C 113.320 197.590,109.893 196.304,110.224 196.838 M281.587 205.591 C 279.531 207.566,277.949 209.282,278.071 209.404 C 278.192 209.526,280.022 207.910,282.136 205.813 C 284.250 203.716,285.832 202.000,285.652 202.000 C 285.472 202.000,283.643 203.616,281.587 205.591 M118.687 204.100 C 121.217 206.912,122.800 208.439,122.800 208.068 C 122.800 207.854,121.709 206.581,120.376 205.240 C 117.799 202.647,116.731 201.926,118.687 204.100 M122.800 209.049 C 122.800 209.729,124.302 210.903,124.877 210.673 C 125.226 210.533,125.175 210.453,124.723 210.432 C 124.350 210.414,123.765 210.000,123.423 209.511 C 123.080 209.022,122.800 208.814,122.800 209.049 M126.266 211.200 C 126.742 211.392,127.322 211.875,127.554 212.274 C 127.786 212.674,127.981 212.803,127.988 212.562 C 128.005 211.954,126.657 210.795,125.969 210.825 C 125.656 210.839,125.790 211.008,126.266 211.200 M274.902 211.833 C 274.024 212.217,273.339 212.965,272.785 214.142 C 272.335 215.099,271.550 216.106,271.039 216.379 C 269.882 216.998,266.288 222.115,265.648 224.055 C 265.155 225.548,265.173 225.636,266.695 229.143 C 267.274 230.476,267.671 232.849,268.343 239.000 C 268.536 240.760,268.707 241.480,268.723 240.600 C 268.779 237.640,267.680 229.819,266.896 227.601 C 265.755 224.372,267.174 220.857,271.372 216.517 C 272.267 215.592,273.513 214.197,274.139 213.417 C 274.766 212.638,275.520 212.000,275.816 212.000 C 276.111 212.000,276.464 211.820,276.600 211.600 C 276.922 211.078,276.492 211.137,274.902 211.833 M128.014 213.683 C 128.006 214.059,128.648 214.869,129.439 215.483 C 130.231 216.097,131.596 217.275,132.472 218.100 C 133.348 218.925,134.208 219.600,134.383 219.600 C 134.557 219.600,134.988 220.185,135.341 220.900 C 135.791 221.813,135.984 221.973,135.991 221.436 C 136.000 220.652,133.436 218.032,130.600 215.930 C 129.720 215.277,128.781 214.351,128.514 213.872 C 128.126 213.175,128.026 213.137,128.014 213.683 M135.646 229.200 C 135.537 231.257,134.636 234.735,133.658 236.878 C 133.186 237.911,132.796 239.351,132.790 240.078 C 132.785 240.805,132.606 242.120,132.392 243.000 C 132.178 243.880,131.734 247.325,131.406 250.656 C 131.077 253.986,130.357 258.396,129.805 260.456 C 128.822 264.127,128.373 267.778,129.246 265.000 C 130.325 261.569,131.574 254.696,131.972 250.000 C 132.348 245.565,133.628 238.655,134.380 237.000 C 135.028 235.575,136.058 230.036,135.887 228.902 C 135.740 227.935,135.711 227.971,135.646 229.200 M269.011 243.800 C 269.472 247.565,270.027 250.920,270.248 251.278 C 270.379 251.490,270.807 252.954,271.199 254.531 C 271.591 256.109,271.932 257.077,271.956 256.682 C 271.980 256.287,271.550 254.145,271.000 251.922 C 270.450 249.700,269.986 247.323,269.969 246.640 C 269.952 245.958,269.686 244.680,269.377 243.800 L 268.815 242.200 269.011 243.800 M272.114 263.000 C 272.117 264.100,272.195 264.503,272.287 263.895 C 272.379 263.286,272.377 262.386,272.282 261.895 C 272.187 261.403,272.111 261.900,272.114 263.000 M272.520 267.200 C 272.520 268.410,272.595 268.905,272.687 268.300 C 272.778 267.695,272.778 266.705,272.687 266.100 C 272.595 265.495,272.520 265.990,272.520 267.200 M128.200 268.800 C 128.044 270.147,128.006 271.339,128.116 271.449 C 128.226 271.559,128.444 270.547,128.600 269.200 C 128.756 267.853,128.794 266.661,128.684 266.551 C 128.574 266.441,128.356 267.453,128.200 268.800 M197.400 271.031 C 196.520 271.557,196.075 271.990,196.411 271.993 C 196.747 271.997,197.433 271.712,197.936 271.360 C 199.165 270.499,203.084 270.513,204.770 271.384 C 205.476 271.750,206.250 271.983,206.489 271.904 C 207.345 271.618,202.296 270.001,200.664 270.038 C 199.680 270.060,198.346 270.466,197.400 271.031 M273.001 273.954 C 273.125 276.231,273.350 277.109,273.981 277.780 C 275.256 279.137,275.150 283.268,273.800 284.873 C 273.143 285.654,272.821 286.496,272.860 287.331 C 272.917 288.546,272.927 288.553,273.087 287.496 C 273.185 286.849,273.823 285.937,274.627 285.296 C 276.380 283.896,276.717 279.173,275.163 277.766 C 273.943 276.662,273.514 275.688,273.157 273.210 C 272.864 271.175,272.852 271.233,273.001 273.954 M192.800 272.400 C 192.008 272.654,191.967 272.720,192.600 272.720 C 193.040 272.720,193.850 272.576,194.400 272.400 C 195.192 272.146,195.233 272.080,194.600 272.080 C 194.160 272.080,193.350 272.224,192.800 272.400 M189.171 274.572 C 188.740 275.546,188.117 276.428,187.786 276.531 C 187.375 276.659,187.409 276.698,187.892 276.655 C 188.281 276.619,188.960 275.873,189.400 274.995 C 189.840 274.118,190.380 273.268,190.600 273.106 C 190.844 272.927,190.797 272.810,190.478 272.806 C 190.190 272.803,189.602 273.597,189.171 274.572 M211.187 274.470 C 211.951 276.178,212.713 276.751,214.200 276.736 C 214.660 276.731,214.448 276.569,213.701 276.353 C 212.777 276.086,212.239 275.590,211.841 274.638 C 211.534 273.901,211.089 273.179,210.853 273.033 C 210.618 272.887,210.768 273.534,211.187 274.470 M127.765 280.000 C 127.765 283.850,127.825 285.425,127.898 283.500 C 127.971 281.575,127.971 278.425,127.898 276.500 C 127.825 274.575,127.765 276.150,127.765 280.000 M183.600 277.400 C 181.733 278.119,182.539 278.133,184.800 277.421 C 185.790 277.109,186.240 276.855,185.800 276.857 C 185.360 276.859,184.370 277.103,183.600 277.400 M180.634 278.930 C 180.123 279.441,179.013 280.187,178.169 280.588 C 177.324 280.989,175.636 281.957,174.416 282.740 C 173.197 283.523,171.120 284.568,169.800 285.061 C 168.480 285.555,167.640 285.968,167.933 285.979 C 168.597 286.005,174.507 283.659,174.792 283.256 C 175.235 282.629,177.498 281.241,178.476 280.995 C 179.421 280.758,182.537 278.000,181.860 278.000 C 181.697 278.000,181.145 278.418,180.634 278.930 M220.562 279.000 C 221.372 279.550,222.125 280.000,222.234 280.000 C 222.344 280.000,222.815 280.355,223.280 280.789 C 223.746 281.223,225.044 281.877,226.164 282.243 C 227.284 282.609,228.540 283.264,228.957 283.698 C 229.760 284.537,232.030 285.619,232.887 285.572 C 233.169 285.556,232.683 285.281,231.808 284.961 C 230.932 284.640,229.663 283.843,228.989 283.189 C 228.314 282.535,227.401 282.000,226.959 282.000 C 226.518 282.000,225.280 281.415,224.209 280.700 C 221.863 279.134,219.928 278.045,219.444 278.019 C 219.248 278.009,219.751 278.450,220.562 279.000 M234.100 285.876 C 234.485 285.976,235.115 285.976,235.500 285.876 C 235.885 285.775,235.570 285.693,234.800 285.693 C 234.030 285.693,233.715 285.775,234.100 285.876 M164.010 286.790 C 163.576 287.224,163.106 288.034,162.967 288.590 C 162.795 289.276,162.311 289.716,161.457 289.964 C 160.461 290.252,160.387 290.335,161.100 290.364 C 162.177 290.407,163.485 289.196,163.825 287.842 C 164.002 287.137,164.482 286.753,165.535 286.473 C 166.853 286.122,166.890 286.079,165.900 286.041 C 165.292 286.018,164.447 286.353,164.010 286.790 M236.869 286.379 C 237.237 286.613,237.653 287.331,237.794 287.975 C 238.120 289.456,238.901 290.110,240.078 289.885 C 240.947 289.719,240.940 289.706,239.968 289.654 C 239.169 289.612,238.764 289.223,238.168 287.925 C 237.746 287.004,237.130 286.183,236.800 286.102 C 236.354 285.992,236.372 286.063,236.869 286.379 M128.044 288.800 C 128.023 289.478,128.923 290.800,129.406 290.800 C 129.581 290.800,129.450 290.485,129.114 290.100 C 128.779 289.715,128.405 289.130,128.284 288.800 C 128.088 288.267,128.061 288.267,128.044 288.800 M242.200 290.400 C 242.640 290.589,243.270 290.744,243.600 290.744 C 243.978 290.744,243.904 290.617,243.400 290.400 C 242.960 290.211,242.330 290.056,242.000 290.056 C 241.622 290.056,241.696 290.183,242.200 290.400 M130.737 291.883 C 131.756 293.347,133.477 294.800,134.193 294.800 C 134.459 294.800,135.297 295.402,136.054 296.137 C 138.397 298.413,146.542 298.258,148.907 295.893 C 149.325 295.475,150.237 294.885,150.933 294.582 C 151.800 294.205,151.959 294.026,151.438 294.016 C 151.019 294.007,150.119 294.423,149.438 294.940 C 146.199 297.400,138.611 297.770,136.127 295.590 C 135.382 294.935,134.591 294.400,134.369 294.400 C 134.147 294.400,133.038 293.545,131.905 292.500 C 130.193 290.922,129.996 290.817,130.737 291.883 M155.102 292.143 C 154.134 292.881,153.086 293.587,152.771 293.711 C 152.395 293.860,152.486 293.948,153.038 293.968 C 153.499 293.986,154.219 293.614,154.638 293.143 C 155.057 292.671,155.940 291.952,156.600 291.544 C 157.260 291.137,157.589 290.802,157.331 290.801 C 157.072 290.801,156.070 291.404,155.102 292.143 M246.249 292.400 C 247.314 293.280,248.420 294.000,248.706 294.000 C 248.992 294.000,250.115 294.450,251.200 295.000 C 252.285 295.550,253.459 296.000,253.808 296.000 C 254.157 296.000,255.105 296.450,255.914 297.000 C 257.835 298.305,262.511 298.453,264.046 297.257 C 264.571 296.848,266.308 295.839,267.906 295.015 C 270.566 293.644,272.000 292.398,272.000 291.457 C 272.000 291.256,271.622 291.573,271.160 292.161 C 270.697 292.748,269.066 293.848,267.534 294.605 C 266.002 295.362,264.238 296.346,263.613 296.791 C 262.015 297.928,259.107 297.870,256.797 296.655 C 255.809 296.134,254.280 295.489,253.400 295.221 C 252.520 294.952,250.850 294.298,249.689 293.766 C 248.528 293.235,247.485 292.800,247.372 292.800 C 247.258 292.800,246.680 292.350,246.087 291.800 C 245.493 291.250,244.852 290.800,244.661 290.800 C 244.469 290.800,245.184 291.520,246.249 292.400 M0.000 339.400 C 0.000 339.732,0.355 340.000,0.793 340.000 C 1.638 340.000,3.238 342.708,4.211 345.786 C 4.491 346.674,4.735 347.040,4.752 346.600 C 4.797 345.432,2.962 340.442,2.162 339.558 C 1.343 338.653,0.000 338.555,0.000 339.400 M397.231 346.831 C 396.554 347.508,396.000 348.466,396.000 348.960 C 396.000 349.453,395.710 350.709,395.355 351.750 C 395.000 352.792,394.794 353.727,394.897 353.830 C 394.999 353.933,395.491 352.708,395.988 351.108 C 396.950 348.016,398.077 346.400,399.270 346.400 C 399.671 346.400,400.000 346.220,400.000 346.000 C 400.000 345.171,398.415 345.646,397.231 346.831 M4.828 349.000 C 4.814 349.660,5.207 350.813,5.701 351.563 C 7.807 354.757,7.996 354.990,7.998 354.396 C 7.999 354.064,7.514 353.268,6.921 352.628 C 6.327 351.988,5.620 350.640,5.348 349.632 C 4.927 348.069,4.850 347.976,4.828 349.000 M393.819 355.709 C 392.642 357.655,390.961 361.261,390.659 362.489 C 390.511 363.087,390.103 363.807,389.751 364.089 C 387.848 365.609,386.803 366.819,386.832 367.469 C 386.853 367.963,386.995 367.840,387.268 367.089 C 387.509 366.431,388.291 365.664,389.189 365.205 C 390.408 364.584,390.760 364.140,390.985 362.938 C 391.282 361.356,392.783 358.137,394.083 356.294 C 394.512 355.686,394.804 355.015,394.731 354.803 C 394.659 354.591,394.249 354.999,393.819 355.709 M8.056 355.800 C 8.056 356.240,8.211 356.960,8.400 357.400 L 8.744 358.200 8.744 357.400 C 8.744 356.960,8.589 356.240,8.400 355.800 L 8.056 355.000 8.056 355.800 M8.800 359.163 C 8.800 359.381,9.456 360.060,10.258 360.671 C 11.060 361.283,11.953 362.327,12.242 362.992 C 12.884 364.465,12.968 363.802,12.361 362.060 C 12.119 361.367,11.713 360.800,11.457 360.800 C 11.201 360.800,10.499 360.343,9.896 359.784 C 9.293 359.225,8.800 358.946,8.800 359.163 M13.029 365.200 C 13.176 365.750,13.464 366.470,13.667 366.800 C 13.925 367.217,13.957 367.095,13.771 366.400 C 13.624 365.850,13.336 365.130,13.133 364.800 C 12.875 364.383,12.843 364.505,13.029 365.200 M15.700 369.956 C 16.745 371.128,17.600 372.232,17.600 372.411 C 17.600 372.589,18.227 373.122,18.994 373.596 C 19.858 374.130,20.687 375.134,21.175 376.237 C 21.679 377.377,22.425 378.264,23.254 378.708 C 23.964 379.088,24.877 379.760,25.283 380.200 C 25.689 380.640,26.515 381.540,27.121 382.200 C 29.217 384.487,31.429 386.322,30.737 385.200 C 30.398 384.650,29.388 383.660,28.493 383.000 C 27.597 382.340,26.640 381.286,26.366 380.657 C 26.043 379.917,25.265 379.257,24.155 378.781 C 22.751 378.179,22.292 377.696,21.608 376.107 C 21.048 374.805,20.351 373.940,19.487 373.473 C 18.779 373.091,17.798 372.078,17.306 371.221 C 16.815 370.364,15.825 369.250,15.106 368.745 C 13.971 367.946,14.048 368.105,15.700 369.956 M384.911 371.303 C 384.456 371.796,383.344 372.795,382.442 373.523 C 381.539 374.250,380.800 375.073,380.800 375.351 C 380.800 375.629,380.125 376.648,379.300 377.617 C 378.017 379.122,377.960 379.263,378.905 378.589 C 379.513 378.155,380.463 376.987,381.017 375.994 C 381.585 374.977,382.800 373.666,383.799 372.994 C 385.405 371.914,386.251 370.918,385.879 370.546 C 385.802 370.469,385.367 370.810,384.911 371.303 M377.200 380.200 C 376.926 380.530,376.460 380.800,376.165 380.800 C 375.340 380.800,372.956 383.058,372.424 384.342 C 372.081 385.169,371.499 385.623,370.336 385.972 C 369.448 386.238,368.794 386.527,368.881 386.615 C 369.497 387.230,372.077 385.695,373.071 384.122 C 373.764 383.025,374.816 382.048,375.871 381.522 C 376.801 381.057,377.654 380.435,377.768 380.139 C 378.039 379.432,377.818 379.456,377.200 380.200 M34.861 388.100 C 35.520 388.815,36.302 389.652,36.599 389.961 C 36.895 390.269,37.827 390.776,38.669 391.087 C 41.465 392.120,41.829 392.035,39.514 390.891 C 38.256 390.269,36.561 389.095,35.747 388.280 C 33.923 386.456,33.211 386.311,34.861 388.100 M366.893 387.332 C 366.394 387.609,365.532 388.503,364.978 389.318 C 364.397 390.174,363.643 390.800,363.194 390.800 C 362.155 390.800,359.357 391.922,357.473 393.094 C 355.819 394.123,350.659 395.993,349.460 395.997 C 349.053 395.999,348.103 396.617,347.350 397.370 C 346.597 398.124,345.490 398.919,344.890 399.138 C 344.291 399.358,344.013 399.551,344.274 399.568 C 345.096 399.623,346.558 398.894,347.762 397.828 C 348.401 397.263,349.246 396.800,349.639 396.800 C 350.031 396.800,350.445 396.651,350.557 396.469 C 350.670 396.287,351.895 395.797,353.281 395.380 C 354.666 394.962,356.946 393.954,358.347 393.138 C 359.748 392.322,361.602 391.535,362.467 391.389 C 363.983 391.133,366.000 389.527,366.000 388.577 C 366.000 388.339,366.585 387.854,367.300 387.498 C 368.015 387.142,368.420 386.846,368.200 386.840 C 367.980 386.833,367.392 387.055,366.893 387.332 M43.050 392.719 C 43.737 393.094,44.879 393.728,45.587 394.129 C 46.295 394.531,46.973 394.760,47.094 394.639 C 47.215 394.518,46.974 394.288,46.557 394.129 C 46.141 393.969,45.190 393.425,44.444 392.919 C 43.698 392.414,42.798 392.009,42.444 392.019 C 42.070 392.030,42.324 392.324,43.050 392.719 M48.400 395.400 C 48.950 395.714,49.940 395.966,50.600 395.959 C 51.567 395.948,51.412 395.838,49.800 395.391 C 47.292 394.694,47.167 394.695,48.400 395.400 M53.413 397.440 C 54.205 398.232,54.963 398.770,55.098 398.636 C 55.434 398.300,53.178 396.000,52.512 396.000 C 52.216 396.000,52.621 396.648,53.413 397.440 M58.900 399.876 C 59.285 399.976,59.915 399.976,60.300 399.876 C 60.685 399.775,60.370 399.693,59.600 399.693 C 58.830 399.693,58.515 399.775,58.900 399.876 " stroke="none" fill="#fca49c" fill-rule="evenodd"></path><path id="path4" d="M58.400 0.763 C 58.400 1.673,53.729 3.747,50.707 4.177 C 49.405 4.363,48.465 4.797,47.692 5.570 C 47.074 6.187,46.216 6.796,45.785 6.924 C 45.353 7.051,43.922 7.460,42.605 7.833 C 40.798 8.345,39.817 8.923,38.605 10.190 C 37.471 11.376,36.150 12.192,34.102 12.969 C 32.508 13.574,30.888 14.459,30.502 14.935 C 30.116 15.411,29.106 16.319,28.258 16.953 C 27.409 17.587,26.472 18.687,26.175 19.398 C 25.743 20.433,25.342 20.737,24.160 20.929 C 22.475 21.203,20.800 22.581,20.800 23.696 C 20.800 24.771,20.068 26.000,19.427 26.000 C 17.999 26.000,13.092 33.284,12.395 36.438 C 11.952 38.442,11.759 38.726,10.546 39.165 C 8.955 39.740,8.313 40.865,7.600 44.325 C 7.171 46.410,6.848 47.028,5.751 47.865 C 4.813 48.580,4.355 49.309,4.195 50.339 C 3.545 54.518,1.789 58.800,0.725 58.800 C 0.163 58.800,0.000 59.115,0.000 60.200 C 0.000 64.193,3.327 60.836,4.361 55.800 C 5.163 51.891,6.038 49.464,7.031 48.397 C 7.552 47.837,8.214 46.322,8.530 44.968 C 9.273 41.784,9.723 41.012,11.190 40.404 C 11.974 40.079,12.494 39.523,12.645 38.849 C 13.465 35.190,13.758 34.604,15.828 32.484 C 17.022 31.260,18.000 30.008,18.000 29.702 C 18.000 29.396,18.807 28.315,19.793 27.301 C 20.779 26.286,21.783 24.857,22.025 24.125 C 22.491 22.712,23.415 22.000,24.782 22.000 C 25.315 22.000,26.070 21.356,26.874 20.216 C 27.565 19.235,28.606 18.267,29.186 18.065 C 29.766 17.863,30.946 16.953,31.807 16.044 C 33.594 14.159,35.952 12.800,37.439 12.800 C 38.692 12.800,39.996 12.135,40.013 11.486 C 40.046 10.274,41.583 9.258,44.548 8.489 C 46.249 8.048,47.992 7.369,48.421 6.981 C 49.268 6.215,52.127 5.184,55.600 4.393 C 58.308 3.776,60.619 2.649,60.951 1.784 C 61.482 0.399,61.225 0.000,59.800 0.000 C 58.690 0.000,58.400 0.158,58.400 0.763 M340.400 0.766 C 340.400 2.198,344.734 4.312,349.079 4.998 C 350.003 5.144,351.566 5.798,352.553 6.452 C 353.539 7.105,355.484 7.916,356.873 8.254 C 358.861 8.736,359.667 9.172,360.650 10.293 C 361.546 11.316,362.763 12.034,364.945 12.830 C 368.185 14.011,372.699 17.490,373.841 19.685 C 374.199 20.373,374.953 20.933,375.905 21.219 C 377.881 21.811,378.536 22.326,379.375 23.951 C 379.759 24.694,380.732 25.980,381.537 26.809 C 385.034 30.413,386.459 32.194,386.664 33.219 C 386.784 33.822,387.584 35.189,388.442 36.258 C 389.299 37.326,390.141 38.380,390.313 38.600 C 390.866 39.306,392.000 41.903,392.000 42.461 C 392.000 42.759,392.900 44.531,394.000 46.400 C 395.100 48.269,396.000 50.296,396.000 50.905 C 396.000 52.595,398.316 56.000,399.466 56.000 C 400.445 56.000,400.159 52.880,399.167 52.728 C 398.576 52.637,398.121 52.017,397.606 50.600 C 396.505 47.569,394.801 44.294,393.933 43.542 C 393.507 43.172,392.798 41.549,392.357 39.935 C 391.262 35.919,390.936 35.375,389.224 34.702 C 387.967 34.208,387.659 33.838,387.228 32.302 C 386.949 31.303,386.153 29.809,385.460 28.982 C 384.767 28.156,383.705 26.898,383.100 26.187 C 382.495 25.476,382.000 24.714,382.000 24.494 C 382.000 23.749,378.718 21.122,376.784 20.318 C 375.457 19.766,374.720 19.172,374.397 18.394 C 373.813 16.984,369.472 13.270,368.057 12.969 C 366.087 12.551,365.268 12.050,364.733 10.938 C 364.095 9.611,362.596 8.811,358.089 7.393 C 356.928 7.027,354.982 6.128,353.764 5.395 C 352.546 4.662,350.796 3.935,349.875 3.780 C 347.059 3.307,344.000 1.766,344.000 0.822 C 344.000 0.114,343.749 0.000,342.200 0.000 C 340.694 0.000,340.400 0.125,340.400 0.766 M200.040 85.919 C 199.293 85.996,198.303 86.307,197.840 86.609 C 197.378 86.912,196.010 87.429,194.800 87.760 C 190.182 89.019,190.234 88.993,189.978 90.226 C 189.573 92.173,188.531 93.806,186.924 95.013 C 184.954 96.493,184.813 96.721,184.806 98.444 C 184.802 99.341,184.398 100.478,183.740 101.444 C 182.519 103.235,180.401 107.571,180.400 108.279 C 180.400 108.543,179.926 109.263,179.346 109.879 C 178.104 111.200,176.001 115.442,176.000 116.629 C 176.000 118.450,174.714 121.206,173.463 122.070 C 172.768 122.549,172.142 122.982,172.072 123.032 C 172.002 123.082,171.672 124.167,171.338 125.443 C 171.005 126.719,170.210 128.492,169.573 129.382 C 168.935 130.272,168.125 131.990,167.773 133.200 C 167.359 134.623,166.636 135.895,165.729 136.800 C 164.419 138.106,163.449 140.031,162.906 142.400 C 162.499 144.176,161.552 145.182,159.860 145.638 C 158.951 145.882,157.726 146.425,157.138 146.844 C 156.549 147.263,155.198 147.708,154.134 147.834 C 153.070 147.959,151.120 148.304,149.800 148.601 C 148.480 148.897,143.350 149.359,138.400 149.627 C 130.089 150.078,129.094 150.213,125.400 151.400 C 119.329 153.349,118.224 153.554,110.115 154.232 C 103.542 154.782,102.450 154.973,101.400 155.753 C 100.740 156.244,99.390 156.955,98.400 157.334 C 95.554 158.421,92.000 162.898,92.000 165.395 C 92.000 165.934,91.636 167.073,91.192 167.926 L 90.384 169.476 91.183 171.238 C 91.623 172.207,91.986 173.409,91.991 173.909 C 92.002 175.005,94.018 179.561,94.869 180.412 C 95.203 180.746,95.784 181.667,96.160 182.458 C 96.703 183.604,97.221 184.018,98.707 184.492 C 100.301 185.001,100.623 185.284,100.922 186.444 C 101.385 188.236,101.875 188.775,103.794 189.599 C 105.767 190.445,109.103 193.669,109.845 195.446 C 110.255 196.427,110.763 196.863,111.844 197.161 C 113.578 197.640,114.800 198.660,114.800 199.629 C 114.800 200.956,115.300 201.635,116.866 202.434 C 118.884 203.463,121.528 206.115,122.803 208.388 C 123.550 209.720,124.163 210.281,125.203 210.588 C 127.203 211.178,127.560 211.484,128.247 213.201 C 128.604 214.092,129.475 215.153,130.330 215.736 C 131.139 216.287,132.745 217.624,133.900 218.707 L 136.000 220.675 136.000 225.489 C 136.000 229.977,135.298 234.964,134.379 237.000 C 133.867 238.134,132.315 245.454,132.132 247.600 C 131.428 255.819,131.213 257.151,129.418 264.400 C 128.348 268.722,127.917 274.204,128.059 281.703 L 128.200 289.206 130.600 291.407 C 131.920 292.618,133.630 293.947,134.400 294.361 C 135.170 294.776,136.133 295.483,136.541 295.934 C 138.200 297.769,146.477 297.167,149.399 294.999 C 150.059 294.508,151.175 294.000,151.878 293.868 C 152.580 293.737,153.979 293.000,154.987 292.231 C 155.994 291.462,157.489 290.718,158.309 290.579 C 161.874 289.971,162.710 289.613,162.968 288.586 C 163.334 287.128,164.629 286.000,165.937 286.000 C 167.722 286.000,171.480 284.553,174.571 282.676 C 176.127 281.731,177.929 280.698,178.575 280.379 C 179.222 280.061,180.133 279.421,180.600 278.957 C 181.471 278.093,184.248 277.059,186.888 276.617 C 188.165 276.404,188.484 276.125,189.133 274.659 C 189.883 272.963,189.912 272.945,192.844 272.419 C 194.470 272.127,196.588 271.463,197.550 270.944 C 199.798 269.732,201.794 269.747,204.877 271.000 C 206.230 271.550,207.676 272.000,208.089 272.000 C 209.480 272.000,211.258 273.240,211.830 274.611 C 212.287 275.703,212.730 276.056,214.099 276.417 C 217.847 277.406,221.843 278.896,222.600 279.586 C 223.908 280.780,226.141 281.997,227.025 281.999 C 227.479 281.999,228.370 282.542,229.004 283.205 C 230.106 284.354,231.975 285.088,235.800 285.872 C 237.164 286.152,237.510 286.444,238.149 287.857 C 238.808 289.315,239.096 289.545,240.549 289.774 C 243.335 290.214,245.072 290.859,246.142 291.851 C 246.705 292.373,247.258 292.800,247.372 292.800 C 247.485 292.800,248.528 293.235,249.689 293.766 C 250.850 294.298,252.520 294.952,253.400 295.221 C 254.280 295.489,255.809 296.134,256.797 296.655 C 259.107 297.870,262.015 297.928,263.613 296.791 C 264.238 296.346,265.975 295.375,267.475 294.634 C 271.227 292.779,272.800 290.692,272.800 287.569 C 272.800 286.544,273.120 285.681,273.800 284.873 C 275.153 283.265,275.256 279.137,273.977 277.776 C 273.103 276.846,272.711 273.587,272.149 262.600 C 272.014 259.960,271.573 256.450,271.170 254.800 C 270.767 253.150,270.261 251.080,270.047 250.200 C 269.414 247.603,268.431 240.926,267.985 236.200 C 267.552 231.604,267.431 230.969,266.612 229.000 C 265.147 225.480,265.158 225.538,265.648 224.055 C 266.288 222.115,269.882 216.998,271.039 216.379 C 271.550 216.106,272.324 215.123,272.760 214.195 C 273.363 212.913,274.017 212.278,275.477 211.554 C 276.535 211.029,277.590 210.209,277.822 209.731 C 278.245 208.859,282.912 204.099,284.815 202.600 C 285.374 202.160,286.080 201.193,286.384 200.451 C 286.756 199.545,287.399 198.909,288.338 198.516 C 289.109 198.195,290.106 197.452,290.554 196.866 C 291.922 195.075,296.912 190.000,297.303 190.000 C 297.834 190.000,299.123 188.404,299.762 186.957 C 300.126 186.133,300.933 185.413,302.156 184.821 C 303.170 184.330,304.000 183.780,304.000 183.598 C 304.000 183.416,304.731 182.487,305.625 181.534 C 306.518 180.580,307.621 179.143,308.076 178.340 C 308.530 177.537,309.320 176.657,309.832 176.383 C 311.489 175.496,312.026 171.809,311.337 166.067 C 311.105 164.132,310.935 163.843,309.506 162.941 C 308.491 162.300,307.660 161.334,307.169 160.223 C 305.710 156.925,297.019 154.006,288.635 153.998 C 285.126 153.994,282.005 153.401,279.121 152.190 C 275.808 150.798,272.066 150.159,263.800 149.575 C 253.205 148.826,249.912 148.506,248.400 148.078 C 246.614 147.572,242.945 145.757,242.609 145.215 C 242.468 144.986,241.533 144.593,240.531 144.341 C 238.454 143.818,237.814 142.770,237.176 138.854 C 236.876 137.007,236.550 136.389,235.249 135.200 C 234.029 134.084,233.500 133.151,232.847 130.959 C 232.362 129.331,231.605 127.768,231.046 127.243 C 230.516 126.745,229.993 125.856,229.884 125.269 C 229.510 123.252,227.697 119.538,226.466 118.268 C 225.099 116.858,224.000 114.170,224.000 112.239 C 224.000 110.917,223.140 109.363,221.918 108.476 C 220.970 107.788,220.137 106.140,219.783 104.248 C 219.608 103.320,218.978 102.204,218.170 101.397 C 217.299 100.526,216.649 99.327,216.279 97.909 C 215.507 94.953,214.758 93.502,213.743 92.996 C 212.307 92.281,211.691 91.618,211.408 90.484 C 211.022 88.936,210.043 88.000,208.811 88.000 C 207.573 88.000,203.852 87.000,202.400 86.276 C 201.850 86.002,200.788 85.842,200.040 85.919 M206.095 88.435 C 210.229 88.972,210.071 88.865,210.603 91.506 C 210.753 92.249,211.304 93.112,211.881 93.506 C 214.012 94.964,214.727 96.016,215.016 98.121 C 215.240 99.753,215.588 100.470,216.633 101.456 C 217.624 102.391,218.107 103.331,218.524 105.138 C 219.207 108.095,220.102 109.538,221.571 110.050 C 222.583 110.403,222.747 110.749,223.400 113.919 C 224.070 117.174,224.926 119.535,225.603 120.000 C 226.310 120.484,228.327 124.330,228.557 125.631 C 228.719 126.548,229.294 127.491,230.157 128.254 C 231.154 129.136,231.576 129.909,231.780 131.223 C 232.335 134.793,232.779 135.630,234.539 136.418 C 236.185 137.155,236.192 137.166,236.661 140.205 C 237.161 143.434,238.483 145.992,239.655 145.997 C 240.015 145.999,241.194 146.608,242.273 147.350 C 244.800 149.088,249.438 149.864,259.200 150.182 C 267.977 150.468,269.492 150.731,271.495 152.317 C 273.356 153.791,279.677 154.800,287.045 154.800 C 291.848 154.800,296.571 155.686,298.917 157.028 C 299.843 157.557,300.954 157.993,301.387 157.995 C 303.483 158.008,305.540 159.267,306.205 160.945 C 306.566 161.855,307.275 163.050,307.779 163.600 C 308.284 164.150,308.822 165.129,308.975 165.776 C 309.128 166.422,309.628 167.478,310.087 168.122 L 310.920 169.292 310.035 171.871 C 309.549 173.289,308.808 174.792,308.389 175.211 C 307.970 175.630,307.180 176.856,306.632 177.936 C 306.085 179.016,305.377 180.000,305.060 180.122 C 304.743 180.243,304.084 181.053,303.596 181.922 C 302.942 183.086,302.312 183.620,301.202 183.952 C 299.429 184.483,299.094 184.860,298.479 187.016 C 298.096 188.361,297.764 188.723,296.509 189.170 C 294.846 189.761,291.641 192.962,290.405 195.266 C 289.843 196.313,289.187 196.871,288.109 197.218 C 286.057 197.879,285.680 198.241,285.130 200.076 C 284.777 201.256,284.294 201.842,283.228 202.386 C 281.380 203.330,277.317 207.594,276.978 208.946 C 276.777 209.746,276.324 210.105,275.057 210.466 C 272.951 211.066,272.150 211.748,271.862 213.190 C 271.736 213.821,271.153 214.667,270.568 215.069 C 264.552 219.198,262.627 224.361,265.000 230.000 C 265.550 231.307,266.000 232.842,266.000 233.411 C 266.000 233.980,266.165 235.200,266.366 236.123 C 266.568 237.045,267.022 240.320,267.376 243.400 C 268.412 252.415,268.811 254.502,269.785 256.013 C 270.393 256.955,270.767 258.286,270.911 260.013 C 271.029 261.436,271.327 264.805,271.573 267.500 C 272.675 279.570,272.258 289.233,270.560 290.931 C 268.330 293.161,262.715 295.049,259.490 294.653 C 254.095 293.991,251.196 293.304,249.735 292.340 C 247.807 291.068,245.750 290.130,244.200 289.817 C 243.426 289.661,242.679 289.082,242.096 288.187 C 241.599 287.424,240.962 286.800,240.681 286.800 C 240.399 286.800,239.456 286.429,238.585 285.976 C 237.713 285.523,236.020 284.986,234.822 284.784 C 233.023 284.480,232.347 284.115,230.932 282.679 C 229.624 281.353,228.720 280.827,227.113 280.456 C 225.844 280.163,224.528 279.520,223.803 278.838 C 222.486 277.600,220.506 276.800,218.759 276.800 C 217.144 276.800,215.915 276.115,215.000 274.703 C 214.560 274.024,213.930 273.333,213.600 273.168 C 212.441 272.586,210.184 271.689,208.627 271.192 C 207.761 270.916,206.637 270.273,206.127 269.764 C 203.727 267.364,197.381 267.538,196.592 270.026 C 196.448 270.478,195.334 270.899,192.953 271.398 C 189.632 272.095,188.763 272.552,186.200 274.947 C 185.254 275.830,183.119 276.799,182.113 276.801 C 181.721 276.802,180.320 277.524,179.000 278.405 C 177.680 279.286,175.610 280.376,174.400 280.828 C 173.066 281.325,171.649 282.244,170.800 283.159 C 169.544 284.515,169.135 284.698,166.828 284.937 C 163.869 285.243,162.503 285.985,161.943 287.592 C 161.511 288.831,160.642 289.262,157.136 289.979 C 155.817 290.248,154.447 290.835,153.854 291.385 C 153.294 291.904,152.243 292.452,151.518 292.604 C 150.793 292.755,149.803 293.130,149.318 293.437 C 145.852 295.630,134.824 294.281,132.622 291.393 C 132.061 290.658,131.090 289.952,130.445 289.810 C 129.525 289.608,129.235 289.286,129.063 288.277 C 128.078 282.507,128.550 271.956,129.898 269.600 C 131.326 267.103,132.541 260.273,133.027 252.000 C 133.207 248.946,133.585 246.873,134.415 244.400 C 136.400 238.488,137.665 222.407,136.344 219.874 C 135.774 218.780,131.932 214.800,131.446 214.800 C 130.888 214.800,128.800 212.474,128.800 211.853 C 128.800 211.033,127.703 210.253,125.910 209.796 C 124.572 209.455,124.241 209.155,123.803 207.881 C 123.216 206.174,119.760 202.506,117.884 201.600 C 117.099 201.221,116.273 200.282,115.642 199.052 C 114.861 197.529,114.267 196.943,112.923 196.367 C 111.630 195.813,110.990 195.205,110.339 193.915 C 109.110 191.479,106.407 189.190,104.204 188.720 C 102.709 188.401,102.360 188.152,102.172 187.267 C 101.685 184.980,101.184 184.349,99.198 183.524 C 98.099 183.067,97.200 182.520,97.200 182.307 C 97.200 181.627,95.845 179.020,95.169 178.400 C 92.477 175.931,92.065 165.168,94.566 162.654 C 95.252 161.964,96.223 160.822,96.723 160.115 C 97.344 159.239,98.088 158.745,99.063 158.562 C 99.850 158.414,101.058 157.805,101.747 157.209 C 103.279 155.883,105.989 155.334,112.600 155.012 C 123.888 154.462,126.743 154.038,130.200 152.404 C 134.109 150.556,137.162 150.005,143.633 149.983 C 152.142 149.953,160.997 148.396,162.042 146.745 C 162.232 146.445,162.767 145.071,163.230 143.690 C 163.932 141.598,164.284 141.092,165.349 140.647 C 166.500 140.166,166.760 139.713,167.981 136.057 C 168.726 133.826,169.479 132.000,169.653 132.000 C 170.078 132.000,172.800 126.303,172.800 125.412 C 172.800 125.024,173.509 124.053,174.376 123.254 C 175.835 121.908,175.990 121.553,176.470 118.460 C 176.973 115.226,177.035 115.097,178.418 114.391 C 179.685 113.745,179.974 113.284,180.965 110.331 C 181.581 108.499,182.489 106.460,182.984 105.800 C 183.480 105.140,184.025 104.150,184.196 103.600 C 184.922 101.261,187.170 96.897,187.766 96.669 C 188.121 96.532,188.599 96.011,188.827 95.510 C 190.868 91.033,192.239 89.385,194.431 88.777 C 196.403 88.231,200.674 87.662,201.600 87.824 C 201.930 87.882,203.953 88.156,206.095 88.435 M0.000 342.000 C 0.000 343.729,0.108 344.000,0.795 344.000 C 1.708 344.000,2.449 345.522,3.573 349.705 C 3.973 351.193,4.818 353.168,5.450 354.095 C 6.083 355.021,7.233 357.584,8.006 359.790 C 9.258 363.362,9.560 363.874,10.771 364.481 C 12.347 365.271,12.785 365.844,12.794 367.120 C 12.807 369.081,14.633 371.623,18.573 375.164 C 19.163 375.694,19.923 376.664,20.262 377.320 C 20.984 378.716,24.350 382.000,25.058 382.000 C 25.327 382.000,25.653 382.335,25.783 382.746 C 26.175 383.983,29.743 386.700,31.903 387.406 C 33.375 387.888,33.993 388.316,34.157 388.970 C 34.552 390.544,35.977 392.000,37.129 392.006 C 38.759 392.015,41.539 393.103,42.573 394.137 C 43.081 394.644,44.105 395.290,44.848 395.571 C 45.592 395.852,47.213 396.513,48.450 397.041 C 49.688 397.568,50.922 398.000,51.192 398.000 C 51.463 398.000,52.204 398.437,52.838 398.971 C 54.781 400.605,54.283 400.600,201.800 400.600 L 345.000 400.600 347.800 399.654 C 349.340 399.134,351.165 398.285,351.855 397.768 C 352.545 397.252,354.242 396.514,355.627 396.129 C 357.313 395.660,358.566 395.007,359.420 394.154 C 360.336 393.237,361.335 392.746,362.971 392.406 C 365.295 391.924,367.736 390.261,368.182 388.858 C 368.309 388.455,369.350 387.843,370.666 387.396 C 372.382 386.812,373.117 386.309,373.703 385.315 C 374.178 384.511,375.164 383.700,376.252 383.218 C 377.563 382.638,378.182 382.063,378.618 381.019 C 378.961 380.198,379.852 379.199,380.742 378.637 C 381.614 378.086,382.506 377.094,382.812 376.335 C 383.107 375.601,383.694 374.730,384.114 374.400 C 386.253 372.722,386.781 372.030,387.398 370.093 C 387.797 368.839,388.468 367.705,389.053 367.293 C 391.487 365.580,391.647 365.351,392.249 362.704 C 392.668 360.866,393.154 359.779,393.777 359.289 C 394.743 358.530,396.000 356.397,396.000 355.518 C 396.000 354.446,398.828 349.200,399.406 349.200 C 399.818 349.200,400.000 348.771,400.000 347.800 C 400.000 344.256,397.357 346.758,395.774 351.800 C 395.152 353.780,394.342 355.850,393.973 356.400 C 392.710 358.284,391.265 361.444,390.985 362.938 C 390.761 364.134,390.407 364.584,389.215 365.193 C 387.929 365.848,387.577 366.355,386.650 368.876 C 385.730 371.378,385.320 371.971,383.813 372.985 C 382.845 373.636,381.644 374.896,381.146 375.785 C 380.647 376.673,379.646 377.961,378.920 378.647 C 378.194 379.333,377.600 380.066,377.600 380.276 C 377.600 380.486,376.831 381.042,375.891 381.512 C 374.808 382.053,373.768 383.019,373.054 384.149 C 372.350 385.263,371.528 386.032,370.864 386.198 C 368.899 386.691,366.000 388.094,366.000 388.553 C 366.000 389.524,363.999 391.130,362.467 391.389 C 361.602 391.535,359.748 392.322,358.347 393.138 C 356.946 393.954,354.666 394.962,353.281 395.380 C 351.895 395.797,350.670 396.287,350.557 396.469 C 350.445 396.651,350.028 396.800,349.631 396.800 C 349.233 396.800,348.299 397.334,347.554 397.986 C 345.160 400.083,351.190 400.000,200.653 400.000 C 43.346 400.000,56.203 400.229,53.346 397.372 C 52.426 396.453,51.598 396.000,50.836 396.000 C 49.653 396.000,45.444 394.310,44.400 393.416 C 43.803 392.905,39.791 391.309,38.126 390.921 C 37.646 390.809,36.986 390.420,36.660 390.058 C 34.299 387.431,33.568 386.800,32.887 386.800 C 32.097 386.800,29.075 384.400,27.110 382.213 C 24.817 379.661,24.509 379.381,23.254 378.708 C 22.425 378.264,21.679 377.377,21.175 376.237 C 20.687 375.134,19.858 374.130,18.994 373.596 C 18.227 373.122,17.600 372.589,17.600 372.411 C 17.600 372.232,16.811 371.209,15.846 370.136 C 14.630 368.784,13.754 367.232,12.990 365.082 C 12.133 362.667,11.562 361.720,10.413 360.811 C 9.219 359.865,8.836 359.199,8.402 357.321 C 7.832 354.851,7.353 353.811,5.783 351.641 C 5.242 350.893,4.798 349.723,4.796 349.041 C 4.785 346.052,2.106 340.000,0.793 340.000 C 0.108 340.000,0.000 340.272,0.000 342.000 " stroke="none" fill="#fca4a4" fill-rule="evenodd"></path></g></svg>